<ttFont>
    <TTGlyph name="A" xMin="34" yMin="-32" xMax="465" yMax="930">
      <contour>
        <pt x="317" y="930" on="1"/>
        <pt x="332" y="930" on="0"/>
        <pt x="346" y="901" on="1"/>
        <pt x="343" y="886" on="1"/>
        <pt x="430" y="311" on="0"/>
        <pt x="465" y="10" on="1"/>
        <pt x="455" y="-18" on="0"/>
        <pt x="434" y="-18" on="1"/>
        <pt x="399" y="-18" on="0"/>
        <pt x="392" y="132" on="1"/>
        <pt x="381" y="211" on="1"/>
        <pt x="326" y="208" on="1"/>
        <pt x="274" y="208" on="0"/>
        <pt x="169" y="221" on="1"/>
        <pt x="95" y="-32" on="0"/>
        <pt x="68" y="-32" on="1"/>
        <pt x="66" y="-32" on="1"/>
        <pt x="34" y="-23" on="0"/>
        <pt x="34" y="0" on="1"/>
        <pt x="115" y="198" on="0"/>
        <pt x="210" y="678" on="1"/>
        <pt x="251" y="826" on="0"/>
        <pt x="285" y="917" on="1"/>
        <pt x="299" y="930" on="0"/>
      </contour>
      <contour>
        <pt x="185" y="281" on="1"/>
        <pt x="240" y="268" on="0"/>
        <pt x="301" y="268" on="1"/>
        <pt x="355" y="268" on="1"/>
        <pt x="366" y="268" on="0"/>
        <pt x="374" y="277" on="1"/>
        <pt x="301" y="763" on="1"/>
        <pt x="299" y="763" on="1"/>
        <pt x="279" y="732" on="0"/>
        <pt x="241" y="545" on="1"/>
      </contour>
    </TTGlyph>
    <TTGlyph name="AE" xMin="41" yMin="-17" xMax="688" yMax="953">
      <contour>
        <pt x="345" y="953" on="1"/>
        <pt x="360" y="953" on="1"/>
        <pt x="583" y="953" on="0"/>
        <pt x="583" y="928" on="1"/>
        <pt x="587" y="915" on="1"/>
        <pt x="587" y="893" on="0"/>
        <pt x="555" y="884" on="1"/>
        <pt x="363" y="893" on="1"/>
        <pt x="350" y="893" on="1"/>
        <pt x="404" y="544" on="1"/>
        <pt x="417" y="544" on="1"/>
        <pt x="463" y="544" on="0"/>
        <pt x="545" y="566" on="1"/>
        <pt x="565" y="566" on="0"/>
        <pt x="574" y="537" on="1"/>
        <pt x="574" y="498" on="0"/>
        <pt x="426" y="484" on="1"/>
        <pt x="414" y="484" on="0"/>
        <pt x="414" y="477" on="1"/>
        <pt x="463" y="106" on="1"/>
        <pt x="542" y="55" on="0"/>
        <pt x="637" y="55" on="1"/>
        <pt x="659" y="55" on="1"/>
        <pt x="683" y="55" on="0"/>
        <pt x="688" y="24" on="1"/>
        <pt x="688" y="-1" on="0"/>
        <pt x="637" y="-5" on="1"/>
        <pt x="576" y="-5" on="0"/>
        <pt x="473" y="31" on="1"/>
        <pt x="473" y="27" on="1"/>
        <pt x="469" y="-1" on="0"/>
        <pt x="445" y="-1" on="1"/>
        <pt x="441" y="-1" on="1"/>
        <pt x="408" y="-1" on="0"/>
        <pt x="408" y="100" on="1"/>
        <pt x="388" y="226" on="1"/>
        <pt x="328" y="222" on="1"/>
        <pt x="177" y="235" on="1"/>
        <pt x="106" y="-17" on="0"/>
        <pt x="74" y="-17" on="1"/>
        <pt x="53" y="-17" on="0"/>
        <pt x="41" y="11" on="1"/>
        <pt x="126" y="229" on="0"/>
        <pt x="221" y="704" on="1"/>
        <pt x="253" y="821" on="0"/>
        <pt x="287" y="915" on="1"/>
        <pt x="287" y="953" on="0"/>
      </contour>
      <contour>
        <pt x="196" y="295" on="1"/>
        <pt x="256" y="282" on="0"/>
        <pt x="325" y="282" on="1"/>
        <pt x="347" y="282" on="1"/>
        <pt x="370" y="282" on="0"/>
        <pt x="382" y="289" on="1"/>
        <pt x="310" y="777" on="1"/>
        <pt x="307" y="777" on="1"/>
        <pt x="292" y="758" on="0"/>
        <pt x="243" y="540" on="1"/>
        <pt x="193" y="295" on="1"/>
      </contour>
    </TTGlyph>
    <TTGlyph name="AEacute" xMin="41" yMin="-17" xMax="688" yMax="1199">
      <contour>
        <pt x="345" y="953" on="1"/>
        <pt x="360" y="953" on="1"/>
        <pt x="583" y="953" on="0"/>
        <pt x="583" y="928" on="1"/>
        <pt x="587" y="915" on="1"/>
        <pt x="587" y="893" on="0"/>
        <pt x="555" y="884" on="1"/>
        <pt x="363" y="893" on="1"/>
        <pt x="350" y="893" on="1"/>
        <pt x="404" y="544" on="1"/>
        <pt x="417" y="544" on="1"/>
        <pt x="463" y="544" on="0"/>
        <pt x="545" y="566" on="1"/>
        <pt x="565" y="566" on="0"/>
        <pt x="574" y="537" on="1"/>
        <pt x="574" y="498" on="0"/>
        <pt x="426" y="484" on="1"/>
        <pt x="414" y="484" on="0"/>
        <pt x="414" y="477" on="1"/>
        <pt x="463" y="106" on="1"/>
        <pt x="542" y="55" on="0"/>
        <pt x="637" y="55" on="1"/>
        <pt x="659" y="55" on="1"/>
        <pt x="683" y="55" on="0"/>
        <pt x="688" y="24" on="1"/>
        <pt x="688" y="-1" on="0"/>
        <pt x="637" y="-5" on="1"/>
        <pt x="576" y="-5" on="0"/>
        <pt x="473" y="31" on="1"/>
        <pt x="473" y="27" on="1"/>
        <pt x="469" y="-1" on="0"/>
        <pt x="445" y="-1" on="1"/>
        <pt x="441" y="-1" on="1"/>
        <pt x="408" y="-1" on="0"/>
        <pt x="408" y="100" on="1"/>
        <pt x="388" y="226" on="1"/>
        <pt x="328" y="222" on="1"/>
        <pt x="177" y="235" on="1"/>
        <pt x="106" y="-17" on="0"/>
        <pt x="74" y="-17" on="1"/>
        <pt x="53" y="-17" on="0"/>
        <pt x="41" y="11" on="1"/>
        <pt x="126" y="229" on="0"/>
        <pt x="221" y="704" on="1"/>
        <pt x="253" y="821" on="0"/>
        <pt x="287" y="915" on="1"/>
        <pt x="287" y="953" on="0"/>
      </contour>
      <contour>
        <pt x="196" y="295" on="1"/>
        <pt x="256" y="282" on="0"/>
        <pt x="325" y="282" on="1"/>
        <pt x="347" y="282" on="1"/>
        <pt x="370" y="282" on="0"/>
        <pt x="382" y="289" on="1"/>
        <pt x="310" y="777" on="1"/>
        <pt x="307" y="777" on="1"/>
        <pt x="292" y="758" on="0"/>
        <pt x="243" y="540" on="1"/>
        <pt x="193" y="295" on="1"/>
      </contour>
      <contour>
        <pt x="457" y="1199" on="1"/>
        <pt x="489" y="1191" on="0"/>
        <pt x="489" y="1167" on="1"/>
        <pt x="489" y="1156" on="0"/>
        <pt x="369" y="1050" on="1"/>
        <pt x="317" y="1000" on="0"/>
        <pt x="309" y="1000" on="1"/>
        <pt x="277" y="1008" on="0"/>
        <pt x="277" y="1035" on="1"/>
        <pt x="428" y="1199" on="0"/>
      </contour>
    </TTGlyph>
    <TTGlyph name="Aacute" xMin="34" yMin="-32" xMax="465" yMax="1132">
      <contour>
        <pt x="317" y="930" on="1"/>
        <pt x="332" y="930" on="0"/>
        <pt x="346" y="901" on="1"/>
        <pt x="343" y="886" on="1"/>
        <pt x="430" y="311" on="0"/>
        <pt x="465" y="10" on="1"/>
        <pt x="455" y="-18" on="0"/>
        <pt x="434" y="-18" on="1"/>
        <pt x="399" y="-18" on="0"/>
        <pt x="392" y="132" on="1"/>
        <pt x="381" y="211" on="1"/>
        <pt x="326" y="208" on="1"/>
        <pt x="274" y="208" on="0"/>
        <pt x="169" y="221" on="1"/>
        <pt x="95" y="-32" on="0"/>
        <pt x="68" y="-32" on="1"/>
        <pt x="66" y="-32" on="1"/>
        <pt x="34" y="-23" on="0"/>
        <pt x="34" y="0" on="1"/>
        <pt x="115" y="198" on="0"/>
        <pt x="210" y="678" on="1"/>
        <pt x="251" y="826" on="0"/>
        <pt x="285" y="917" on="1"/>
        <pt x="299" y="930" on="0"/>
      </contour>
      <contour>
        <pt x="185" y="281" on="1"/>
        <pt x="240" y="268" on="0"/>
        <pt x="301" y="268" on="1"/>
        <pt x="355" y="268" on="1"/>
        <pt x="366" y="268" on="0"/>
        <pt x="374" y="277" on="1"/>
        <pt x="301" y="763" on="1"/>
        <pt x="299" y="763" on="1"/>
        <pt x="279" y="732" on="0"/>
        <pt x="241" y="545" on="1"/>
      </contour>
      <contour>
        <pt x="365" y="1132" on="1"/>
        <pt x="396" y="1124" on="0"/>
        <pt x="396" y="1102" on="1"/>
        <pt x="396" y="1091" on="0"/>
        <pt x="276" y="985" on="1"/>
        <pt x="225" y="934" on="0"/>
        <pt x="217" y="934" on="1"/>
        <pt x="185" y="942" on="0"/>
        <pt x="185" y="968" on="1"/>
        <pt x="337" y="1132" on="0"/>
      </contour>
    </TTGlyph>
    <TTGlyph name="Abreve" xMin="34" yMin="-32" xMax="465" yMax="1117">
      <contour>
        <pt x="317" y="930" on="1"/>
        <pt x="332" y="930" on="0"/>
        <pt x="346" y="901" on="1"/>
        <pt x="343" y="886" on="1"/>
        <pt x="430" y="311" on="0"/>
        <pt x="465" y="10" on="1"/>
        <pt x="455" y="-18" on="0"/>
        <pt x="434" y="-18" on="1"/>
        <pt x="399" y="-18" on="0"/>
        <pt x="392" y="132" on="1"/>
        <pt x="381" y="211" on="1"/>
        <pt x="326" y="208" on="1"/>
        <pt x="274" y="208" on="0"/>
        <pt x="169" y="221" on="1"/>
        <pt x="95" y="-32" on="0"/>
        <pt x="68" y="-32" on="1"/>
        <pt x="66" y="-32" on="1"/>
        <pt x="34" y="-23" on="0"/>
        <pt x="34" y="0" on="1"/>
        <pt x="115" y="198" on="0"/>
        <pt x="210" y="678" on="1"/>
        <pt x="251" y="826" on="0"/>
        <pt x="285" y="917" on="1"/>
        <pt x="299" y="930" on="0"/>
      </contour>
      <contour>
        <pt x="185" y="281" on="1"/>
        <pt x="240" y="268" on="0"/>
        <pt x="301" y="268" on="1"/>
        <pt x="355" y="268" on="1"/>
        <pt x="366" y="268" on="0"/>
        <pt x="374" y="277" on="1"/>
        <pt x="301" y="763" on="1"/>
        <pt x="299" y="763" on="1"/>
        <pt x="279" y="732" on="0"/>
        <pt x="241" y="545" on="1"/>
      </contour>
      <contour>
        <pt x="419" y="1092" on="1"/>
        <pt x="304" y="950" on="0"/>
        <pt x="155" y="1060" on="0"/>
        <pt x="155" y="1082" on="1"/>
        <pt x="163" y="1108" on="0"/>
        <pt x="184" y="1108" on="1"/>
        <pt x="186" y="1108" on="1"/>
        <pt x="272" y="1005" on="0"/>
        <pt x="366" y="1117" on="0"/>
        <pt x="387" y="1117" on="1"/>
        <pt x="391" y="1117" on="1"/>
        <pt x="406" y="1117" on="0"/>
      </contour>
    </TTGlyph>
    <TTGlyph name="Acircumflex" xMin="34" yMin="-32" xMax="465" yMax="1098">
      <contour>
        <pt x="317" y="930" on="1"/>
        <pt x="332" y="930" on="0"/>
        <pt x="346" y="901" on="1"/>
        <pt x="343" y="886" on="1"/>
        <pt x="430" y="311" on="0"/>
        <pt x="465" y="10" on="1"/>
        <pt x="455" y="-18" on="0"/>
        <pt x="434" y="-18" on="1"/>
        <pt x="399" y="-18" on="0"/>
        <pt x="392" y="132" on="1"/>
        <pt x="381" y="211" on="1"/>
        <pt x="326" y="208" on="1"/>
        <pt x="274" y="208" on="0"/>
        <pt x="169" y="221" on="1"/>
        <pt x="95" y="-32" on="0"/>
        <pt x="68" y="-32" on="1"/>
        <pt x="66" y="-32" on="1"/>
        <pt x="34" y="-23" on="0"/>
        <pt x="34" y="0" on="1"/>
        <pt x="115" y="198" on="0"/>
        <pt x="210" y="678" on="1"/>
        <pt x="251" y="826" on="0"/>
        <pt x="285" y="917" on="1"/>
        <pt x="299" y="930" on="0"/>
      </contour>
      <contour>
        <pt x="185" y="281" on="1"/>
        <pt x="240" y="268" on="0"/>
        <pt x="301" y="268" on="1"/>
        <pt x="355" y="268" on="1"/>
        <pt x="366" y="268" on="0"/>
        <pt x="374" y="277" on="1"/>
        <pt x="301" y="763" on="1"/>
        <pt x="299" y="763" on="1"/>
        <pt x="279" y="732" on="0"/>
        <pt x="241" y="545" on="1"/>
      </contour>
      <contour>
        <pt x="445" y="951" on="1"/>
        <pt x="446" y="925" on="0"/>
        <pt x="412" y="918" on="1"/>
        <pt x="400" y="917" on="0"/>
        <pt x="278" y="1015" on="1"/>
        <pt x="275" y="1015" on="1"/>
        <pt x="241" y="924" on="0"/>
        <pt x="222" y="922" on="1"/>
        <pt x="219" y="922" on="1"/>
        <pt x="190" y="924" on="0"/>
        <pt x="189" y="949" on="1"/>
        <pt x="229" y="1080" on="0"/>
        <pt x="269" y="1097" on="1"/>
        <pt x="285" y="1098" on="0"/>
        <pt x="367" y="1015" on="1"/>
        <pt x="427" y="976" on="0"/>
      </contour>
    </TTGlyph>
    <TTGlyph name="Adieresis" xMin="34" yMin="-32" xMax="465" yMax="1001">
      <contour>
        <pt x="317" y="930" on="1"/>
        <pt x="332" y="930" on="0"/>
        <pt x="346" y="901" on="1"/>
        <pt x="343" y="886" on="1"/>
        <pt x="430" y="311" on="0"/>
        <pt x="465" y="10" on="1"/>
        <pt x="455" y="-18" on="0"/>
        <pt x="434" y="-18" on="1"/>
        <pt x="399" y="-18" on="0"/>
        <pt x="392" y="132" on="1"/>
        <pt x="381" y="211" on="1"/>
        <pt x="326" y="208" on="1"/>
        <pt x="274" y="208" on="0"/>
        <pt x="169" y="221" on="1"/>
        <pt x="95" y="-32" on="0"/>
        <pt x="68" y="-32" on="1"/>
        <pt x="66" y="-32" on="1"/>
        <pt x="34" y="-23" on="0"/>
        <pt x="34" y="0" on="1"/>
        <pt x="115" y="198" on="0"/>
        <pt x="210" y="678" on="1"/>
        <pt x="251" y="826" on="0"/>
        <pt x="285" y="917" on="1"/>
        <pt x="299" y="930" on="0"/>
      </contour>
      <contour>
        <pt x="185" y="281" on="1"/>
        <pt x="240" y="268" on="0"/>
        <pt x="301" y="268" on="1"/>
        <pt x="355" y="268" on="1"/>
        <pt x="366" y="268" on="0"/>
        <pt x="374" y="277" on="1"/>
        <pt x="301" y="763" on="1"/>
        <pt x="299" y="763" on="1"/>
        <pt x="279" y="732" on="0"/>
        <pt x="241" y="545" on="1"/>
      </contour>
      <contour>
        <pt x="268" y="1001" on="1"/>
        <pt x="291" y="1001" on="0"/>
        <pt x="293" y="967" on="1"/>
        <pt x="287" y="935" on="0"/>
        <pt x="262" y="935" on="1"/>
        <pt x="236" y="935" on="0"/>
        <pt x="230" y="969" on="1"/>
        <pt x="242" y="1001" on="0"/>
      </contour>
      <contour>
        <pt x="356" y="1001" on="1"/>
        <pt x="382" y="993" on="0"/>
        <pt x="382" y="969" on="1"/>
        <pt x="382" y="948" on="0"/>
        <pt x="346" y="941" on="1"/>
        <pt x="328" y="941" on="0"/>
        <pt x="315" y="969" on="1"/>
        <pt x="315" y="999" on="0"/>
      </contour>
    </TTGlyph>
    <TTGlyph name="Agrave" xMin="31" yMin="-23" xMax="462" yMax="1051">
      <contour>
        <pt x="314" y="938" on="1"/>
        <pt x="329" y="938" on="0"/>
        <pt x="343" y="910" on="1"/>
        <pt x="339" y="894" on="1"/>
        <pt x="427" y="319" on="0"/>
        <pt x="462" y="18" on="1"/>
        <pt x="453" y="-10" on="0"/>
        <pt x="430" y="-10" on="1"/>
        <pt x="396" y="-10" on="0"/>
        <pt x="390" y="141" on="1"/>
        <pt x="377" y="220" on="1"/>
        <pt x="323" y="217" on="1"/>
        <pt x="270" y="217" on="0"/>
        <pt x="166" y="229" on="1"/>
        <pt x="93" y="-23" on="0"/>
        <pt x="66" y="-23" on="1"/>
        <pt x="62" y="-23" on="1"/>
        <pt x="31" y="-14" on="0"/>
        <pt x="31" y="9" on="1"/>
        <pt x="112" y="207" on="0"/>
        <pt x="207" y="687" on="1"/>
        <pt x="247" y="834" on="0"/>
        <pt x="283" y="925" on="1"/>
        <pt x="296" y="938" on="0"/>
      </contour>
      <contour>
        <pt x="182" y="290" on="1"/>
        <pt x="238" y="276" on="0"/>
        <pt x="299" y="276" on="1"/>
        <pt x="352" y="276" on="1"/>
        <pt x="363" y="276" on="0"/>
        <pt x="371" y="286" on="1"/>
        <pt x="299" y="771" on="1"/>
        <pt x="295" y="771" on="1"/>
        <pt x="276" y="740" on="0"/>
        <pt x="238" y="553" on="1"/>
      </contour>
      <contour>
        <pt x="256" y="1051" on="1"/>
        <pt x="279" y="1051" on="1"/>
        <pt x="306" y="1051" on="0"/>
        <pt x="382" y="992" on="1"/>
        <pt x="411" y="983" on="0"/>
        <pt x="411" y="968" on="1"/>
        <pt x="411" y="957" on="1"/>
        <pt x="397" y="949" on="1"/>
        <pt x="364" y="949" on="1"/>
        <pt x="320" y="949" on="0"/>
        <pt x="241" y="1021" on="1"/>
        <pt x="241" y="1043" on="1"/>
      </contour>
    </TTGlyph>
    <TTGlyph name="Amacron" xMin="34" yMin="-32" xMax="465" yMax="1053">
      <contour>
        <pt x="317" y="930" on="1"/>
        <pt x="332" y="930" on="0"/>
        <pt x="346" y="901" on="1"/>
        <pt x="343" y="886" on="1"/>
        <pt x="430" y="311" on="0"/>
        <pt x="465" y="10" on="1"/>
        <pt x="455" y="-18" on="0"/>
        <pt x="434" y="-18" on="1"/>
        <pt x="399" y="-18" on="0"/>
        <pt x="392" y="132" on="1"/>
        <pt x="381" y="211" on="1"/>
        <pt x="326" y="208" on="1"/>
        <pt x="274" y="208" on="0"/>
        <pt x="169" y="221" on="1"/>
        <pt x="95" y="-32" on="0"/>
        <pt x="68" y="-32" on="1"/>
        <pt x="66" y="-32" on="1"/>
        <pt x="34" y="-23" on="0"/>
        <pt x="34" y="0" on="1"/>
        <pt x="115" y="198" on="0"/>
        <pt x="210" y="678" on="1"/>
        <pt x="251" y="826" on="0"/>
        <pt x="285" y="917" on="1"/>
        <pt x="299" y="930" on="0"/>
      </contour>
      <contour>
        <pt x="185" y="281" on="1"/>
        <pt x="240" y="268" on="0"/>
        <pt x="301" y="268" on="1"/>
        <pt x="355" y="268" on="1"/>
        <pt x="366" y="268" on="0"/>
        <pt x="374" y="277" on="1"/>
        <pt x="301" y="763" on="1"/>
        <pt x="299" y="763" on="1"/>
        <pt x="279" y="732" on="0"/>
        <pt x="241" y="545" on="1"/>
      </contour>
      <contour>
        <pt x="207" y="1045" on="1"/>
        <pt x="449" y="1053" on="0"/>
        <pt x="449" y="1021" on="1"/>
        <pt x="452" y="1012" on="1"/>
        <pt x="444" y="984" on="0"/>
        <pt x="427" y="984" on="1"/>
        <pt x="361" y="994" on="0"/>
        <pt x="211" y="985" on="1"/>
        <pt x="192" y="983" on="1"/>
        <pt x="169" y="983" on="0"/>
        <pt x="163" y="1017" on="1"/>
        <pt x="163" y="1041" on="0"/>
      </contour>
    </TTGlyph>
    <TTGlyph name="Aogonek" xMin="34" yMin="-178" xMax="548" yMax="930">
      <contour>
        <pt x="317" y="930" on="1"/>
        <pt x="332" y="930" on="0"/>
        <pt x="346" y="901" on="1"/>
        <pt x="343" y="886" on="1"/>
        <pt x="430" y="311" on="0"/>
        <pt x="465" y="10" on="1"/>
        <pt x="455" y="-18" on="0"/>
        <pt x="434" y="-18" on="1"/>
        <pt x="427" y="-18" on="0"/>
        <pt x="420" y="-12" on="1"/>
        <pt x="387" y="-38" on="0"/>
        <pt x="387" y="-77" on="1"/>
        <pt x="387" y="-86" on="1"/>
        <pt x="392" y="-118" on="0"/>
        <pt x="419" y="-118" on="1"/>
        <pt x="428" y="-118" on="1"/>
        <pt x="498" y="-106" on="1"/>
        <pt x="548" y="-113" on="0"/>
        <pt x="479" y="-172" on="1"/>
        <pt x="475" y="-168" on="1"/>
        <pt x="449" y="-178" on="0"/>
        <pt x="419" y="-178" on="1"/>
        <pt x="346" y="-178" on="0"/>
        <pt x="328" y="-80" on="1"/>
        <pt x="359" y="6" on="0"/>
        <pt x="406" y="17" on="1"/>
        <pt x="395" y="55" on="0"/>
        <pt x="392" y="132" on="1"/>
        <pt x="381" y="211" on="1"/>
        <pt x="326" y="208" on="1"/>
        <pt x="274" y="208" on="0"/>
        <pt x="169" y="221" on="1"/>
        <pt x="95" y="-32" on="0"/>
        <pt x="68" y="-32" on="1"/>
        <pt x="66" y="-32" on="1"/>
        <pt x="34" y="-23" on="0"/>
        <pt x="34" y="0" on="1"/>
        <pt x="115" y="198" on="0"/>
        <pt x="210" y="678" on="1"/>
        <pt x="251" y="826" on="0"/>
        <pt x="285" y="917" on="1"/>
        <pt x="299" y="930" on="0"/>
      </contour>
      <contour>
        <pt x="185" y="281" on="1"/>
        <pt x="240" y="268" on="0"/>
        <pt x="301" y="268" on="1"/>
        <pt x="355" y="268" on="1"/>
        <pt x="366" y="268" on="0"/>
        <pt x="374" y="277" on="1"/>
        <pt x="301" y="763" on="1"/>
        <pt x="299" y="763" on="1"/>
        <pt x="279" y="732" on="0"/>
        <pt x="241" y="545" on="1"/>
      </contour>
    </TTGlyph>
    <TTGlyph name="Aring" xMin="34" yMin="-32" xMax="465" yMax="1127">
      <contour>
        <pt x="317" y="930" on="1"/>
        <pt x="332" y="930" on="0"/>
        <pt x="346" y="901" on="1"/>
        <pt x="343" y="886" on="1"/>
        <pt x="430" y="311" on="0"/>
        <pt x="465" y="10" on="1"/>
        <pt x="455" y="-18" on="0"/>
        <pt x="434" y="-18" on="1"/>
        <pt x="399" y="-18" on="0"/>
        <pt x="392" y="132" on="1"/>
        <pt x="381" y="211" on="1"/>
        <pt x="326" y="208" on="1"/>
        <pt x="274" y="208" on="0"/>
        <pt x="169" y="221" on="1"/>
        <pt x="95" y="-32" on="0"/>
        <pt x="68" y="-32" on="1"/>
        <pt x="66" y="-32" on="1"/>
        <pt x="34" y="-23" on="0"/>
        <pt x="34" y="0" on="1"/>
        <pt x="115" y="198" on="0"/>
        <pt x="210" y="678" on="1"/>
        <pt x="251" y="826" on="0"/>
        <pt x="285" y="917" on="1"/>
        <pt x="299" y="930" on="0"/>
      </contour>
      <contour>
        <pt x="185" y="281" on="1"/>
        <pt x="240" y="268" on="0"/>
        <pt x="301" y="268" on="1"/>
        <pt x="355" y="268" on="1"/>
        <pt x="366" y="268" on="0"/>
        <pt x="374" y="277" on="1"/>
        <pt x="301" y="763" on="1"/>
        <pt x="299" y="763" on="1"/>
        <pt x="279" y="732" on="0"/>
        <pt x="241" y="545" on="1"/>
      </contour>
      <contour>
        <pt x="436" y="1036" on="1"/>
        <pt x="441" y="1011" on="0"/>
        <pt x="384" y="962" on="1"/>
        <pt x="370" y="958" on="1"/>
        <pt x="296" y="941" on="0"/>
        <pt x="226" y="1005" on="1"/>
        <pt x="214" y="1029" on="1"/>
        <pt x="201" y="1084" on="0"/>
        <pt x="275" y="1111" on="1"/>
        <pt x="343" y="1127" on="0"/>
        <pt x="427" y="1057" on="1"/>
      </contour>
      <contour>
        <pt x="289" y="1053" on="1"/>
        <pt x="276" y="1049" on="1"/>
        <pt x="272" y="1042" on="1"/>
        <pt x="273" y="1039" on="1"/>
        <pt x="315" y="1007" on="0"/>
        <pt x="353" y="1016" on="1"/>
        <pt x="365" y="1019" on="1"/>
        <pt x="366" y="1029" on="1"/>
        <pt x="361" y="1049" on="0"/>
      </contour>
    </TTGlyph>
    <TTGlyph name="Atilde" xMin="34" yMin="-17" xMax="479" yMax="1075">
      <contour>
        <pt x="317" y="944" on="1"/>
        <pt x="332" y="944" on="0"/>
        <pt x="346" y="915" on="1"/>
        <pt x="343" y="899" on="1"/>
        <pt x="430" y="325" on="0"/>
        <pt x="465" y="24" on="1"/>
        <pt x="455" y="-5" on="0"/>
        <pt x="434" y="-5" on="1"/>
        <pt x="399" y="-5" on="0"/>
        <pt x="392" y="147" on="1"/>
        <pt x="381" y="226" on="1"/>
        <pt x="326" y="222" on="1"/>
        <pt x="274" y="222" on="0"/>
        <pt x="169" y="235" on="1"/>
        <pt x="95" y="-17" on="0"/>
        <pt x="68" y="-17" on="1"/>
        <pt x="66" y="-17" on="1"/>
        <pt x="34" y="-9" on="0"/>
        <pt x="34" y="14" on="1"/>
        <pt x="115" y="212" on="0"/>
        <pt x="210" y="691" on="1"/>
        <pt x="251" y="840" on="0"/>
        <pt x="285" y="931" on="1"/>
        <pt x="299" y="944" on="0"/>
      </contour>
      <contour>
        <pt x="185" y="295" on="1"/>
        <pt x="240" y="282" on="0"/>
        <pt x="301" y="282" on="1"/>
        <pt x="355" y="282" on="1"/>
        <pt x="366" y="282" on="0"/>
        <pt x="374" y="292" on="1"/>
        <pt x="301" y="777" on="1"/>
        <pt x="299" y="777" on="1"/>
        <pt x="279" y="745" on="0"/>
        <pt x="241" y="560" on="1"/>
      </contour>
      <contour>
        <pt x="451" y="1075" on="1"/>
        <pt x="479" y="1068" on="0"/>
        <pt x="479" y="1025" on="1"/>
        <pt x="471" y="956" on="0"/>
        <pt x="417" y="956" on="1"/>
        <pt x="413" y="956" on="1"/>
        <pt x="376" y="962" on="0"/>
        <pt x="271" y="1003" on="1"/>
        <pt x="243" y="1006" on="1"/>
        <pt x="228" y="1000" on="0"/>
        <pt x="228" y="985" on="1"/>
        <pt x="228" y="981" on="1"/>
        <pt x="230" y="977" on="1"/>
        <pt x="220" y="943" on="0"/>
        <pt x="190" y="943" on="1"/>
        <pt x="186" y="943" on="1"/>
        <pt x="159" y="943" on="0"/>
        <pt x="152" y="981" on="1"/>
        <pt x="193" y="1066" on="0"/>
        <pt x="253" y="1066" on="1"/>
        <pt x="279" y="1066" on="0"/>
        <pt x="407" y="1015" on="1"/>
        <pt x="413" y="1015" on="1"/>
        <pt x="419" y="1015" on="0"/>
        <pt x="419" y="1025" on="1"/>
        <pt x="417" y="1047" on="1"/>
        <pt x="417" y="1069" on="0"/>
      </contour>
    </TTGlyph>
    <TTGlyph name="B" xMin="37" yMin="-37" xMax="355" yMax="886">
      <contour>
        <pt x="68" y="886" on="1"/>
        <pt x="81" y="884" on="0"/>
        <pt x="100" y="860" on="1"/>
        <pt x="130" y="863" on="1"/>
        <pt x="251" y="863" on="0"/>
        <pt x="304" y="723" on="1"/>
        <pt x="317" y="679" on="0"/>
        <pt x="317" y="643" on="1"/>
        <pt x="317" y="634" on="1"/>
        <pt x="319" y="631" on="1"/>
        <pt x="317" y="627" on="1"/>
        <pt x="317" y="615" on="1"/>
        <pt x="317" y="526" on="0"/>
        <pt x="257" y="438" on="1"/>
        <pt x="355" y="376" on="0"/>
        <pt x="355" y="259" on="1"/>
        <pt x="355" y="237" on="1"/>
        <pt x="355" y="112" on="0"/>
        <pt x="266" y="1" on="1"/>
        <pt x="227" y="-37" on="0"/>
        <pt x="184" y="-37" on="1"/>
        <pt x="138" y="-28" on="1"/>
        <pt x="135" y="-28" on="1"/>
        <pt x="124" y="-34" on="1"/>
        <pt x="112" y="-34" on="1"/>
        <pt x="85" y="-34" on="0"/>
        <pt x="77" y="30" on="1"/>
        <pt x="52" y="157" on="0"/>
        <pt x="52" y="316" on="1"/>
        <pt x="52" y="373" on="1"/>
        <pt x="37" y="408" on="1"/>
        <pt x="37" y="410" on="1"/>
        <pt x="52" y="438" on="1"/>
        <pt x="52" y="524" on="1"/>
        <pt x="52" y="732" on="0"/>
        <pt x="37" y="860" on="1"/>
        <pt x="44" y="886" on="0"/>
      </contour>
      <contour>
        <pt x="103" y="801" on="1"/>
        <pt x="112" y="662" on="0"/>
        <pt x="112" y="499" on="1"/>
        <pt x="112" y="432" on="1"/>
        <pt x="138" y="432" on="1"/>
        <pt x="216" y="432" on="0"/>
        <pt x="254" y="574" on="1"/>
        <pt x="257" y="612" on="1"/>
        <pt x="257" y="647" on="1"/>
        <pt x="257" y="760" on="0"/>
        <pt x="168" y="798" on="1"/>
        <pt x="130" y="805" on="1"/>
        <pt x="118" y="805" on="1"/>
      </contour>
      <contour>
        <pt x="121" y="373" on="1"/>
        <pt x="112" y="373" on="1"/>
        <pt x="112" y="319" on="1"/>
        <pt x="112" y="39" on="0"/>
        <pt x="150" y="39" on="1"/>
        <pt x="162" y="23" on="0"/>
        <pt x="178" y="23" on="1"/>
        <pt x="191" y="23" on="1"/>
        <pt x="251" y="23" on="0"/>
        <pt x="292" y="196" on="1"/>
        <pt x="295" y="253" on="1"/>
        <pt x="295" y="367" on="0"/>
        <pt x="220" y="385" on="1"/>
        <pt x="193" y="385" on="1"/>
      </contour>
    </TTGlyph>
    <TTGlyph name="C" xMin="37" yMin="-20" xMax="424" yMax="868">
      <contour>
        <pt x="260" y="868" on="1"/>
        <pt x="280" y="868" on="0"/>
        <pt x="289" y="834" on="1"/>
        <pt x="289" y="657" on="0"/>
        <pt x="260" y="657" on="1"/>
        <pt x="251" y="654" on="1"/>
        <pt x="220" y="654" on="0"/>
        <pt x="220" y="717" on="1"/>
        <pt x="207" y="790" on="0"/>
        <pt x="182" y="790" on="1"/>
        <pt x="95" y="719" on="0"/>
        <pt x="95" y="506" on="1"/>
        <pt x="116" y="174" on="0"/>
        <pt x="150" y="112" on="1"/>
        <pt x="191" y="40" on="0"/>
        <pt x="241" y="40" on="1"/>
        <pt x="254" y="40" on="1"/>
        <pt x="326" y="40" on="0"/>
        <pt x="371" y="182" on="1"/>
        <pt x="384" y="194" on="0"/>
        <pt x="395" y="194" on="1"/>
        <pt x="420" y="194" on="0"/>
        <pt x="424" y="163" on="1"/>
        <pt x="416" y="95" on="0"/>
        <pt x="346" y="18" on="1"/>
        <pt x="287" y="-20" on="0"/>
        <pt x="247" y="-20" on="1"/>
        <pt x="113" y="-20" on="0"/>
        <pt x="71" y="188" on="1"/>
        <pt x="37" y="393" on="0"/>
        <pt x="37" y="499" on="1"/>
        <pt x="37" y="512" on="1"/>
        <pt x="37" y="701" on="0"/>
        <pt x="124" y="821" on="1"/>
        <pt x="153" y="850" on="0"/>
        <pt x="191" y="850" on="1"/>
        <pt x="226" y="841" on="1"/>
        <pt x="226" y="862" on="0"/>
      </contour>
    </TTGlyph>
    <TTGlyph name="Cacute" xMin="37" yMin="-20" xMax="424" yMax="1040">
      <contour>
        <pt x="260" y="868" on="1"/>
        <pt x="280" y="868" on="0"/>
        <pt x="289" y="834" on="1"/>
        <pt x="289" y="657" on="0"/>
        <pt x="260" y="657" on="1"/>
        <pt x="251" y="654" on="1"/>
        <pt x="220" y="654" on="0"/>
        <pt x="220" y="717" on="1"/>
        <pt x="207" y="790" on="0"/>
        <pt x="182" y="790" on="1"/>
        <pt x="95" y="719" on="0"/>
        <pt x="95" y="506" on="1"/>
        <pt x="116" y="174" on="0"/>
        <pt x="150" y="112" on="1"/>
        <pt x="191" y="40" on="0"/>
        <pt x="241" y="40" on="1"/>
        <pt x="254" y="40" on="1"/>
        <pt x="326" y="40" on="0"/>
        <pt x="371" y="182" on="1"/>
        <pt x="384" y="194" on="0"/>
        <pt x="395" y="194" on="1"/>
        <pt x="420" y="194" on="0"/>
        <pt x="424" y="163" on="1"/>
        <pt x="416" y="95" on="0"/>
        <pt x="346" y="18" on="1"/>
        <pt x="287" y="-20" on="0"/>
        <pt x="247" y="-20" on="1"/>
        <pt x="113" y="-20" on="0"/>
        <pt x="71" y="188" on="1"/>
        <pt x="37" y="393" on="0"/>
        <pt x="37" y="499" on="1"/>
        <pt x="37" y="512" on="1"/>
        <pt x="37" y="701" on="0"/>
        <pt x="124" y="821" on="1"/>
        <pt x="153" y="850" on="0"/>
        <pt x="191" y="850" on="1"/>
        <pt x="226" y="841" on="1"/>
        <pt x="226" y="862" on="0"/>
      </contour>
      <contour>
        <pt x="231" y="1040" on="1"/>
        <pt x="264" y="1032" on="0"/>
        <pt x="264" y="1009" on="1"/>
        <pt x="264" y="998" on="0"/>
        <pt x="144" y="892" on="1"/>
        <pt x="92" y="842" on="0"/>
        <pt x="84" y="842" on="1"/>
        <pt x="52" y="850" on="0"/>
        <pt x="52" y="877" on="1"/>
        <pt x="203" y="1040" on="0"/>
      </contour>
    </TTGlyph>
    <TTGlyph name="Ccaron" xMin="37" yMin="-20" xMax="424" yMax="1120">
      <contour>
        <pt x="260" y="868" on="1"/>
        <pt x="280" y="868" on="0"/>
        <pt x="289" y="834" on="1"/>
        <pt x="289" y="657" on="0"/>
        <pt x="260" y="657" on="1"/>
        <pt x="251" y="654" on="1"/>
        <pt x="220" y="654" on="0"/>
        <pt x="220" y="717" on="1"/>
        <pt x="207" y="790" on="0"/>
        <pt x="182" y="790" on="1"/>
        <pt x="95" y="719" on="0"/>
        <pt x="95" y="506" on="1"/>
        <pt x="116" y="174" on="0"/>
        <pt x="150" y="112" on="1"/>
        <pt x="191" y="40" on="0"/>
        <pt x="241" y="40" on="1"/>
        <pt x="254" y="40" on="1"/>
        <pt x="326" y="40" on="0"/>
        <pt x="371" y="182" on="1"/>
        <pt x="384" y="194" on="0"/>
        <pt x="395" y="194" on="1"/>
        <pt x="420" y="194" on="0"/>
        <pt x="424" y="163" on="1"/>
        <pt x="416" y="95" on="0"/>
        <pt x="346" y="18" on="1"/>
        <pt x="287" y="-20" on="0"/>
        <pt x="247" y="-20" on="1"/>
        <pt x="113" y="-20" on="0"/>
        <pt x="71" y="188" on="1"/>
        <pt x="37" y="393" on="0"/>
        <pt x="37" y="499" on="1"/>
        <pt x="37" y="512" on="1"/>
        <pt x="37" y="701" on="0"/>
        <pt x="124" y="821" on="1"/>
        <pt x="153" y="850" on="0"/>
        <pt x="191" y="850" on="1"/>
        <pt x="226" y="841" on="1"/>
        <pt x="226" y="862" on="0"/>
      </contour>
      <contour>
        <pt x="330" y="1095" on="1"/>
        <pt x="330" y="1083" on="0"/>
        <pt x="232" y="934" on="1"/>
        <pt x="220" y="924" on="0"/>
        <pt x="203" y="924" on="1"/>
        <pt x="197" y="924" on="0"/>
        <pt x="148" y="994" on="1"/>
        <pt x="87" y="1041" on="0"/>
        <pt x="87" y="1064" on="1"/>
        <pt x="95" y="1088" on="0"/>
        <pt x="115" y="1088" on="1"/>
        <pt x="119" y="1088" on="1"/>
        <pt x="133" y="1088" on="0"/>
        <pt x="207" y="1012" on="1"/>
        <pt x="213" y="1012" on="1"/>
        <pt x="276" y="1120" on="0"/>
        <pt x="299" y="1120" on="1"/>
        <pt x="301" y="1120" on="1"/>
        <pt x="317" y="1120" on="0"/>
      </contour>
    </TTGlyph>
    <TTGlyph name="Ccedilla" xMin="37" yMin="-423" xMax="424" yMax="868">
      <contour>
        <pt x="215" y="46" on="1"/>
        <pt x="220" y="44" on="0"/>
        <pt x="225" y="41" on="1"/>
        <pt x="233" y="40" on="0"/>
        <pt x="241" y="40" on="1"/>
        <pt x="254" y="40" on="1"/>
        <pt x="326" y="40" on="0"/>
        <pt x="371" y="182" on="1"/>
        <pt x="384" y="194" on="0"/>
        <pt x="395" y="194" on="1"/>
        <pt x="420" y="194" on="0"/>
        <pt x="424" y="163" on="1"/>
        <pt x="416" y="95" on="0"/>
        <pt x="346" y="18" on="1"/>
        <pt x="287" y="-20" on="0"/>
        <pt x="247" y="-20" on="1"/>
        <pt x="240" y="-20" on="1"/>
        <pt x="239" y="-30" on="1"/>
        <pt x="239" y="-33" on="1"/>
        <pt x="243" y="-103" on="1"/>
        <pt x="285" y="-86" on="0"/>
        <pt x="303" y="-86" on="1"/>
        <pt x="369" y="-86" on="0"/>
        <pt x="379" y="-175" on="1"/>
        <pt x="379" y="-178" on="1"/>
        <pt x="379" y="-296" on="0"/>
        <pt x="283" y="-398" on="1"/>
        <pt x="252" y="-423" on="0"/>
        <pt x="215" y="-423" on="1"/>
        <pt x="126" y="-401" on="0"/>
        <pt x="126" y="-357" on="1"/>
        <pt x="126" y="-343" on="0"/>
        <pt x="155" y="-329" on="1"/>
        <pt x="161" y="-329" on="0"/>
        <pt x="202" y="-364" on="1"/>
        <pt x="224" y="-364" on="1"/>
        <pt x="270" y="-364" on="0"/>
        <pt x="312" y="-231" on="1"/>
        <pt x="319" y="-178" on="1"/>
        <pt x="314" y="-147" on="0"/>
        <pt x="306" y="-147" on="1"/>
        <pt x="303" y="-147" on="1"/>
        <pt x="279" y="-147" on="0"/>
        <pt x="228" y="-185" on="1"/>
        <pt x="180" y="-185" on="0"/>
        <pt x="180" y="-23" on="1"/>
        <pt x="180" y="-5" on="1"/>
        <pt x="180" y="-4" on="1"/>
        <pt x="102" y="38" on="0"/>
        <pt x="71" y="188" on="1"/>
        <pt x="37" y="393" on="0"/>
        <pt x="37" y="499" on="1"/>
        <pt x="37" y="512" on="1"/>
        <pt x="37" y="701" on="0"/>
        <pt x="124" y="821" on="1"/>
        <pt x="153" y="850" on="0"/>
        <pt x="191" y="850" on="1"/>
        <pt x="226" y="841" on="1"/>
        <pt x="226" y="862" on="0"/>
        <pt x="260" y="868" on="1"/>
        <pt x="280" y="868" on="0"/>
        <pt x="289" y="834" on="1"/>
        <pt x="289" y="657" on="0"/>
        <pt x="260" y="657" on="1"/>
        <pt x="251" y="654" on="1"/>
        <pt x="220" y="654" on="0"/>
        <pt x="220" y="717" on="1"/>
        <pt x="207" y="790" on="0"/>
        <pt x="182" y="790" on="1"/>
        <pt x="95" y="719" on="0"/>
        <pt x="95" y="506" on="1"/>
        <pt x="116" y="174" on="0"/>
        <pt x="150" y="112" on="1"/>
        <pt x="179" y="61" on="0"/>
        <pt x="212" y="46" on="1"/>
      </contour>
    </TTGlyph>
    <TTGlyph name="Ccircumflex" xMin="37" yMin="-20" xMax="424" yMax="1121">
      <contour>
        <pt x="260" y="868" on="1"/>
        <pt x="280" y="868" on="0"/>
        <pt x="289" y="834" on="1"/>
        <pt x="289" y="657" on="0"/>
        <pt x="260" y="657" on="1"/>
        <pt x="251" y="654" on="1"/>
        <pt x="220" y="654" on="0"/>
        <pt x="220" y="717" on="1"/>
        <pt x="207" y="790" on="0"/>
        <pt x="182" y="790" on="1"/>
        <pt x="95" y="719" on="0"/>
        <pt x="95" y="506" on="1"/>
        <pt x="116" y="174" on="0"/>
        <pt x="150" y="112" on="1"/>
        <pt x="191" y="40" on="0"/>
        <pt x="241" y="40" on="1"/>
        <pt x="254" y="40" on="1"/>
        <pt x="326" y="40" on="0"/>
        <pt x="371" y="182" on="1"/>
        <pt x="384" y="194" on="0"/>
        <pt x="395" y="194" on="1"/>
        <pt x="420" y="194" on="0"/>
        <pt x="424" y="163" on="1"/>
        <pt x="416" y="95" on="0"/>
        <pt x="346" y="18" on="1"/>
        <pt x="287" y="-20" on="0"/>
        <pt x="247" y="-20" on="1"/>
        <pt x="113" y="-20" on="0"/>
        <pt x="71" y="188" on="1"/>
        <pt x="37" y="393" on="0"/>
        <pt x="37" y="499" on="1"/>
        <pt x="37" y="512" on="1"/>
        <pt x="37" y="701" on="0"/>
        <pt x="124" y="821" on="1"/>
        <pt x="153" y="850" on="0"/>
        <pt x="191" y="850" on="1"/>
        <pt x="226" y="841" on="1"/>
        <pt x="226" y="862" on="0"/>
      </contour>
      <contour>
        <pt x="344" y="968" on="1"/>
        <pt x="345" y="942" on="0"/>
        <pt x="310" y="936" on="1"/>
        <pt x="299" y="936" on="0"/>
        <pt x="182" y="1039" on="1"/>
        <pt x="178" y="1039" on="1"/>
        <pt x="140" y="950" on="0"/>
        <pt x="121" y="950" on="1"/>
        <pt x="117" y="949" on="1"/>
        <pt x="89" y="953" on="0"/>
        <pt x="88" y="977" on="1"/>
        <pt x="135" y="1107" on="0"/>
        <pt x="176" y="1121" on="1"/>
        <pt x="192" y="1121" on="0"/>
        <pt x="269" y="1036" on="1"/>
        <pt x="328" y="994" on="0"/>
      </contour>
    </TTGlyph>
    <TTGlyph name="Cdotaccent" xMin="37" yMin="-20" xMax="424" yMax="1037">
      <contour>
        <pt x="260" y="868" on="1"/>
        <pt x="280" y="868" on="0"/>
        <pt x="289" y="834" on="1"/>
        <pt x="289" y="657" on="0"/>
        <pt x="260" y="657" on="1"/>
        <pt x="251" y="654" on="1"/>
        <pt x="220" y="654" on="0"/>
        <pt x="220" y="717" on="1"/>
        <pt x="207" y="790" on="0"/>
        <pt x="182" y="790" on="1"/>
        <pt x="95" y="719" on="0"/>
        <pt x="95" y="506" on="1"/>
        <pt x="116" y="174" on="0"/>
        <pt x="150" y="112" on="1"/>
        <pt x="191" y="40" on="0"/>
        <pt x="241" y="40" on="1"/>
        <pt x="254" y="40" on="1"/>
        <pt x="326" y="40" on="0"/>
        <pt x="371" y="182" on="1"/>
        <pt x="384" y="194" on="0"/>
        <pt x="395" y="194" on="1"/>
        <pt x="420" y="194" on="0"/>
        <pt x="424" y="163" on="1"/>
        <pt x="416" y="95" on="0"/>
        <pt x="346" y="18" on="1"/>
        <pt x="287" y="-20" on="0"/>
        <pt x="247" y="-20" on="1"/>
        <pt x="113" y="-20" on="0"/>
        <pt x="71" y="188" on="1"/>
        <pt x="37" y="393" on="0"/>
        <pt x="37" y="499" on="1"/>
        <pt x="37" y="512" on="1"/>
        <pt x="37" y="701" on="0"/>
        <pt x="124" y="821" on="1"/>
        <pt x="153" y="850" on="0"/>
        <pt x="191" y="850" on="1"/>
        <pt x="226" y="841" on="1"/>
        <pt x="226" y="862" on="0"/>
      </contour>
      <contour>
        <pt x="222" y="1037" on="1"/>
        <pt x="247" y="1037" on="0"/>
        <pt x="260" y="997" on="1"/>
        <pt x="260" y="969" on="0"/>
        <pt x="219" y="945" on="1"/>
        <pt x="187" y="945" on="0"/>
        <pt x="181" y="993" on="1"/>
        <pt x="198" y="1037" on="0"/>
      </contour>
    </TTGlyph>
    <TTGlyph name="D" xMin="34" yMin="-56" xMax="459" yMax="879">
      <contour>
        <pt x="68" y="879" on="1"/>
        <pt x="89" y="879" on="0"/>
        <pt x="106" y="819" on="1"/>
        <pt x="112" y="819" on="1"/>
        <pt x="146" y="845" on="0"/>
        <pt x="207" y="850" on="1"/>
        <pt x="384" y="850" on="0"/>
        <pt x="444" y="530" on="1"/>
        <pt x="459" y="363" on="1"/>
        <pt x="459" y="77" on="0"/>
        <pt x="255" y="-9" on="1"/>
        <pt x="203" y="-15" on="1"/>
        <pt x="201" y="-15" on="1"/>
        <pt x="179" y="-15" on="0"/>
        <pt x="135" y="0" on="1"/>
        <pt x="135" y="-9" on="1"/>
        <pt x="138" y="-28" on="1"/>
        <pt x="138" y="-42" on="0"/>
        <pt x="110" y="-56" on="1"/>
        <pt x="72" y="-56" on="0"/>
        <pt x="72" y="26" on="1"/>
        <pt x="46" y="377" on="0"/>
        <pt x="46" y="457" on="1"/>
        <pt x="56" y="751" on="1"/>
        <pt x="56" y="796" on="0"/>
        <pt x="34" y="850" on="1"/>
        <pt x="34" y="873" on="0"/>
      </contour>
      <contour>
        <pt x="106" y="461" on="1"/>
        <pt x="121" y="130" on="1"/>
        <pt x="146" y="44" on="0"/>
        <pt x="194" y="44" on="1"/>
        <pt x="220" y="44" on="1"/>
        <pt x="274" y="44" on="0"/>
        <pt x="339" y="126" on="1"/>
        <pt x="396" y="217" on="0"/>
        <pt x="396" y="341" on="1"/>
        <pt x="396" y="394" on="1"/>
        <pt x="396" y="594" on="0"/>
        <pt x="314" y="731" on="1"/>
        <pt x="266" y="788" on="0"/>
        <pt x="226" y="788" on="1"/>
        <pt x="188" y="788" on="1"/>
        <pt x="124" y="788" on="0"/>
        <pt x="115" y="709" on="1"/>
      </contour>
    </TTGlyph>
    <TTGlyph name="Dcaron" xMin="34" yMin="-56" xMax="459" yMax="1166">
      <contour>
        <pt x="68" y="879" on="1"/>
        <pt x="89" y="879" on="0"/>
        <pt x="106" y="819" on="1"/>
        <pt x="112" y="819" on="1"/>
        <pt x="146" y="845" on="0"/>
        <pt x="207" y="850" on="1"/>
        <pt x="384" y="850" on="0"/>
        <pt x="444" y="530" on="1"/>
        <pt x="459" y="363" on="1"/>
        <pt x="459" y="77" on="0"/>
        <pt x="255" y="-9" on="1"/>
        <pt x="203" y="-15" on="1"/>
        <pt x="201" y="-15" on="1"/>
        <pt x="179" y="-15" on="0"/>
        <pt x="135" y="0" on="1"/>
        <pt x="135" y="-9" on="1"/>
        <pt x="138" y="-28" on="1"/>
        <pt x="138" y="-42" on="0"/>
        <pt x="110" y="-56" on="1"/>
        <pt x="72" y="-56" on="0"/>
        <pt x="72" y="26" on="1"/>
        <pt x="46" y="377" on="0"/>
        <pt x="46" y="457" on="1"/>
        <pt x="56" y="751" on="1"/>
        <pt x="56" y="796" on="0"/>
        <pt x="34" y="850" on="1"/>
        <pt x="34" y="873" on="0"/>
      </contour>
      <contour>
        <pt x="106" y="461" on="1"/>
        <pt x="121" y="130" on="1"/>
        <pt x="146" y="44" on="0"/>
        <pt x="194" y="44" on="1"/>
        <pt x="220" y="44" on="1"/>
        <pt x="274" y="44" on="0"/>
        <pt x="339" y="126" on="1"/>
        <pt x="396" y="217" on="0"/>
        <pt x="396" y="341" on="1"/>
        <pt x="396" y="394" on="1"/>
        <pt x="396" y="594" on="0"/>
        <pt x="314" y="731" on="1"/>
        <pt x="266" y="788" on="0"/>
        <pt x="226" y="788" on="1"/>
        <pt x="188" y="788" on="1"/>
        <pt x="124" y="788" on="0"/>
        <pt x="115" y="709" on="1"/>
      </contour>
      <contour>
        <pt x="339" y="1141" on="1"/>
        <pt x="339" y="1129" on="0"/>
        <pt x="241" y="981" on="1"/>
        <pt x="229" y="971" on="0"/>
        <pt x="213" y="971" on="1"/>
        <pt x="206" y="971" on="0"/>
        <pt x="157" y="1040" on="1"/>
        <pt x="97" y="1087" on="0"/>
        <pt x="97" y="1110" on="1"/>
        <pt x="105" y="1135" on="0"/>
        <pt x="125" y="1135" on="1"/>
        <pt x="128" y="1135" on="1"/>
        <pt x="143" y="1135" on="0"/>
        <pt x="217" y="1059" on="1"/>
        <pt x="223" y="1059" on="1"/>
        <pt x="286" y="1166" on="0"/>
        <pt x="308" y="1166" on="1"/>
        <pt x="310" y="1166" on="1"/>
        <pt x="326" y="1166" on="0"/>
      </contour>
    </TTGlyph>
    <TTGlyph name="E" xMin="40" yMin="-23" xMax="380" yMax="958">
      <contour>
        <pt x="80" y="958" on="1"/>
        <pt x="105" y="958" on="0"/>
        <pt x="109" y="920" on="1"/>
        <pt x="106" y="920" on="1"/>
        <pt x="109" y="910" on="1"/>
        <pt x="143" y="910" on="0"/>
        <pt x="298" y="931" on="1"/>
        <pt x="323" y="922" on="0"/>
        <pt x="323" y="900" on="1"/>
        <pt x="323" y="868" on="0"/>
        <pt x="188" y="859" on="1"/>
        <pt x="100" y="847" on="1"/>
        <pt x="100" y="803" on="1"/>
        <pt x="100" y="756" on="0"/>
        <pt x="138" y="422" on="1"/>
        <pt x="266" y="422" on="1"/>
        <pt x="292" y="422" on="0"/>
        <pt x="298" y="393" on="1"/>
        <pt x="298" y="362" on="0"/>
        <pt x="251" y="362" on="1"/>
        <pt x="138" y="362" on="1"/>
        <pt x="138" y="358" on="1"/>
        <pt x="135" y="151" on="1"/>
        <pt x="135" y="77" on="0"/>
        <pt x="150" y="43" on="1"/>
        <pt x="348" y="56" on="1"/>
        <pt x="380" y="52" on="0"/>
        <pt x="380" y="28" on="1"/>
        <pt x="380" y="-4" on="0"/>
        <pt x="310" y="-4" on="1"/>
        <pt x="130" y="-14" on="0"/>
        <pt x="130" y="-23" on="1"/>
        <pt x="94" y="-23" on="0"/>
        <pt x="80" y="87" on="1"/>
        <pt x="75" y="163" on="1"/>
        <pt x="77" y="390" on="1"/>
        <pt x="40" y="803" on="1"/>
        <pt x="40" y="834" on="1"/>
        <pt x="40" y="958" on="0"/>
        <pt x="77" y="958" on="1"/>
      </contour>
    </TTGlyph>
    <TTGlyph name="Eacute" xMin="40" yMin="-23" xMax="380" yMax="1153">
      <contour>
        <pt x="80" y="958" on="1"/>
        <pt x="105" y="958" on="0"/>
        <pt x="109" y="920" on="1"/>
        <pt x="106" y="920" on="1"/>
        <pt x="109" y="910" on="1"/>
        <pt x="143" y="910" on="0"/>
        <pt x="298" y="931" on="1"/>
        <pt x="323" y="922" on="0"/>
        <pt x="323" y="900" on="1"/>
        <pt x="323" y="868" on="0"/>
        <pt x="188" y="859" on="1"/>
        <pt x="100" y="847" on="1"/>
        <pt x="100" y="803" on="1"/>
        <pt x="100" y="756" on="0"/>
        <pt x="138" y="422" on="1"/>
        <pt x="266" y="422" on="1"/>
        <pt x="292" y="422" on="0"/>
        <pt x="298" y="393" on="1"/>
        <pt x="298" y="362" on="0"/>
        <pt x="251" y="362" on="1"/>
        <pt x="138" y="362" on="1"/>
        <pt x="138" y="358" on="1"/>
        <pt x="135" y="151" on="1"/>
        <pt x="135" y="77" on="0"/>
        <pt x="150" y="43" on="1"/>
        <pt x="348" y="56" on="1"/>
        <pt x="380" y="52" on="0"/>
        <pt x="380" y="28" on="1"/>
        <pt x="380" y="-4" on="0"/>
        <pt x="310" y="-4" on="1"/>
        <pt x="130" y="-14" on="0"/>
        <pt x="130" y="-23" on="1"/>
        <pt x="94" y="-23" on="0"/>
        <pt x="80" y="87" on="1"/>
        <pt x="75" y="163" on="1"/>
        <pt x="77" y="390" on="1"/>
        <pt x="40" y="803" on="1"/>
        <pt x="40" y="834" on="1"/>
        <pt x="40" y="958" on="0"/>
        <pt x="77" y="958" on="1"/>
      </contour>
      <contour>
        <pt x="311" y="1153" on="1"/>
        <pt x="343" y="1145" on="0"/>
        <pt x="343" y="1121" on="1"/>
        <pt x="343" y="1111" on="0"/>
        <pt x="223" y="1004" on="1"/>
        <pt x="172" y="955" on="0"/>
        <pt x="163" y="955" on="1"/>
        <pt x="131" y="962" on="0"/>
        <pt x="131" y="989" on="1"/>
        <pt x="283" y="1153" on="0"/>
      </contour>
    </TTGlyph>
    <TTGlyph name="Ebreve" xMin="40" yMin="-23" xMax="380" yMax="1170">
      <contour>
        <pt x="80" y="958" on="1"/>
        <pt x="105" y="958" on="0"/>
        <pt x="109" y="920" on="1"/>
        <pt x="106" y="920" on="1"/>
        <pt x="109" y="910" on="1"/>
        <pt x="143" y="910" on="0"/>
        <pt x="298" y="931" on="1"/>
        <pt x="323" y="922" on="0"/>
        <pt x="323" y="900" on="1"/>
        <pt x="323" y="868" on="0"/>
        <pt x="188" y="859" on="1"/>
        <pt x="100" y="847" on="1"/>
        <pt x="100" y="803" on="1"/>
        <pt x="100" y="756" on="0"/>
        <pt x="138" y="422" on="1"/>
        <pt x="266" y="422" on="1"/>
        <pt x="292" y="422" on="0"/>
        <pt x="298" y="393" on="1"/>
        <pt x="298" y="362" on="0"/>
        <pt x="251" y="362" on="1"/>
        <pt x="138" y="362" on="1"/>
        <pt x="138" y="358" on="1"/>
        <pt x="135" y="151" on="1"/>
        <pt x="135" y="77" on="0"/>
        <pt x="150" y="43" on="1"/>
        <pt x="348" y="56" on="1"/>
        <pt x="380" y="52" on="0"/>
        <pt x="380" y="28" on="1"/>
        <pt x="380" y="-4" on="0"/>
        <pt x="310" y="-4" on="1"/>
        <pt x="130" y="-14" on="0"/>
        <pt x="130" y="-23" on="1"/>
        <pt x="94" y="-23" on="0"/>
        <pt x="80" y="87" on="1"/>
        <pt x="75" y="163" on="1"/>
        <pt x="77" y="390" on="1"/>
        <pt x="40" y="803" on="1"/>
        <pt x="40" y="834" on="1"/>
        <pt x="40" y="958" on="0"/>
        <pt x="77" y="958" on="1"/>
      </contour>
      <contour>
        <pt x="324" y="1146" on="1"/>
        <pt x="209" y="1003" on="0"/>
        <pt x="60" y="1113" on="0"/>
        <pt x="60" y="1136" on="1"/>
        <pt x="68" y="1160" on="0"/>
        <pt x="88" y="1160" on="1"/>
        <pt x="91" y="1160" on="1"/>
        <pt x="177" y="1058" on="0"/>
        <pt x="271" y="1170" on="0"/>
        <pt x="292" y="1170" on="1"/>
        <pt x="296" y="1170" on="1"/>
        <pt x="310" y="1170" on="0"/>
      </contour>
    </TTGlyph>
    <TTGlyph name="Ecaron" xMin="40" yMin="-23" xMax="380" yMax="1252">
      <contour>
        <pt x="80" y="958" on="1"/>
        <pt x="105" y="958" on="0"/>
        <pt x="109" y="920" on="1"/>
        <pt x="106" y="920" on="1"/>
        <pt x="109" y="910" on="1"/>
        <pt x="143" y="910" on="0"/>
        <pt x="298" y="931" on="1"/>
        <pt x="323" y="922" on="0"/>
        <pt x="323" y="900" on="1"/>
        <pt x="323" y="868" on="0"/>
        <pt x="188" y="859" on="1"/>
        <pt x="100" y="847" on="1"/>
        <pt x="100" y="803" on="1"/>
        <pt x="100" y="756" on="0"/>
        <pt x="138" y="422" on="1"/>
        <pt x="266" y="422" on="1"/>
        <pt x="292" y="422" on="0"/>
        <pt x="298" y="393" on="1"/>
        <pt x="298" y="362" on="0"/>
        <pt x="251" y="362" on="1"/>
        <pt x="138" y="362" on="1"/>
        <pt x="138" y="358" on="1"/>
        <pt x="135" y="151" on="1"/>
        <pt x="135" y="77" on="0"/>
        <pt x="150" y="43" on="1"/>
        <pt x="348" y="56" on="1"/>
        <pt x="380" y="52" on="0"/>
        <pt x="380" y="28" on="1"/>
        <pt x="380" y="-4" on="0"/>
        <pt x="310" y="-4" on="1"/>
        <pt x="130" y="-14" on="0"/>
        <pt x="130" y="-23" on="1"/>
        <pt x="94" y="-23" on="0"/>
        <pt x="80" y="87" on="1"/>
        <pt x="75" y="163" on="1"/>
        <pt x="77" y="390" on="1"/>
        <pt x="40" y="803" on="1"/>
        <pt x="40" y="834" on="1"/>
        <pt x="40" y="958" on="0"/>
        <pt x="77" y="958" on="1"/>
      </contour>
      <contour>
        <pt x="317" y="1227" on="1"/>
        <pt x="317" y="1215" on="0"/>
        <pt x="220" y="1066" on="1"/>
        <pt x="207" y="1057" on="0"/>
        <pt x="192" y="1057" on="1"/>
        <pt x="184" y="1057" on="0"/>
        <pt x="135" y="1126" on="1"/>
        <pt x="75" y="1174" on="0"/>
        <pt x="75" y="1195" on="1"/>
        <pt x="83" y="1220" on="0"/>
        <pt x="103" y="1220" on="1"/>
        <pt x="106" y="1220" on="1"/>
        <pt x="121" y="1220" on="0"/>
        <pt x="194" y="1145" on="1"/>
        <pt x="201" y="1145" on="1"/>
        <pt x="265" y="1252" on="0"/>
        <pt x="285" y="1252" on="1"/>
        <pt x="289" y="1252" on="1"/>
        <pt x="304" y="1252" on="0"/>
      </contour>
    </TTGlyph>
    <TTGlyph name="Ecircumflex" xMin="40" yMin="-23" xMax="380" yMax="1126">
      <contour>
        <pt x="80" y="958" on="1"/>
        <pt x="105" y="958" on="0"/>
        <pt x="109" y="920" on="1"/>
        <pt x="106" y="920" on="1"/>
        <pt x="109" y="910" on="1"/>
        <pt x="143" y="910" on="0"/>
        <pt x="298" y="931" on="1"/>
        <pt x="323" y="922" on="0"/>
        <pt x="323" y="900" on="1"/>
        <pt x="323" y="868" on="0"/>
        <pt x="188" y="859" on="1"/>
        <pt x="100" y="847" on="1"/>
        <pt x="100" y="803" on="1"/>
        <pt x="100" y="756" on="0"/>
        <pt x="138" y="422" on="1"/>
        <pt x="266" y="422" on="1"/>
        <pt x="292" y="422" on="0"/>
        <pt x="298" y="393" on="1"/>
        <pt x="298" y="362" on="0"/>
        <pt x="251" y="362" on="1"/>
        <pt x="138" y="362" on="1"/>
        <pt x="138" y="358" on="1"/>
        <pt x="135" y="151" on="1"/>
        <pt x="135" y="77" on="0"/>
        <pt x="150" y="43" on="1"/>
        <pt x="348" y="56" on="1"/>
        <pt x="380" y="52" on="0"/>
        <pt x="380" y="28" on="1"/>
        <pt x="380" y="-4" on="0"/>
        <pt x="310" y="-4" on="1"/>
        <pt x="130" y="-14" on="0"/>
        <pt x="130" y="-23" on="1"/>
        <pt x="94" y="-23" on="0"/>
        <pt x="80" y="87" on="1"/>
        <pt x="75" y="163" on="1"/>
        <pt x="77" y="390" on="1"/>
        <pt x="40" y="803" on="1"/>
        <pt x="40" y="834" on="1"/>
        <pt x="40" y="958" on="0"/>
        <pt x="77" y="958" on="1"/>
      </contour>
      <contour>
        <pt x="379" y="973" on="1"/>
        <pt x="380" y="947" on="0"/>
        <pt x="346" y="941" on="1"/>
        <pt x="334" y="941" on="0"/>
        <pt x="217" y="1044" on="1"/>
        <pt x="213" y="1044" on="1"/>
        <pt x="175" y="955" on="0"/>
        <pt x="156" y="955" on="1"/>
        <pt x="153" y="954" on="1"/>
        <pt x="124" y="958" on="0"/>
        <pt x="123" y="982" on="1"/>
        <pt x="169" y="1111" on="0"/>
        <pt x="211" y="1126" on="1"/>
        <pt x="228" y="1126" on="0"/>
        <pt x="305" y="1040" on="1"/>
        <pt x="364" y="998" on="0"/>
      </contour>
    </TTGlyph>
    <TTGlyph name="Edieresis" xMin="40" yMin="-23" xMax="380" yMax="1030">
      <contour>
        <pt x="80" y="958" on="1"/>
        <pt x="105" y="958" on="0"/>
        <pt x="109" y="920" on="1"/>
        <pt x="106" y="920" on="1"/>
        <pt x="109" y="910" on="1"/>
        <pt x="143" y="910" on="0"/>
        <pt x="298" y="931" on="1"/>
        <pt x="323" y="922" on="0"/>
        <pt x="323" y="900" on="1"/>
        <pt x="323" y="868" on="0"/>
        <pt x="188" y="859" on="1"/>
        <pt x="100" y="847" on="1"/>
        <pt x="100" y="803" on="1"/>
        <pt x="100" y="756" on="0"/>
        <pt x="138" y="422" on="1"/>
        <pt x="266" y="422" on="1"/>
        <pt x="292" y="422" on="0"/>
        <pt x="298" y="393" on="1"/>
        <pt x="298" y="362" on="0"/>
        <pt x="251" y="362" on="1"/>
        <pt x="138" y="362" on="1"/>
        <pt x="138" y="358" on="1"/>
        <pt x="135" y="151" on="1"/>
        <pt x="135" y="77" on="0"/>
        <pt x="150" y="43" on="1"/>
        <pt x="348" y="56" on="1"/>
        <pt x="380" y="52" on="0"/>
        <pt x="380" y="28" on="1"/>
        <pt x="380" y="-4" on="0"/>
        <pt x="310" y="-4" on="1"/>
        <pt x="130" y="-14" on="0"/>
        <pt x="130" y="-23" on="1"/>
        <pt x="94" y="-23" on="0"/>
        <pt x="80" y="87" on="1"/>
        <pt x="75" y="163" on="1"/>
        <pt x="77" y="390" on="1"/>
        <pt x="40" y="803" on="1"/>
        <pt x="40" y="834" on="1"/>
        <pt x="40" y="958" on="0"/>
        <pt x="77" y="958" on="1"/>
      </contour>
      <contour>
        <pt x="148" y="1030" on="1"/>
        <pt x="169" y="1030" on="0"/>
        <pt x="172" y="995" on="1"/>
        <pt x="166" y="964" on="0"/>
        <pt x="141" y="964" on="1"/>
        <pt x="115" y="964" on="0"/>
        <pt x="110" y="998" on="1"/>
        <pt x="121" y="1030" on="0"/>
      </contour>
      <contour>
        <pt x="235" y="1030" on="1"/>
        <pt x="261" y="1021" on="0"/>
        <pt x="261" y="998" on="1"/>
        <pt x="261" y="976" on="0"/>
        <pt x="226" y="970" on="1"/>
        <pt x="207" y="970" on="0"/>
        <pt x="194" y="998" on="1"/>
        <pt x="194" y="1029" on="0"/>
      </contour>
    </TTGlyph>
    <TTGlyph name="Edotaccent" xMin="40" yMin="-23" xMax="380" yMax="1211">
      <contour>
        <pt x="80" y="958" on="1"/>
        <pt x="105" y="958" on="0"/>
        <pt x="109" y="920" on="1"/>
        <pt x="106" y="920" on="1"/>
        <pt x="109" y="910" on="1"/>
        <pt x="143" y="910" on="0"/>
        <pt x="298" y="931" on="1"/>
        <pt x="323" y="922" on="0"/>
        <pt x="323" y="900" on="1"/>
        <pt x="323" y="868" on="0"/>
        <pt x="188" y="859" on="1"/>
        <pt x="100" y="847" on="1"/>
        <pt x="100" y="803" on="1"/>
        <pt x="100" y="756" on="0"/>
        <pt x="138" y="422" on="1"/>
        <pt x="266" y="422" on="1"/>
        <pt x="292" y="422" on="0"/>
        <pt x="298" y="393" on="1"/>
        <pt x="298" y="362" on="0"/>
        <pt x="251" y="362" on="1"/>
        <pt x="138" y="362" on="1"/>
        <pt x="138" y="358" on="1"/>
        <pt x="135" y="151" on="1"/>
        <pt x="135" y="77" on="0"/>
        <pt x="150" y="43" on="1"/>
        <pt x="348" y="56" on="1"/>
        <pt x="380" y="52" on="0"/>
        <pt x="380" y="28" on="1"/>
        <pt x="380" y="-4" on="0"/>
        <pt x="310" y="-4" on="1"/>
        <pt x="130" y="-14" on="0"/>
        <pt x="130" y="-23" on="1"/>
        <pt x="94" y="-23" on="0"/>
        <pt x="80" y="87" on="1"/>
        <pt x="75" y="163" on="1"/>
        <pt x="77" y="390" on="1"/>
        <pt x="40" y="803" on="1"/>
        <pt x="40" y="834" on="1"/>
        <pt x="40" y="958" on="0"/>
        <pt x="77" y="958" on="1"/>
      </contour>
      <contour>
        <pt x="205" y="1211" on="1"/>
        <pt x="231" y="1211" on="0"/>
        <pt x="243" y="1172" on="1"/>
        <pt x="243" y="1144" on="0"/>
        <pt x="202" y="1120" on="1"/>
        <pt x="170" y="1120" on="0"/>
        <pt x="164" y="1167" on="1"/>
        <pt x="182" y="1211" on="0"/>
      </contour>
    </TTGlyph>
    <TTGlyph name="Egrave" xMin="40" yMin="-23" xMax="380" yMax="1147">
      <contour>
        <pt x="80" y="958" on="1"/>
        <pt x="105" y="958" on="0"/>
        <pt x="109" y="920" on="1"/>
        <pt x="106" y="920" on="1"/>
        <pt x="109" y="910" on="1"/>
        <pt x="143" y="910" on="0"/>
        <pt x="298" y="931" on="1"/>
        <pt x="323" y="922" on="0"/>
        <pt x="323" y="900" on="1"/>
        <pt x="323" y="868" on="0"/>
        <pt x="188" y="859" on="1"/>
        <pt x="100" y="847" on="1"/>
        <pt x="100" y="803" on="1"/>
        <pt x="100" y="756" on="0"/>
        <pt x="138" y="422" on="1"/>
        <pt x="266" y="422" on="1"/>
        <pt x="292" y="422" on="0"/>
        <pt x="298" y="393" on="1"/>
        <pt x="298" y="362" on="0"/>
        <pt x="251" y="362" on="1"/>
        <pt x="138" y="362" on="1"/>
        <pt x="138" y="358" on="1"/>
        <pt x="135" y="151" on="1"/>
        <pt x="135" y="77" on="0"/>
        <pt x="150" y="43" on="1"/>
        <pt x="348" y="56" on="1"/>
        <pt x="380" y="52" on="0"/>
        <pt x="380" y="28" on="1"/>
        <pt x="380" y="-4" on="0"/>
        <pt x="310" y="-4" on="1"/>
        <pt x="130" y="-14" on="0"/>
        <pt x="130" y="-23" on="1"/>
        <pt x="94" y="-23" on="0"/>
        <pt x="80" y="87" on="1"/>
        <pt x="75" y="163" on="1"/>
        <pt x="77" y="390" on="1"/>
        <pt x="40" y="803" on="1"/>
        <pt x="40" y="834" on="1"/>
        <pt x="40" y="958" on="0"/>
        <pt x="77" y="958" on="1"/>
      </contour>
      <contour>
        <pt x="347" y="998" on="1"/>
        <pt x="345" y="965" on="0"/>
        <pt x="322" y="961" on="1"/>
        <pt x="311" y="959" on="0"/>
        <pt x="187" y="1059" on="1"/>
        <pt x="129" y="1102" on="0"/>
        <pt x="127" y="1110" on="1"/>
        <pt x="130" y="1142" on="0"/>
        <pt x="156" y="1147" on="1"/>
        <pt x="343" y="1026" on="0"/>
      </contour>
    </TTGlyph>
    <TTGlyph name="Emacron" xMin="40" yMin="-23" xMax="380" yMax="1120">
      <contour>
        <pt x="80" y="958" on="1"/>
        <pt x="105" y="958" on="0"/>
        <pt x="109" y="920" on="1"/>
        <pt x="106" y="920" on="1"/>
        <pt x="109" y="910" on="1"/>
        <pt x="143" y="910" on="0"/>
        <pt x="298" y="931" on="1"/>
        <pt x="323" y="922" on="0"/>
        <pt x="323" y="900" on="1"/>
        <pt x="323" y="868" on="0"/>
        <pt x="188" y="859" on="1"/>
        <pt x="100" y="847" on="1"/>
        <pt x="100" y="803" on="1"/>
        <pt x="100" y="756" on="0"/>
        <pt x="138" y="422" on="1"/>
        <pt x="266" y="422" on="1"/>
        <pt x="292" y="422" on="0"/>
        <pt x="298" y="393" on="1"/>
        <pt x="298" y="362" on="0"/>
        <pt x="251" y="362" on="1"/>
        <pt x="138" y="362" on="1"/>
        <pt x="138" y="358" on="1"/>
        <pt x="135" y="151" on="1"/>
        <pt x="135" y="77" on="0"/>
        <pt x="150" y="43" on="1"/>
        <pt x="348" y="56" on="1"/>
        <pt x="380" y="52" on="0"/>
        <pt x="380" y="28" on="1"/>
        <pt x="380" y="-4" on="0"/>
        <pt x="310" y="-4" on="1"/>
        <pt x="130" y="-14" on="0"/>
        <pt x="130" y="-23" on="1"/>
        <pt x="94" y="-23" on="0"/>
        <pt x="80" y="87" on="1"/>
        <pt x="75" y="163" on="1"/>
        <pt x="77" y="390" on="1"/>
        <pt x="40" y="803" on="1"/>
        <pt x="40" y="834" on="1"/>
        <pt x="40" y="958" on="0"/>
        <pt x="77" y="958" on="1"/>
      </contour>
      <contour>
        <pt x="95" y="1113" on="1"/>
        <pt x="337" y="1120" on="0"/>
        <pt x="337" y="1089" on="1"/>
        <pt x="340" y="1079" on="1"/>
        <pt x="332" y="1051" on="0"/>
        <pt x="315" y="1051" on="1"/>
        <pt x="250" y="1061" on="0"/>
        <pt x="99" y="1053" on="1"/>
        <pt x="80" y="1049" on="1"/>
        <pt x="58" y="1049" on="0"/>
        <pt x="51" y="1084" on="1"/>
        <pt x="51" y="1109" on="0"/>
      </contour>
    </TTGlyph>
    <TTGlyph name="Eogonek" xMin="40" yMin="-188" xMax="441" yMax="958">
      <contour>
        <pt x="356" y="-2" on="1"/>
        <pt x="347" y="-2" on="1"/>
        <pt x="281" y="-32" on="0"/>
        <pt x="281" y="-86" on="1"/>
        <pt x="281" y="-95" on="1"/>
        <pt x="286" y="-128" on="0"/>
        <pt x="312" y="-128" on="1"/>
        <pt x="322" y="-128" on="1"/>
        <pt x="391" y="-115" on="1"/>
        <pt x="441" y="-122" on="0"/>
        <pt x="373" y="-182" on="1"/>
        <pt x="370" y="-178" on="1"/>
        <pt x="343" y="-188" on="0"/>
        <pt x="312" y="-188" on="1"/>
        <pt x="239" y="-188" on="0"/>
        <pt x="221" y="-90" on="1"/>
        <pt x="243" y="-30" on="0"/>
        <pt x="272" y="-5" on="1"/>
        <pt x="130" y="-15" on="0"/>
        <pt x="130" y="-23" on="1"/>
        <pt x="94" y="-23" on="0"/>
        <pt x="80" y="87" on="1"/>
        <pt x="75" y="163" on="1"/>
        <pt x="77" y="390" on="1"/>
        <pt x="40" y="803" on="1"/>
        <pt x="40" y="834" on="1"/>
        <pt x="40" y="958" on="0"/>
        <pt x="77" y="958" on="1"/>
        <pt x="80" y="958" on="1"/>
        <pt x="105" y="958" on="0"/>
        <pt x="109" y="920" on="1"/>
        <pt x="106" y="920" on="1"/>
        <pt x="109" y="910" on="1"/>
        <pt x="143" y="910" on="0"/>
        <pt x="298" y="931" on="1"/>
        <pt x="323" y="922" on="0"/>
        <pt x="323" y="900" on="1"/>
        <pt x="323" y="868" on="0"/>
        <pt x="188" y="859" on="1"/>
        <pt x="100" y="847" on="1"/>
        <pt x="100" y="803" on="1"/>
        <pt x="100" y="756" on="0"/>
        <pt x="138" y="422" on="1"/>
        <pt x="266" y="422" on="1"/>
        <pt x="292" y="422" on="0"/>
        <pt x="298" y="393" on="1"/>
        <pt x="298" y="362" on="0"/>
        <pt x="251" y="362" on="1"/>
        <pt x="138" y="362" on="1"/>
        <pt x="138" y="358" on="1"/>
        <pt x="135" y="151" on="1"/>
        <pt x="135" y="77" on="0"/>
        <pt x="150" y="43" on="1"/>
        <pt x="348" y="56" on="1"/>
        <pt x="380" y="52" on="0"/>
        <pt x="380" y="28" on="1"/>
        <pt x="380" y="8" on="0"/>
        <pt x="352" y="0" on="1"/>
        <pt x="354" y="0" on="0"/>
      </contour>
    </TTGlyph>
    <TTGlyph name="Eth" xMin="2" yMin="-56" xMax="477" yMax="895">
      <contour>
        <pt x="46" y="443" on="1"/>
        <pt x="65" y="443" on="1"/>
        <pt x="65" y="451" on="0"/>
        <pt x="65" y="457" on="1"/>
        <pt x="74" y="751" on="1"/>
        <pt x="74" y="796" on="0"/>
        <pt x="51" y="850" on="1"/>
        <pt x="51" y="873" on="0"/>
        <pt x="86" y="879" on="1"/>
        <pt x="107" y="879" on="0"/>
        <pt x="124" y="819" on="1"/>
        <pt x="287" y="895" on="0"/>
        <pt x="349" y="797" on="1"/>
        <pt x="407" y="764" on="0"/>
        <pt x="461" y="530" on="1"/>
        <pt x="477" y="363" on="1"/>
        <pt x="477" y="77" on="0"/>
        <pt x="272" y="-9" on="1"/>
        <pt x="222" y="-15" on="1"/>
        <pt x="219" y="-15" on="1"/>
        <pt x="196" y="-15" on="0"/>
        <pt x="153" y="0" on="1"/>
        <pt x="153" y="-9" on="1"/>
        <pt x="156" y="-28" on="1"/>
        <pt x="156" y="-42" on="0"/>
        <pt x="127" y="-56" on="1"/>
        <pt x="89" y="-56" on="0"/>
        <pt x="89" y="26" on="1"/>
        <pt x="72" y="270" on="0"/>
        <pt x="67" y="382" on="1"/>
        <pt x="58" y="383" on="0"/>
        <pt x="49" y="383" on="1"/>
        <pt x="31" y="380" on="1"/>
        <pt x="8" y="380" on="0"/>
        <pt x="2" y="415" on="1"/>
        <pt x="2" y="438" on="0"/>
      </contour>
      <contour>
        <pt x="124" y="461" on="1"/>
        <pt x="125" y="439" on="1"/>
        <pt x="194" y="433" on="0"/>
        <pt x="194" y="411" on="1"/>
        <pt x="197" y="401" on="1"/>
        <pt x="190" y="373" on="0"/>
        <pt x="172" y="373" on="1"/>
        <pt x="150" y="377" on="0"/>
        <pt x="128" y="379" on="1"/>
        <pt x="140" y="130" on="1"/>
        <pt x="163" y="44" on="0"/>
        <pt x="212" y="44" on="1"/>
        <pt x="238" y="44" on="1"/>
        <pt x="292" y="44" on="0"/>
        <pt x="357" y="126" on="1"/>
        <pt x="414" y="217" on="0"/>
        <pt x="414" y="341" on="1"/>
        <pt x="414" y="394" on="1"/>
        <pt x="414" y="594" on="0"/>
        <pt x="332" y="731" on="1"/>
        <pt x="283" y="788" on="0"/>
        <pt x="244" y="788" on="1"/>
        <pt x="206" y="788" on="1"/>
        <pt x="142" y="788" on="0"/>
        <pt x="133" y="709" on="1"/>
      </contour>
    </TTGlyph>
    <TTGlyph name="Euro" xMin="13" yMin="-20" xMax="592" yMax="920">
      <contour>
        <pt x="61" y="452" on="1"/>
        <pt x="84" y="452" on="1"/>
        <pt x="83" y="478" on="0"/>
        <pt x="83" y="499" on="1"/>
        <pt x="83" y="512" on="1"/>
        <pt x="83" y="701" on="0"/>
        <pt x="192" y="804" on="1"/>
        <pt x="414" y="920" on="0"/>
        <pt x="533" y="736" on="1"/>
        <pt x="511" y="707" on="1"/>
        <pt x="501" y="705" on="1"/>
        <pt x="470" y="705" on="0"/>
        <pt x="405" y="768" on="0"/>
        <pt x="282" y="774" on="1"/>
        <pt x="143" y="719" on="0"/>
        <pt x="143" y="506" on="1"/>
        <pt x="145" y="477" on="0"/>
        <pt x="146" y="451" on="1"/>
        <pt x="313" y="448" on="0"/>
        <pt x="313" y="432" on="1"/>
        <pt x="316" y="410" on="1"/>
        <pt x="307" y="385" on="0"/>
        <pt x="284" y="385" on="1"/>
        <pt x="151" y="389" on="1"/>
        <pt x="153" y="360" on="0"/>
        <pt x="156" y="335" on="1"/>
        <pt x="316" y="333" on="0"/>
        <pt x="316" y="291" on="1"/>
        <pt x="316" y="269" on="0"/>
        <pt x="287" y="259" on="1"/>
        <pt x="272" y="268" on="0"/>
        <pt x="162" y="274" on="1"/>
        <pt x="176" y="148" on="0"/>
        <pt x="196" y="112" on="1"/>
        <pt x="237" y="40" on="0"/>
        <pt x="287" y="40" on="1"/>
        <pt x="482" y="26" on="0"/>
        <pt x="538" y="119" on="1"/>
        <pt x="552" y="131" on="0"/>
        <pt x="564" y="131" on="1"/>
        <pt x="588" y="131" on="0"/>
        <pt x="592" y="101" on="1"/>
        <pt x="565" y="3" on="0"/>
        <pt x="335" y="-20" on="0"/>
        <pt x="294" y="-20" on="1"/>
        <pt x="160" y="-20" on="0"/>
        <pt x="118" y="188" on="1"/>
        <pt x="110" y="233" on="0"/>
        <pt x="104" y="273" on="1"/>
        <pt x="67" y="272" on="1"/>
        <pt x="51" y="272" on="1"/>
        <pt x="13" y="272" on="0"/>
        <pt x="13" y="303" on="1"/>
        <pt x="13" y="332" on="0"/>
        <pt x="49" y="332" on="1"/>
        <pt x="95" y="333" on="1"/>
        <pt x="92" y="364" on="0"/>
        <pt x="89" y="391" on="1"/>
        <pt x="58" y="391" on="1"/>
        <pt x="32" y="391" on="0"/>
        <pt x="27" y="426" on="1"/>
        <pt x="27" y="448" on="0"/>
      </contour>
    </TTGlyph>
    <TTGlyph name="F" xMin="34" yMin="-23" xMax="305" yMax="916">
      <contour>
        <pt x="66" y="916" on="1"/>
        <pt x="88" y="916" on="0"/>
        <pt x="94" y="878" on="1"/>
        <pt x="270" y="878" on="1"/>
        <pt x="305" y="878" on="0"/>
        <pt x="305" y="844" on="1"/>
        <pt x="299" y="818" on="0"/>
        <pt x="267" y="818" on="1"/>
        <pt x="103" y="818" on="1"/>
        <pt x="135" y="507" on="1"/>
        <pt x="226" y="507" on="1"/>
        <pt x="261" y="507" on="0"/>
        <pt x="261" y="472" on="1"/>
        <pt x="255" y="447" on="0"/>
        <pt x="223" y="447" on="1"/>
        <pt x="141" y="447" on="1"/>
        <pt x="141" y="444" on="1"/>
        <pt x="169" y="144" on="0"/>
        <pt x="169" y="76" on="1"/>
        <pt x="169" y="15" on="1"/>
        <pt x="169" y="-23" on="0"/>
        <pt x="141" y="-23" on="1"/>
        <pt x="128" y="-23" on="1"/>
        <pt x="110" y="-11" on="0"/>
        <pt x="110" y="5" on="1"/>
        <pt x="110" y="53" on="1"/>
        <pt x="110" y="226" on="0"/>
        <pt x="34" y="891" on="1"/>
        <pt x="41" y="916" on="0"/>
      </contour>
    </TTGlyph>
    <TTGlyph name="G" xMin="31" yMin="-14" xMax="396" yMax="956">
      <contour>
        <pt x="217" y="956" on="1"/>
        <pt x="245" y="945" on="0"/>
        <pt x="245" y="924" on="1"/>
        <pt x="245" y="901" on="0"/>
        <pt x="188" y="886" on="1"/>
        <pt x="90" y="815" on="0"/>
        <pt x="90" y="540" on="1"/>
        <pt x="90" y="209" on="0"/>
        <pt x="207" y="67" on="1"/>
        <pt x="234" y="45" on="0"/>
        <pt x="247" y="45" on="1"/>
        <pt x="317" y="45" on="0"/>
        <pt x="333" y="254" on="1"/>
        <pt x="337" y="298" on="1"/>
        <pt x="334" y="345" on="0"/>
        <pt x="326" y="345" on="1"/>
        <pt x="291" y="331" on="0"/>
        <pt x="220" y="287" on="1"/>
        <pt x="201" y="284" on="1"/>
        <pt x="184" y="284" on="0"/>
        <pt x="172" y="313" on="1"/>
        <pt x="172" y="337" on="0"/>
        <pt x="241" y="367" on="1"/>
        <pt x="300" y="405" on="0"/>
        <pt x="330" y="405" on="1"/>
        <pt x="387" y="405" on="0"/>
        <pt x="396" y="316" on="1"/>
        <pt x="396" y="310" on="1"/>
        <pt x="396" y="54" on="0"/>
        <pt x="285" y="-8" on="1"/>
        <pt x="255" y="-10" on="0"/>
        <pt x="255" y="-14" on="1"/>
        <pt x="110" y="-14" on="0"/>
        <pt x="46" y="332" on="1"/>
        <pt x="31" y="436" on="0"/>
        <pt x="31" y="525" on="1"/>
        <pt x="31" y="546" on="1"/>
        <pt x="31" y="848" on="0"/>
        <pt x="159" y="937" on="1"/>
        <pt x="203" y="956" on="0"/>
      </contour>
    </TTGlyph>
    <TTGlyph name="Gbreve" xMin="31" yMin="-14" xMax="396" yMax="1158">
      <contour>
        <pt x="217" y="956" on="1"/>
        <pt x="245" y="945" on="0"/>
        <pt x="245" y="924" on="1"/>
        <pt x="245" y="901" on="0"/>
        <pt x="188" y="886" on="1"/>
        <pt x="90" y="815" on="0"/>
        <pt x="90" y="540" on="1"/>
        <pt x="90" y="209" on="0"/>
        <pt x="207" y="67" on="1"/>
        <pt x="234" y="45" on="0"/>
        <pt x="247" y="45" on="1"/>
        <pt x="317" y="45" on="0"/>
        <pt x="333" y="254" on="1"/>
        <pt x="337" y="298" on="1"/>
        <pt x="334" y="345" on="0"/>
        <pt x="326" y="345" on="1"/>
        <pt x="291" y="331" on="0"/>
        <pt x="220" y="287" on="1"/>
        <pt x="201" y="284" on="1"/>
        <pt x="184" y="284" on="0"/>
        <pt x="172" y="313" on="1"/>
        <pt x="172" y="337" on="0"/>
        <pt x="241" y="367" on="1"/>
        <pt x="300" y="405" on="0"/>
        <pt x="330" y="405" on="1"/>
        <pt x="387" y="405" on="0"/>
        <pt x="396" y="316" on="1"/>
        <pt x="396" y="310" on="1"/>
        <pt x="396" y="54" on="0"/>
        <pt x="285" y="-8" on="1"/>
        <pt x="255" y="-10" on="0"/>
        <pt x="255" y="-14" on="1"/>
        <pt x="110" y="-14" on="0"/>
        <pt x="46" y="332" on="1"/>
        <pt x="31" y="436" on="0"/>
        <pt x="31" y="525" on="1"/>
        <pt x="31" y="546" on="1"/>
        <pt x="31" y="848" on="0"/>
        <pt x="159" y="937" on="1"/>
        <pt x="203" y="956" on="0"/>
      </contour>
      <contour>
        <pt x="325" y="1134" on="1"/>
        <pt x="210" y="992" on="0"/>
        <pt x="61" y="1102" on="0"/>
        <pt x="61" y="1123" on="1"/>
        <pt x="69" y="1149" on="0"/>
        <pt x="89" y="1149" on="1"/>
        <pt x="92" y="1149" on="1"/>
        <pt x="178" y="1047" on="0"/>
        <pt x="272" y="1158" on="0"/>
        <pt x="293" y="1158" on="1"/>
        <pt x="297" y="1158" on="1"/>
        <pt x="311" y="1158" on="0"/>
      </contour>
    </TTGlyph>
    <TTGlyph name="Gcircumflex" xMin="31" yMin="-14" xMax="396" yMax="1216">
      <contour>
        <pt x="217" y="956" on="1"/>
        <pt x="245" y="945" on="0"/>
        <pt x="245" y="924" on="1"/>
        <pt x="245" y="901" on="0"/>
        <pt x="188" y="886" on="1"/>
        <pt x="90" y="815" on="0"/>
        <pt x="90" y="540" on="1"/>
        <pt x="90" y="209" on="0"/>
        <pt x="207" y="67" on="1"/>
        <pt x="234" y="45" on="0"/>
        <pt x="247" y="45" on="1"/>
        <pt x="317" y="45" on="0"/>
        <pt x="333" y="254" on="1"/>
        <pt x="337" y="298" on="1"/>
        <pt x="334" y="345" on="0"/>
        <pt x="326" y="345" on="1"/>
        <pt x="291" y="331" on="0"/>
        <pt x="220" y="287" on="1"/>
        <pt x="201" y="284" on="1"/>
        <pt x="184" y="284" on="0"/>
        <pt x="172" y="313" on="1"/>
        <pt x="172" y="337" on="0"/>
        <pt x="241" y="367" on="1"/>
        <pt x="300" y="405" on="0"/>
        <pt x="330" y="405" on="1"/>
        <pt x="387" y="405" on="0"/>
        <pt x="396" y="316" on="1"/>
        <pt x="396" y="310" on="1"/>
        <pt x="396" y="54" on="0"/>
        <pt x="285" y="-8" on="1"/>
        <pt x="255" y="-10" on="0"/>
        <pt x="255" y="-14" on="1"/>
        <pt x="110" y="-14" on="0"/>
        <pt x="46" y="332" on="1"/>
        <pt x="31" y="436" on="0"/>
        <pt x="31" y="525" on="1"/>
        <pt x="31" y="546" on="1"/>
        <pt x="31" y="848" on="0"/>
        <pt x="159" y="937" on="1"/>
        <pt x="203" y="956" on="0"/>
      </contour>
      <contour>
        <pt x="347" y="1063" on="1"/>
        <pt x="348" y="1036" on="0"/>
        <pt x="313" y="1030" on="1"/>
        <pt x="302" y="1030" on="0"/>
        <pt x="185" y="1132" on="1"/>
        <pt x="182" y="1132" on="1"/>
        <pt x="144" y="1044" on="0"/>
        <pt x="124" y="1043" on="1"/>
        <pt x="121" y="1043" on="1"/>
        <pt x="93" y="1047" on="0"/>
        <pt x="92" y="1071" on="1"/>
        <pt x="139" y="1201" on="0"/>
        <pt x="180" y="1215" on="1"/>
        <pt x="195" y="1216" on="0"/>
        <pt x="273" y="1129" on="1"/>
        <pt x="332" y="1087" on="0"/>
      </contour>
    </TTGlyph>
    <TTGlyph name="Gcommaaccent" xMin="31" yMin="-271" xMax="396" yMax="956">
      <contour>
        <pt x="217" y="956" on="1"/>
        <pt x="245" y="945" on="0"/>
        <pt x="245" y="924" on="1"/>
        <pt x="245" y="901" on="0"/>
        <pt x="188" y="886" on="1"/>
        <pt x="90" y="815" on="0"/>
        <pt x="90" y="540" on="1"/>
        <pt x="90" y="209" on="0"/>
        <pt x="207" y="67" on="1"/>
        <pt x="234" y="45" on="0"/>
        <pt x="247" y="45" on="1"/>
        <pt x="317" y="45" on="0"/>
        <pt x="333" y="254" on="1"/>
        <pt x="337" y="298" on="1"/>
        <pt x="334" y="345" on="0"/>
        <pt x="326" y="345" on="1"/>
        <pt x="291" y="331" on="0"/>
        <pt x="220" y="287" on="1"/>
        <pt x="201" y="284" on="1"/>
        <pt x="184" y="284" on="0"/>
        <pt x="172" y="313" on="1"/>
        <pt x="172" y="337" on="0"/>
        <pt x="241" y="367" on="1"/>
        <pt x="300" y="405" on="0"/>
        <pt x="330" y="405" on="1"/>
        <pt x="387" y="405" on="0"/>
        <pt x="396" y="316" on="1"/>
        <pt x="396" y="310" on="1"/>
        <pt x="396" y="54" on="0"/>
        <pt x="285" y="-8" on="1"/>
        <pt x="255" y="-10" on="0"/>
        <pt x="255" y="-14" on="1"/>
        <pt x="110" y="-14" on="0"/>
        <pt x="46" y="332" on="1"/>
        <pt x="31" y="436" on="0"/>
        <pt x="31" y="525" on="1"/>
        <pt x="31" y="546" on="1"/>
        <pt x="31" y="848" on="0"/>
        <pt x="159" y="937" on="1"/>
        <pt x="203" y="956" on="0"/>
      </contour>
      <contour>
        <pt x="223" y="-86" on="1"/>
        <pt x="278" y="-99" on="0"/>
        <pt x="267" y="-177" on="1"/>
        <pt x="239" y="-245" on="0"/>
        <pt x="183" y="-271" on="1"/>
        <pt x="154" y="-260" on="0"/>
        <pt x="154" y="-239" on="1"/>
        <pt x="243" y="-183" on="0"/>
        <pt x="189" y="-136" on="1"/>
        <pt x="189" y="-86" on="0"/>
      </contour>
    </TTGlyph>
    <TTGlyph name="Gdotaccent" xMin="31" yMin="-14" xMax="396" yMax="1211">
      <contour>
        <pt x="217" y="956" on="1"/>
        <pt x="245" y="945" on="0"/>
        <pt x="245" y="924" on="1"/>
        <pt x="245" y="901" on="0"/>
        <pt x="188" y="886" on="1"/>
        <pt x="90" y="815" on="0"/>
        <pt x="90" y="540" on="1"/>
        <pt x="90" y="209" on="0"/>
        <pt x="207" y="67" on="1"/>
        <pt x="234" y="45" on="0"/>
        <pt x="247" y="45" on="1"/>
        <pt x="317" y="45" on="0"/>
        <pt x="333" y="254" on="1"/>
        <pt x="337" y="298" on="1"/>
        <pt x="334" y="345" on="0"/>
        <pt x="326" y="345" on="1"/>
        <pt x="291" y="331" on="0"/>
        <pt x="220" y="287" on="1"/>
        <pt x="201" y="284" on="1"/>
        <pt x="184" y="284" on="0"/>
        <pt x="172" y="313" on="1"/>
        <pt x="172" y="337" on="0"/>
        <pt x="241" y="367" on="1"/>
        <pt x="300" y="405" on="0"/>
        <pt x="330" y="405" on="1"/>
        <pt x="387" y="405" on="0"/>
        <pt x="396" y="316" on="1"/>
        <pt x="396" y="310" on="1"/>
        <pt x="396" y="54" on="0"/>
        <pt x="285" y="-8" on="1"/>
        <pt x="255" y="-10" on="0"/>
        <pt x="255" y="-14" on="1"/>
        <pt x="110" y="-14" on="0"/>
        <pt x="46" y="332" on="1"/>
        <pt x="31" y="436" on="0"/>
        <pt x="31" y="525" on="1"/>
        <pt x="31" y="546" on="1"/>
        <pt x="31" y="848" on="0"/>
        <pt x="159" y="937" on="1"/>
        <pt x="203" y="956" on="0"/>
      </contour>
      <contour>
        <pt x="218" y="1211" on="1"/>
        <pt x="244" y="1211" on="0"/>
        <pt x="256" y="1172" on="1"/>
        <pt x="256" y="1144" on="0"/>
        <pt x="214" y="1120" on="1"/>
        <pt x="183" y="1120" on="0"/>
        <pt x="176" y="1167" on="1"/>
        <pt x="194" y="1211" on="0"/>
      </contour>
    </TTGlyph>
    <TTGlyph name="H" xMin="22" yMin="-78" xMax="384" yMax="936">
      <contour>
        <pt x="274" y="936" on="1"/>
        <pt x="303" y="936" on="0"/>
        <pt x="303" y="898" on="1"/>
        <pt x="303" y="835" on="1"/>
        <pt x="303" y="704" on="0"/>
        <pt x="384" y="48" on="1"/>
        <pt x="384" y="32" on="1"/>
        <pt x="384" y="-15" on="0"/>
        <pt x="353" y="-15" on="1"/>
        <pt x="325" y="-11" on="0"/>
        <pt x="325" y="13" on="1"/>
        <pt x="325" y="35" on="1"/>
        <pt x="325" y="94" on="0"/>
        <pt x="274" y="454" on="1"/>
        <pt x="136" y="446" on="0"/>
        <pt x="136" y="432" on="1"/>
        <pt x="139" y="428" on="1"/>
        <pt x="139" y="426" on="1"/>
        <pt x="152" y="219" on="0"/>
        <pt x="152" y="48" on="1"/>
        <pt x="152" y="-32" on="1"/>
        <pt x="152" y="-78" on="0"/>
        <pt x="117" y="-78" on="1"/>
        <pt x="94" y="-78" on="0"/>
        <pt x="92" y="-43" on="1"/>
        <pt x="92" y="32" on="1"/>
        <pt x="92" y="232" on="0"/>
        <pt x="79" y="419" on="1"/>
        <pt x="73" y="419" on="1"/>
        <pt x="48" y="419" on="0"/>
        <pt x="35" y="441" on="1"/>
        <pt x="35" y="457" on="1"/>
        <pt x="52" y="481" on="0"/>
        <pt x="73" y="482" on="1"/>
        <pt x="73" y="558" on="0"/>
        <pt x="22" y="888" on="1"/>
        <pt x="22" y="913" on="0"/>
        <pt x="60" y="917" on="1"/>
        <pt x="85" y="917" on="0"/>
        <pt x="98" y="772" on="1"/>
        <pt x="111" y="708" on="0"/>
        <pt x="132" y="501" on="1"/>
        <pt x="136" y="501" on="1"/>
        <pt x="271" y="514" on="1"/>
        <pt x="239" y="771" on="0"/>
        <pt x="239" y="883" on="1"/>
        <pt x="239" y="936" on="0"/>
      </contour>
    </TTGlyph>
    <TTGlyph name="Hcircumflex" xMin="22" yMin="-78" xMax="384" yMax="1242">
      <contour>
        <pt x="274" y="936" on="1"/>
        <pt x="303" y="936" on="0"/>
        <pt x="303" y="898" on="1"/>
        <pt x="303" y="835" on="1"/>
        <pt x="303" y="704" on="0"/>
        <pt x="384" y="48" on="1"/>
        <pt x="384" y="32" on="1"/>
        <pt x="384" y="-15" on="0"/>
        <pt x="353" y="-15" on="1"/>
        <pt x="325" y="-11" on="0"/>
        <pt x="325" y="13" on="1"/>
        <pt x="325" y="35" on="1"/>
        <pt x="325" y="94" on="0"/>
        <pt x="274" y="454" on="1"/>
        <pt x="136" y="446" on="0"/>
        <pt x="136" y="432" on="1"/>
        <pt x="139" y="428" on="1"/>
        <pt x="139" y="426" on="1"/>
        <pt x="152" y="219" on="0"/>
        <pt x="152" y="48" on="1"/>
        <pt x="152" y="-32" on="1"/>
        <pt x="152" y="-78" on="0"/>
        <pt x="117" y="-78" on="1"/>
        <pt x="94" y="-78" on="0"/>
        <pt x="92" y="-43" on="1"/>
        <pt x="92" y="32" on="1"/>
        <pt x="92" y="232" on="0"/>
        <pt x="79" y="419" on="1"/>
        <pt x="73" y="419" on="1"/>
        <pt x="48" y="419" on="0"/>
        <pt x="35" y="441" on="1"/>
        <pt x="35" y="457" on="1"/>
        <pt x="52" y="481" on="0"/>
        <pt x="73" y="482" on="1"/>
        <pt x="73" y="558" on="0"/>
        <pt x="22" y="888" on="1"/>
        <pt x="22" y="913" on="0"/>
        <pt x="60" y="917" on="1"/>
        <pt x="85" y="917" on="0"/>
        <pt x="98" y="772" on="1"/>
        <pt x="111" y="708" on="0"/>
        <pt x="132" y="501" on="1"/>
        <pt x="136" y="501" on="1"/>
        <pt x="271" y="514" on="1"/>
        <pt x="239" y="771" on="0"/>
        <pt x="239" y="883" on="1"/>
        <pt x="239" y="936" on="0"/>
      </contour>
      <contour>
        <pt x="290" y="1089" on="1"/>
        <pt x="291" y="1063" on="0"/>
        <pt x="256" y="1057" on="1"/>
        <pt x="245" y="1057" on="0"/>
        <pt x="127" y="1160" on="1"/>
        <pt x="124" y="1160" on="1"/>
        <pt x="85" y="1071" on="0"/>
        <pt x="67" y="1071" on="1"/>
        <pt x="64" y="1070" on="1"/>
        <pt x="35" y="1074" on="0"/>
        <pt x="35" y="1098" on="1"/>
        <pt x="80" y="1228" on="0"/>
        <pt x="121" y="1242" on="1"/>
        <pt x="139" y="1242" on="0"/>
        <pt x="216" y="1156" on="1"/>
        <pt x="274" y="1114" on="0"/>
      </contour>
    </TTGlyph>
    <TTGlyph name="I" xMin="0" yMin="0" xMax="353" yMax="939">
      <contour>
        <pt x="189" y="939" on="1"/>
        <pt x="192" y="939" on="1"/>
        <pt x="271" y="936" on="0"/>
        <pt x="271" y="917" on="1"/>
        <pt x="271" y="897" on="1"/>
        <pt x="264" y="882" on="0"/>
        <pt x="246" y="876" on="1"/>
        <pt x="202" y="879" on="1"/>
        <pt x="180" y="879" on="1"/>
        <pt x="180" y="876" on="1"/>
        <pt x="194" y="73" on="0"/>
        <pt x="224" y="73" on="1"/>
        <pt x="331" y="88" on="1"/>
        <pt x="353" y="78" on="0"/>
        <pt x="353" y="60" on="1"/>
        <pt x="353" y="57" on="1"/>
        <pt x="353" y="25" on="0"/>
        <pt x="230" y="15" on="1"/>
        <pt x="148" y="0" on="0"/>
        <pt x="104" y="0" on="1"/>
        <pt x="82" y="9" on="0"/>
        <pt x="82" y="29" on="1"/>
        <pt x="82" y="63" on="0"/>
        <pt x="157" y="63" on="1"/>
        <pt x="157" y="67" on="1"/>
        <pt x="132" y="230" on="0"/>
        <pt x="120" y="873" on="1"/>
        <pt x="116" y="873" on="1"/>
        <pt x="25" y="857" on="1"/>
        <pt x="0" y="868" on="0"/>
        <pt x="0" y="891" on="1"/>
        <pt x="0" y="920" on="0"/>
        <pt x="126" y="932" on="1"/>
        <pt x="126" y="937" on="0"/>
      </contour>
    </TTGlyph>
    <TTGlyph name="Iacute" xMin="0" yMin="0" xMax="353" yMax="1142">
      <contour>
        <pt x="189" y="939" on="1"/>
        <pt x="192" y="939" on="1"/>
        <pt x="271" y="936" on="0"/>
        <pt x="271" y="917" on="1"/>
        <pt x="271" y="897" on="1"/>
        <pt x="264" y="882" on="0"/>
        <pt x="246" y="876" on="1"/>
        <pt x="202" y="879" on="1"/>
        <pt x="180" y="879" on="1"/>
        <pt x="180" y="876" on="1"/>
        <pt x="194" y="73" on="0"/>
        <pt x="224" y="73" on="1"/>
        <pt x="331" y="88" on="1"/>
        <pt x="353" y="78" on="0"/>
        <pt x="353" y="60" on="1"/>
        <pt x="353" y="57" on="1"/>
        <pt x="353" y="25" on="0"/>
        <pt x="230" y="15" on="1"/>
        <pt x="148" y="0" on="0"/>
        <pt x="104" y="0" on="1"/>
        <pt x="82" y="9" on="0"/>
        <pt x="82" y="29" on="1"/>
        <pt x="82" y="63" on="0"/>
        <pt x="157" y="63" on="1"/>
        <pt x="157" y="67" on="1"/>
        <pt x="132" y="230" on="0"/>
        <pt x="120" y="873" on="1"/>
        <pt x="116" y="873" on="1"/>
        <pt x="25" y="857" on="1"/>
        <pt x="0" y="868" on="0"/>
        <pt x="0" y="891" on="1"/>
        <pt x="0" y="920" on="0"/>
        <pt x="126" y="932" on="1"/>
        <pt x="126" y="937" on="0"/>
      </contour>
      <contour>
        <pt x="238" y="1142" on="1"/>
        <pt x="270" y="1134" on="0"/>
        <pt x="270" y="1111" on="1"/>
        <pt x="270" y="1101" on="0"/>
        <pt x="151" y="994" on="1"/>
        <pt x="100" y="944" on="0"/>
        <pt x="91" y="944" on="1"/>
        <pt x="59" y="952" on="0"/>
        <pt x="59" y="978" on="1"/>
        <pt x="211" y="1142" on="0"/>
      </contour>
    </TTGlyph>
    <TTGlyph name="Ibreve" xMin="0" yMin="0" xMax="353" yMax="1139">
      <contour>
        <pt x="189" y="939" on="1"/>
        <pt x="192" y="939" on="1"/>
        <pt x="271" y="936" on="0"/>
        <pt x="271" y="917" on="1"/>
        <pt x="271" y="897" on="1"/>
        <pt x="264" y="882" on="0"/>
        <pt x="246" y="876" on="1"/>
        <pt x="202" y="879" on="1"/>
        <pt x="180" y="879" on="1"/>
        <pt x="180" y="876" on="1"/>
        <pt x="194" y="73" on="0"/>
        <pt x="224" y="73" on="1"/>
        <pt x="331" y="88" on="1"/>
        <pt x="353" y="78" on="0"/>
        <pt x="353" y="60" on="1"/>
        <pt x="353" y="57" on="1"/>
        <pt x="353" y="25" on="0"/>
        <pt x="230" y="15" on="1"/>
        <pt x="148" y="0" on="0"/>
        <pt x="104" y="0" on="1"/>
        <pt x="82" y="9" on="0"/>
        <pt x="82" y="29" on="1"/>
        <pt x="82" y="63" on="0"/>
        <pt x="157" y="63" on="1"/>
        <pt x="157" y="67" on="1"/>
        <pt x="132" y="230" on="0"/>
        <pt x="120" y="873" on="1"/>
        <pt x="116" y="873" on="1"/>
        <pt x="25" y="857" on="1"/>
        <pt x="0" y="868" on="0"/>
        <pt x="0" y="891" on="1"/>
        <pt x="0" y="920" on="0"/>
        <pt x="126" y="932" on="1"/>
        <pt x="126" y="937" on="0"/>
      </contour>
      <contour>
        <pt x="300" y="1114" on="1"/>
        <pt x="184" y="972" on="0"/>
        <pt x="35" y="1082" on="0"/>
        <pt x="35" y="1104" on="1"/>
        <pt x="43" y="1129" on="0"/>
        <pt x="64" y="1129" on="1"/>
        <pt x="67" y="1129" on="1"/>
        <pt x="152" y="1028" on="0"/>
        <pt x="246" y="1139" on="0"/>
        <pt x="268" y="1139" on="1"/>
        <pt x="271" y="1139" on="1"/>
        <pt x="286" y="1139" on="0"/>
      </contour>
    </TTGlyph>
    <TTGlyph name="Icircumflex" xMin="0" yMin="0" xMax="353" yMax="1141">
      <contour>
        <pt x="189" y="939" on="1"/>
        <pt x="192" y="939" on="1"/>
        <pt x="271" y="936" on="0"/>
        <pt x="271" y="917" on="1"/>
        <pt x="271" y="897" on="1"/>
        <pt x="264" y="882" on="0"/>
        <pt x="246" y="876" on="1"/>
        <pt x="202" y="879" on="1"/>
        <pt x="180" y="879" on="1"/>
        <pt x="180" y="876" on="1"/>
        <pt x="194" y="73" on="0"/>
        <pt x="224" y="73" on="1"/>
        <pt x="331" y="88" on="1"/>
        <pt x="353" y="78" on="0"/>
        <pt x="353" y="60" on="1"/>
        <pt x="353" y="57" on="1"/>
        <pt x="353" y="25" on="0"/>
        <pt x="230" y="15" on="1"/>
        <pt x="148" y="0" on="0"/>
        <pt x="104" y="0" on="1"/>
        <pt x="82" y="9" on="0"/>
        <pt x="82" y="29" on="1"/>
        <pt x="82" y="63" on="0"/>
        <pt x="157" y="63" on="1"/>
        <pt x="157" y="67" on="1"/>
        <pt x="132" y="230" on="0"/>
        <pt x="120" y="873" on="1"/>
        <pt x="116" y="873" on="1"/>
        <pt x="25" y="857" on="1"/>
        <pt x="0" y="868" on="0"/>
        <pt x="0" y="891" on="1"/>
        <pt x="0" y="920" on="0"/>
        <pt x="126" y="932" on="1"/>
        <pt x="126" y="937" on="0"/>
      </contour>
      <contour>
        <pt x="329" y="954" on="1"/>
        <pt x="323" y="928" on="0"/>
        <pt x="289" y="930" on="1"/>
        <pt x="277" y="932" on="0"/>
        <pt x="187" y="1060" on="1"/>
        <pt x="184" y="1061" on="1"/>
        <pt x="126" y="983" on="0"/>
        <pt x="107" y="986" on="1"/>
        <pt x="104" y="987" on="1"/>
        <pt x="76" y="996" on="0"/>
        <pt x="82" y="1021" on="1"/>
        <pt x="157" y="1137" on="0"/>
        <pt x="200" y="1141" on="1"/>
        <pt x="216" y="1138" on="0"/>
        <pt x="272" y="1037" on="1"/>
        <pt x="319" y="982" on="0"/>
      </contour>
    </TTGlyph>
    <TTGlyph name="Idieresis" xMin="0" yMin="0" xMax="353" yMax="1042">
      <contour>
        <pt x="189" y="939" on="1"/>
        <pt x="192" y="939" on="1"/>
        <pt x="271" y="936" on="0"/>
        <pt x="271" y="917" on="1"/>
        <pt x="271" y="897" on="1"/>
        <pt x="264" y="882" on="0"/>
        <pt x="246" y="876" on="1"/>
        <pt x="202" y="879" on="1"/>
        <pt x="180" y="879" on="1"/>
        <pt x="180" y="876" on="1"/>
        <pt x="194" y="73" on="0"/>
        <pt x="224" y="73" on="1"/>
        <pt x="331" y="88" on="1"/>
        <pt x="353" y="78" on="0"/>
        <pt x="353" y="60" on="1"/>
        <pt x="353" y="57" on="1"/>
        <pt x="353" y="25" on="0"/>
        <pt x="230" y="15" on="1"/>
        <pt x="148" y="0" on="0"/>
        <pt x="104" y="0" on="1"/>
        <pt x="82" y="9" on="0"/>
        <pt x="82" y="29" on="1"/>
        <pt x="82" y="63" on="0"/>
        <pt x="157" y="63" on="1"/>
        <pt x="157" y="67" on="1"/>
        <pt x="132" y="230" on="0"/>
        <pt x="120" y="873" on="1"/>
        <pt x="116" y="873" on="1"/>
        <pt x="25" y="857" on="1"/>
        <pt x="0" y="868" on="0"/>
        <pt x="0" y="891" on="1"/>
        <pt x="0" y="920" on="0"/>
        <pt x="126" y="932" on="1"/>
        <pt x="126" y="937" on="0"/>
      </contour>
      <contour>
        <pt x="94" y="1042" on="1"/>
        <pt x="117" y="1042" on="0"/>
        <pt x="120" y="1007" on="1"/>
        <pt x="114" y="976" on="0"/>
        <pt x="88" y="976" on="1"/>
        <pt x="63" y="976" on="0"/>
        <pt x="57" y="1011" on="1"/>
        <pt x="69" y="1042" on="0"/>
      </contour>
      <contour>
        <pt x="184" y="1042" on="1"/>
        <pt x="208" y="1034" on="0"/>
        <pt x="208" y="1011" on="1"/>
        <pt x="208" y="989" on="0"/>
        <pt x="174" y="983" on="1"/>
        <pt x="155" y="983" on="0"/>
        <pt x="142" y="1011" on="1"/>
        <pt x="142" y="1040" on="0"/>
      </contour>
    </TTGlyph>
    <TTGlyph name="Idotaccent" xMin="0" yMin="0" xMax="353" yMax="1125">
      <contour>
        <pt x="189" y="939" on="1"/>
        <pt x="192" y="939" on="1"/>
        <pt x="271" y="936" on="0"/>
        <pt x="271" y="917" on="1"/>
        <pt x="271" y="897" on="1"/>
        <pt x="264" y="882" on="0"/>
        <pt x="246" y="876" on="1"/>
        <pt x="202" y="879" on="1"/>
        <pt x="180" y="879" on="1"/>
        <pt x="180" y="876" on="1"/>
        <pt x="194" y="73" on="0"/>
        <pt x="224" y="73" on="1"/>
        <pt x="331" y="88" on="1"/>
        <pt x="353" y="78" on="0"/>
        <pt x="353" y="60" on="1"/>
        <pt x="353" y="57" on="1"/>
        <pt x="353" y="25" on="0"/>
        <pt x="230" y="15" on="1"/>
        <pt x="148" y="0" on="0"/>
        <pt x="104" y="0" on="1"/>
        <pt x="82" y="9" on="0"/>
        <pt x="82" y="29" on="1"/>
        <pt x="82" y="63" on="0"/>
        <pt x="157" y="63" on="1"/>
        <pt x="157" y="67" on="1"/>
        <pt x="132" y="230" on="0"/>
        <pt x="120" y="873" on="1"/>
        <pt x="116" y="873" on="1"/>
        <pt x="25" y="857" on="1"/>
        <pt x="0" y="868" on="0"/>
        <pt x="0" y="891" on="1"/>
        <pt x="0" y="920" on="0"/>
        <pt x="126" y="932" on="1"/>
        <pt x="126" y="937" on="0"/>
      </contour>
      <contour>
        <pt x="157" y="1125" on="1"/>
        <pt x="184" y="1125" on="0"/>
        <pt x="195" y="1086" on="1"/>
        <pt x="195" y="1058" on="0"/>
        <pt x="154" y="1034" on="1"/>
        <pt x="122" y="1034" on="0"/>
        <pt x="116" y="1082" on="1"/>
        <pt x="135" y="1125" on="0"/>
      </contour>
    </TTGlyph>
    <TTGlyph name="Igrave" xMin="0" yMin="0" xMax="353" yMax="1153">
      <contour>
        <pt x="189" y="939" on="1"/>
        <pt x="192" y="939" on="1"/>
        <pt x="271" y="936" on="0"/>
        <pt x="271" y="917" on="1"/>
        <pt x="271" y="897" on="1"/>
        <pt x="264" y="882" on="0"/>
        <pt x="246" y="876" on="1"/>
        <pt x="202" y="879" on="1"/>
        <pt x="180" y="879" on="1"/>
        <pt x="180" y="876" on="1"/>
        <pt x="194" y="73" on="0"/>
        <pt x="224" y="73" on="1"/>
        <pt x="331" y="88" on="1"/>
        <pt x="353" y="78" on="0"/>
        <pt x="353" y="60" on="1"/>
        <pt x="353" y="57" on="1"/>
        <pt x="353" y="25" on="0"/>
        <pt x="230" y="15" on="1"/>
        <pt x="148" y="0" on="0"/>
        <pt x="104" y="0" on="1"/>
        <pt x="82" y="9" on="0"/>
        <pt x="82" y="29" on="1"/>
        <pt x="82" y="63" on="0"/>
        <pt x="157" y="63" on="1"/>
        <pt x="157" y="67" on="1"/>
        <pt x="132" y="230" on="0"/>
        <pt x="120" y="873" on="1"/>
        <pt x="116" y="873" on="1"/>
        <pt x="25" y="857" on="1"/>
        <pt x="0" y="868" on="0"/>
        <pt x="0" y="891" on="1"/>
        <pt x="0" y="920" on="0"/>
        <pt x="126" y="932" on="1"/>
        <pt x="126" y="937" on="0"/>
      </contour>
      <contour>
        <pt x="91" y="1153" on="1"/>
        <pt x="121" y="1139" on="0"/>
        <pt x="180" y="1052" on="1"/>
        <pt x="227" y="1019" on="0"/>
        <pt x="227" y="1004" on="1"/>
        <pt x="227" y="987" on="0"/>
        <pt x="195" y="973" on="1"/>
        <pt x="139" y="997" on="0"/>
        <pt x="60" y="1118" on="1"/>
        <pt x="60" y="1124" on="1"/>
        <pt x="70" y="1153" on="0"/>
      </contour>
    </TTGlyph>
    <TTGlyph name="Iogonek" xMin="0" yMin="-149" xMax="411" yMax="939">
      <contour>
        <pt x="189" y="939" on="1"/>
        <pt x="192" y="939" on="1"/>
        <pt x="271" y="936" on="0"/>
        <pt x="271" y="917" on="1"/>
        <pt x="271" y="897" on="1"/>
        <pt x="264" y="882" on="0"/>
        <pt x="246" y="876" on="1"/>
        <pt x="202" y="879" on="1"/>
        <pt x="180" y="879" on="1"/>
        <pt x="180" y="876" on="1"/>
        <pt x="194" y="73" on="0"/>
        <pt x="224" y="73" on="1"/>
        <pt x="331" y="88" on="1"/>
        <pt x="353" y="78" on="0"/>
        <pt x="353" y="60" on="1"/>
        <pt x="353" y="57" on="1"/>
        <pt x="353" y="33" on="0"/>
        <pt x="289" y="22" on="1"/>
        <pt x="250" y="-5" on="0"/>
        <pt x="250" y="-48" on="1"/>
        <pt x="250" y="-59" on="1"/>
        <pt x="256" y="-89" on="0"/>
        <pt x="282" y="-89" on="1"/>
        <pt x="292" y="-89" on="1"/>
        <pt x="360" y="-77" on="1"/>
        <pt x="411" y="-83" on="0"/>
        <pt x="342" y="-143" on="1"/>
        <pt x="338" y="-140" on="1"/>
        <pt x="311" y="-149" on="0"/>
        <pt x="282" y="-149" on="1"/>
        <pt x="208" y="-149" on="0"/>
        <pt x="191" y="-51" on="1"/>
        <pt x="205" y="-10" on="0"/>
        <pt x="223" y="13" on="1"/>
        <pt x="147" y="0" on="0"/>
        <pt x="104" y="0" on="1"/>
        <pt x="82" y="9" on="0"/>
        <pt x="82" y="29" on="1"/>
        <pt x="82" y="63" on="0"/>
        <pt x="157" y="63" on="1"/>
        <pt x="157" y="67" on="1"/>
        <pt x="132" y="230" on="0"/>
        <pt x="120" y="873" on="1"/>
        <pt x="116" y="873" on="1"/>
        <pt x="25" y="857" on="1"/>
        <pt x="0" y="868" on="0"/>
        <pt x="0" y="891" on="1"/>
        <pt x="0" y="920" on="0"/>
        <pt x="126" y="932" on="1"/>
        <pt x="126" y="937" on="0"/>
      </contour>
    </TTGlyph>
    <TTGlyph name="Itilde" xMin="0" yMin="0" xMax="355" yMax="1141">
      <contour>
        <pt x="189" y="939" on="1"/>
        <pt x="192" y="939" on="1"/>
        <pt x="271" y="936" on="0"/>
        <pt x="271" y="917" on="1"/>
        <pt x="271" y="897" on="1"/>
        <pt x="264" y="882" on="0"/>
        <pt x="246" y="876" on="1"/>
        <pt x="202" y="879" on="1"/>
        <pt x="180" y="879" on="1"/>
        <pt x="180" y="876" on="1"/>
        <pt x="194" y="73" on="0"/>
        <pt x="224" y="73" on="1"/>
        <pt x="331" y="88" on="1"/>
        <pt x="353" y="78" on="0"/>
        <pt x="353" y="60" on="1"/>
        <pt x="353" y="57" on="1"/>
        <pt x="353" y="25" on="0"/>
        <pt x="230" y="15" on="1"/>
        <pt x="148" y="0" on="0"/>
        <pt x="104" y="0" on="1"/>
        <pt x="82" y="9" on="0"/>
        <pt x="82" y="29" on="1"/>
        <pt x="82" y="63" on="0"/>
        <pt x="157" y="63" on="1"/>
        <pt x="157" y="67" on="1"/>
        <pt x="132" y="230" on="0"/>
        <pt x="120" y="873" on="1"/>
        <pt x="116" y="873" on="1"/>
        <pt x="25" y="857" on="1"/>
        <pt x="0" y="868" on="0"/>
        <pt x="0" y="891" on="1"/>
        <pt x="0" y="920" on="0"/>
        <pt x="126" y="932" on="1"/>
        <pt x="126" y="937" on="0"/>
      </contour>
      <contour>
        <pt x="326" y="1141" on="1"/>
        <pt x="355" y="1132" on="0"/>
        <pt x="355" y="1090" on="1"/>
        <pt x="346" y="1021" on="0"/>
        <pt x="292" y="1021" on="1"/>
        <pt x="289" y="1021" on="1"/>
        <pt x="252" y="1028" on="0"/>
        <pt x="147" y="1068" on="1"/>
        <pt x="118" y="1072" on="1"/>
        <pt x="103" y="1066" on="0"/>
        <pt x="103" y="1049" on="1"/>
        <pt x="103" y="1046" on="1"/>
        <pt x="106" y="1043" on="1"/>
        <pt x="94" y="1008" on="0"/>
        <pt x="65" y="1008" on="1"/>
        <pt x="62" y="1008" on="1"/>
        <pt x="35" y="1008" on="0"/>
        <pt x="27" y="1046" on="1"/>
        <pt x="69" y="1131" on="0"/>
        <pt x="128" y="1131" on="1"/>
        <pt x="154" y="1131" on="0"/>
        <pt x="282" y="1081" on="1"/>
        <pt x="289" y="1081" on="1"/>
        <pt x="295" y="1081" on="0"/>
        <pt x="295" y="1090" on="1"/>
        <pt x="292" y="1112" on="1"/>
        <pt x="292" y="1135" on="0"/>
      </contour>
    </TTGlyph>
    <TTGlyph name="J" xMin="31" yMin="-23" xMax="318" yMax="951">
      <contour>
        <pt x="248" y="951" on="1"/>
        <pt x="252" y="951" on="1"/>
        <pt x="318" y="951" on="0"/>
        <pt x="318" y="920" on="1"/>
        <pt x="318" y="902" on="0"/>
        <pt x="292" y="887" on="1"/>
        <pt x="261" y="891" on="1"/>
        <pt x="217" y="891" on="1"/>
        <pt x="217" y="794" on="1"/>
        <pt x="217" y="402" on="0"/>
        <pt x="252" y="107" on="1"/>
        <pt x="252" y="94" on="1"/>
        <pt x="252" y="4" on="0"/>
        <pt x="183" y="-20" on="1"/>
        <pt x="157" y="-23" on="1"/>
        <pt x="67" y="-23" on="0"/>
        <pt x="38" y="129" on="1"/>
        <pt x="31" y="163" on="1"/>
        <pt x="40" y="192" on="0"/>
        <pt x="63" y="192" on="1"/>
        <pt x="89" y="192" on="0"/>
        <pt x="101" y="107" on="1"/>
        <pt x="120" y="52" on="0"/>
        <pt x="148" y="38" on="1"/>
        <pt x="169" y="38" on="1"/>
        <pt x="192" y="49" on="0"/>
        <pt x="192" y="91" on="1"/>
        <pt x="192" y="101" on="1"/>
        <pt x="163" y="401" on="0"/>
        <pt x="163" y="469" on="1"/>
        <pt x="157" y="585" on="0"/>
        <pt x="157" y="780" on="1"/>
        <pt x="157" y="882" on="1"/>
        <pt x="154" y="882" on="1"/>
        <pt x="78" y="876" on="1"/>
        <pt x="69" y="876" on="1"/>
        <pt x="31" y="880" on="0"/>
        <pt x="31" y="907" on="1"/>
        <pt x="36" y="935" on="0"/>
        <pt x="69" y="935" on="1"/>
        <pt x="85" y="935" on="1"/>
      </contour>
    </TTGlyph>
    <TTGlyph name="Jcircumflex" xMin="31" yMin="-23" xMax="337" yMax="1242">
      <contour>
        <pt x="248" y="951" on="1"/>
        <pt x="252" y="951" on="1"/>
        <pt x="318" y="951" on="0"/>
        <pt x="318" y="920" on="1"/>
        <pt x="318" y="902" on="0"/>
        <pt x="292" y="887" on="1"/>
        <pt x="261" y="891" on="1"/>
        <pt x="217" y="891" on="1"/>
        <pt x="217" y="794" on="1"/>
        <pt x="217" y="402" on="0"/>
        <pt x="252" y="107" on="1"/>
        <pt x="252" y="94" on="1"/>
        <pt x="252" y="4" on="0"/>
        <pt x="183" y="-20" on="1"/>
        <pt x="157" y="-23" on="1"/>
        <pt x="67" y="-23" on="0"/>
        <pt x="38" y="129" on="1"/>
        <pt x="31" y="163" on="1"/>
        <pt x="40" y="192" on="0"/>
        <pt x="63" y="192" on="1"/>
        <pt x="89" y="192" on="0"/>
        <pt x="101" y="107" on="1"/>
        <pt x="120" y="52" on="0"/>
        <pt x="148" y="38" on="1"/>
        <pt x="169" y="38" on="1"/>
        <pt x="192" y="49" on="0"/>
        <pt x="192" y="91" on="1"/>
        <pt x="192" y="101" on="1"/>
        <pt x="163" y="401" on="0"/>
        <pt x="163" y="469" on="1"/>
        <pt x="157" y="585" on="0"/>
        <pt x="157" y="780" on="1"/>
        <pt x="157" y="882" on="1"/>
        <pt x="154" y="882" on="1"/>
        <pt x="78" y="876" on="1"/>
        <pt x="69" y="876" on="1"/>
        <pt x="31" y="880" on="0"/>
        <pt x="31" y="907" on="1"/>
        <pt x="36" y="935" on="0"/>
        <pt x="69" y="935" on="1"/>
        <pt x="85" y="935" on="1"/>
      </contour>
      <contour>
        <pt x="336" y="1089" on="1"/>
        <pt x="337" y="1063" on="0"/>
        <pt x="302" y="1057" on="1"/>
        <pt x="291" y="1057" on="0"/>
        <pt x="174" y="1160" on="1"/>
        <pt x="170" y="1160" on="1"/>
        <pt x="131" y="1071" on="0"/>
        <pt x="112" y="1071" on="1"/>
        <pt x="110" y="1070" on="1"/>
        <pt x="81" y="1074" on="0"/>
        <pt x="80" y="1098" on="1"/>
        <pt x="126" y="1228" on="0"/>
        <pt x="167" y="1242" on="1"/>
        <pt x="184" y="1242" on="0"/>
        <pt x="262" y="1156" on="1"/>
        <pt x="320" y="1114" on="0"/>
      </contour>
    </TTGlyph>
    <TTGlyph name="K" xMin="40" yMin="-33" xMax="414" yMax="976">
      <contour>
        <pt x="337" y="974" on="1"/>
        <pt x="354" y="973" on="0"/>
        <pt x="363" y="944" on="1"/>
        <pt x="308" y="854" on="0"/>
        <pt x="236" y="617" on="1"/>
        <pt x="208" y="550" on="0"/>
        <pt x="157" y="481" on="1"/>
        <pt x="292" y="119" on="0"/>
        <pt x="374" y="40" on="1"/>
        <pt x="414" y="10" on="0"/>
        <pt x="413" y="-5" on="1"/>
        <pt x="405" y="-33" on="0"/>
        <pt x="382" y="-32" on="1"/>
        <pt x="380" y="-32" on="1"/>
        <pt x="339" y="-22" on="0"/>
        <pt x="247" y="121" on="1"/>
        <pt x="183" y="250" on="0"/>
        <pt x="133" y="390" on="1"/>
        <pt x="127" y="391" on="1"/>
        <pt x="114" y="165" on="0"/>
        <pt x="136" y="11" on="1"/>
        <pt x="124" y="-16" on="0"/>
        <pt x="103" y="-14" on="1"/>
        <pt x="94" y="-14" on="1"/>
        <pt x="55" y="-12" on="0"/>
        <pt x="67" y="438" on="1"/>
        <pt x="40" y="771" on="0"/>
        <pt x="49" y="931" on="1"/>
        <pt x="51" y="966" on="0"/>
        <pt x="83" y="964" on="1"/>
        <pt x="109" y="963" on="0"/>
        <pt x="109" y="922" on="1"/>
        <pt x="100" y="767" on="0"/>
        <pt x="121" y="536" on="1"/>
        <pt x="123" y="536" on="1"/>
        <pt x="160" y="571" on="0"/>
        <pt x="219" y="748" on="1"/>
        <pt x="289" y="976" on="0"/>
      </contour>
    </TTGlyph>
    <TTGlyph name="Kcommaaccent" xMin="40" yMin="-271" xMax="414" yMax="976">
      <contour>
        <pt x="337" y="974" on="1"/>
        <pt x="354" y="973" on="0"/>
        <pt x="363" y="944" on="1"/>
        <pt x="308" y="854" on="0"/>
        <pt x="236" y="617" on="1"/>
        <pt x="208" y="550" on="0"/>
        <pt x="157" y="481" on="1"/>
        <pt x="292" y="119" on="0"/>
        <pt x="374" y="40" on="1"/>
        <pt x="414" y="10" on="0"/>
        <pt x="413" y="-5" on="1"/>
        <pt x="405" y="-33" on="0"/>
        <pt x="382" y="-32" on="1"/>
        <pt x="380" y="-32" on="1"/>
        <pt x="339" y="-22" on="0"/>
        <pt x="247" y="121" on="1"/>
        <pt x="183" y="250" on="0"/>
        <pt x="133" y="390" on="1"/>
        <pt x="127" y="391" on="1"/>
        <pt x="114" y="165" on="0"/>
        <pt x="136" y="11" on="1"/>
        <pt x="124" y="-16" on="0"/>
        <pt x="103" y="-14" on="1"/>
        <pt x="94" y="-14" on="1"/>
        <pt x="55" y="-12" on="0"/>
        <pt x="67" y="438" on="1"/>
        <pt x="40" y="771" on="0"/>
        <pt x="49" y="931" on="1"/>
        <pt x="51" y="966" on="0"/>
        <pt x="83" y="964" on="1"/>
        <pt x="109" y="963" on="0"/>
        <pt x="109" y="922" on="1"/>
        <pt x="100" y="767" on="0"/>
        <pt x="121" y="536" on="1"/>
        <pt x="123" y="536" on="1"/>
        <pt x="160" y="571" on="0"/>
        <pt x="219" y="748" on="1"/>
        <pt x="289" y="976" on="0"/>
      </contour>
      <contour>
        <pt x="237" y="-86" on="1"/>
        <pt x="292" y="-99" on="0"/>
        <pt x="281" y="-177" on="1"/>
        <pt x="254" y="-245" on="0"/>
        <pt x="196" y="-271" on="1"/>
        <pt x="167" y="-260" on="0"/>
        <pt x="167" y="-239" on="1"/>
        <pt x="257" y="-183" on="0"/>
        <pt x="202" y="-136" on="1"/>
        <pt x="202" y="-86" on="0"/>
      </contour>
    </TTGlyph>
    <TTGlyph name="L" xMin="25" yMin="-8" xMax="344" yMax="943">
      <contour>
        <pt x="57" y="943" on="1"/>
        <pt x="88" y="943" on="0"/>
        <pt x="88" y="849" on="1"/>
        <pt x="113" y="67" on="0"/>
        <pt x="136" y="67" on="1"/>
        <pt x="164" y="74" on="1"/>
        <pt x="277" y="71" on="1"/>
        <pt x="315" y="80" on="1"/>
        <pt x="330" y="80" on="0"/>
        <pt x="344" y="51" on="1"/>
        <pt x="334" y="11" on="0"/>
        <pt x="262" y="11" on="1"/>
        <pt x="157" y="13" on="1"/>
        <pt x="145" y="13" on="0"/>
        <pt x="113" y="-8" on="1"/>
        <pt x="98" y="-8" on="1"/>
        <pt x="67" y="-8" on="0"/>
        <pt x="57" y="225" on="1"/>
        <pt x="45" y="374" on="0"/>
        <pt x="25" y="922" on="1"/>
        <pt x="33" y="943" on="0"/>
      </contour>
    </TTGlyph>
    <TTGlyph name="Lacute" xMin="25" yMin="-8" xMax="344" yMax="1362">
      <contour>
        <pt x="57" y="943" on="1"/>
        <pt x="88" y="943" on="0"/>
        <pt x="88" y="849" on="1"/>
        <pt x="113" y="67" on="0"/>
        <pt x="136" y="67" on="1"/>
        <pt x="164" y="74" on="1"/>
        <pt x="277" y="71" on="1"/>
        <pt x="315" y="80" on="1"/>
        <pt x="330" y="80" on="0"/>
        <pt x="344" y="51" on="1"/>
        <pt x="334" y="11" on="0"/>
        <pt x="262" y="11" on="1"/>
        <pt x="157" y="13" on="1"/>
        <pt x="145" y="13" on="0"/>
        <pt x="113" y="-8" on="1"/>
        <pt x="98" y="-8" on="1"/>
        <pt x="67" y="-8" on="0"/>
        <pt x="57" y="225" on="1"/>
        <pt x="45" y="374" on="0"/>
        <pt x="25" y="922" on="1"/>
        <pt x="33" y="943" on="0"/>
      </contour>
      <contour>
        <pt x="256" y="1362" on="1"/>
        <pt x="287" y="1354" on="0"/>
        <pt x="287" y="1330" on="1"/>
        <pt x="287" y="1319" on="0"/>
        <pt x="168" y="1214" on="1"/>
        <pt x="117" y="1163" on="0"/>
        <pt x="109" y="1163" on="1"/>
        <pt x="76" y="1172" on="0"/>
        <pt x="76" y="1198" on="1"/>
        <pt x="229" y="1362" on="0"/>
      </contour>
    </TTGlyph>
    <TTGlyph name="Lcommaaccent" xMin="25" yMin="-271" xMax="344" yMax="943">
      <contour>
        <pt x="57" y="943" on="1"/>
        <pt x="88" y="943" on="0"/>
        <pt x="88" y="849" on="1"/>
        <pt x="113" y="67" on="0"/>
        <pt x="136" y="67" on="1"/>
        <pt x="164" y="74" on="1"/>
        <pt x="277" y="71" on="1"/>
        <pt x="315" y="80" on="1"/>
        <pt x="330" y="80" on="0"/>
        <pt x="344" y="51" on="1"/>
        <pt x="334" y="11" on="0"/>
        <pt x="262" y="11" on="1"/>
        <pt x="157" y="13" on="1"/>
        <pt x="145" y="13" on="0"/>
        <pt x="113" y="-8" on="1"/>
        <pt x="98" y="-8" on="1"/>
        <pt x="67" y="-8" on="0"/>
        <pt x="57" y="225" on="1"/>
        <pt x="45" y="374" on="0"/>
        <pt x="25" y="922" on="1"/>
        <pt x="33" y="943" on="0"/>
      </contour>
      <contour>
        <pt x="190" y="-86" on="1"/>
        <pt x="245" y="-99" on="0"/>
        <pt x="233" y="-177" on="1"/>
        <pt x="205" y="-245" on="0"/>
        <pt x="148" y="-271" on="1"/>
        <pt x="120" y="-260" on="0"/>
        <pt x="120" y="-239" on="1"/>
        <pt x="209" y="-183" on="0"/>
        <pt x="155" y="-136" on="1"/>
        <pt x="155" y="-86" on="0"/>
      </contour>
    </TTGlyph>
    <TTGlyph name="Ldot" xMin="25" yMin="-8" xMax="379" yMax="943">
      <contour>
        <pt x="57" y="943" on="1"/>
        <pt x="88" y="943" on="0"/>
        <pt x="88" y="849" on="1"/>
        <pt x="113" y="67" on="0"/>
        <pt x="136" y="67" on="1"/>
        <pt x="164" y="74" on="1"/>
        <pt x="277" y="71" on="1"/>
        <pt x="315" y="80" on="1"/>
        <pt x="330" y="80" on="0"/>
        <pt x="344" y="51" on="1"/>
        <pt x="334" y="11" on="0"/>
        <pt x="262" y="11" on="1"/>
        <pt x="157" y="13" on="1"/>
        <pt x="145" y="13" on="0"/>
        <pt x="113" y="-8" on="1"/>
        <pt x="98" y="-8" on="1"/>
        <pt x="67" y="-8" on="0"/>
        <pt x="57" y="225" on="1"/>
        <pt x="45" y="374" on="0"/>
        <pt x="25" y="922" on="1"/>
        <pt x="33" y="943" on="0"/>
      </contour>
      <contour>
        <pt x="299" y="388" on="1"/>
        <pt x="354" y="388" on="0"/>
        <pt x="379" y="307" on="1"/>
        <pt x="379" y="250" on="0"/>
        <pt x="291" y="200" on="1"/>
        <pt x="225" y="200" on="0"/>
        <pt x="211" y="299" on="1"/>
        <pt x="248" y="388" on="0"/>
      </contour>
    </TTGlyph>
    <TTGlyph name="Lslash" xMin="1" yMin="-8" xMax="344" yMax="943">
      <contour>
        <pt x="45" y="345" on="1"/>
        <pt x="49" y="345" on="1"/>
        <pt x="39" y="532" on="0"/>
        <pt x="25" y="922" on="1"/>
        <pt x="33" y="943" on="0"/>
        <pt x="57" y="943" on="1"/>
        <pt x="88" y="943" on="0"/>
        <pt x="88" y="849" on="1"/>
        <pt x="98" y="531" on="0"/>
        <pt x="108" y="343" on="1"/>
        <pt x="193" y="337" on="0"/>
        <pt x="193" y="313" on="1"/>
        <pt x="196" y="303" on="1"/>
        <pt x="188" y="275" on="0"/>
        <pt x="171" y="275" on="1"/>
        <pt x="140" y="279" on="0"/>
        <pt x="111" y="282" on="1"/>
        <pt x="124" y="67" on="0"/>
        <pt x="136" y="67" on="1"/>
        <pt x="164" y="74" on="1"/>
        <pt x="277" y="71" on="1"/>
        <pt x="315" y="80" on="1"/>
        <pt x="330" y="80" on="0"/>
        <pt x="344" y="51" on="1"/>
        <pt x="334" y="11" on="0"/>
        <pt x="262" y="11" on="1"/>
        <pt x="157" y="13" on="1"/>
        <pt x="145" y="13" on="0"/>
        <pt x="113" y="-8" on="1"/>
        <pt x="98" y="-8" on="1"/>
        <pt x="67" y="-8" on="0"/>
        <pt x="57" y="225" on="1"/>
        <pt x="55" y="249" on="0"/>
        <pt x="52" y="284" on="1"/>
        <pt x="49" y="284" on="1"/>
        <pt x="29" y="282" on="1"/>
        <pt x="7" y="282" on="0"/>
        <pt x="1" y="316" on="1"/>
        <pt x="1" y="340" on="0"/>
      </contour>
    </TTGlyph>
    <TTGlyph name="M" xMin="31" yMin="-28" xMax="519" yMax="955">
      <contour>
        <pt x="66" y="955" on="1"/>
        <pt x="89" y="955" on="0"/>
        <pt x="101" y="873" on="1"/>
        <pt x="227" y="661" on="0"/>
        <pt x="227" y="617" on="1"/>
        <pt x="252" y="517" on="1"/>
        <pt x="255" y="517" on="1"/>
        <pt x="298" y="756" on="0"/>
        <pt x="346" y="857" on="1"/>
        <pt x="383" y="936" on="0"/>
        <pt x="406" y="936" on="1"/>
        <pt x="439" y="936" on="0"/>
        <pt x="447" y="850" on="1"/>
        <pt x="465" y="751" on="0"/>
        <pt x="465" y="586" on="1"/>
        <pt x="465" y="337" on="1"/>
        <pt x="473" y="76" on="0"/>
        <pt x="500" y="76" on="1"/>
        <pt x="519" y="66" on="0"/>
        <pt x="519" y="44" on="1"/>
        <pt x="519" y="-11" on="0"/>
        <pt x="491" y="-28" on="1"/>
        <pt x="472" y="-28" on="1"/>
        <pt x="419" y="-3" on="0"/>
        <pt x="402" y="388" on="1"/>
        <pt x="406" y="501" on="1"/>
        <pt x="406" y="592" on="1"/>
        <pt x="404" y="804" on="0"/>
        <pt x="390" y="804" on="1"/>
        <pt x="387" y="804" on="1"/>
        <pt x="349" y="716" on="0"/>
        <pt x="308" y="489" on="1"/>
        <pt x="296" y="356" on="0"/>
        <pt x="267" y="356" on="1"/>
        <pt x="252" y="356" on="1"/>
        <pt x="222" y="356" on="0"/>
        <pt x="166" y="624" on="1"/>
        <pt x="125" y="715" on="1"/>
        <pt x="116" y="715" on="1"/>
        <pt x="125" y="454" on="1"/>
        <pt x="122" y="10" on="1"/>
        <pt x="118" y="-22" on="0"/>
        <pt x="91" y="-22" on="1"/>
        <pt x="63" y="-16" on="0"/>
        <pt x="63" y="4" on="1"/>
        <pt x="66" y="476" on="1"/>
        <pt x="66" y="698" on="0"/>
        <pt x="31" y="926" on="1"/>
        <pt x="31" y="949" on="0"/>
      </contour>
    </TTGlyph>
    <TTGlyph name="N" xMin="76" yMin="-41" xMax="410" yMax="923">
      <contour>
        <pt x="123" y="923" on="1"/>
        <pt x="150" y="923" on="0"/>
        <pt x="164" y="782" on="1"/>
        <pt x="237" y="363" on="0"/>
        <pt x="315" y="149" on="1"/>
        <pt x="321" y="149" on="1"/>
        <pt x="350" y="572" on="0"/>
        <pt x="350" y="816" on="1"/>
        <pt x="350" y="826" on="1"/>
        <pt x="350" y="858" on="0"/>
        <pt x="344" y="858" on="1"/>
        <pt x="354" y="892" on="0"/>
        <pt x="379" y="892" on="1"/>
        <pt x="410" y="892" on="0"/>
        <pt x="410" y="830" on="1"/>
        <pt x="410" y="807" on="1"/>
        <pt x="390" y="-5" on="0"/>
        <pt x="353" y="-5" on="1"/>
        <pt x="337" y="-12" on="1"/>
        <pt x="309" y="-12" on="0"/>
        <pt x="277" y="89" on="1"/>
        <pt x="224" y="211" on="0"/>
        <pt x="161" y="496" on="1"/>
        <pt x="144" y="593" on="0"/>
        <pt x="136" y="593" on="1"/>
        <pt x="136" y="587" on="1"/>
        <pt x="139" y="363" on="1"/>
        <pt x="139" y="101" on="0"/>
        <pt x="139" y="34" on="1"/>
        <pt x="139" y="-16" on="1"/>
        <pt x="139" y="-41" on="0"/>
        <pt x="110" y="-41" on="1"/>
        <pt x="78" y="-41" on="0"/>
        <pt x="78" y="8" on="1"/>
        <pt x="78" y="40" on="1"/>
        <pt x="78" y="93" on="0"/>
        <pt x="79" y="356" on="1"/>
        <pt x="76" y="612" on="1"/>
        <pt x="76" y="921" on="0"/>
        <pt x="104" y="921" on="1"/>
      </contour>
    </TTGlyph>
    <TTGlyph name="Nacute" xMin="76" yMin="-41" xMax="410" yMax="1362">
      <contour>
        <pt x="123" y="923" on="1"/>
        <pt x="150" y="923" on="0"/>
        <pt x="164" y="782" on="1"/>
        <pt x="237" y="363" on="0"/>
        <pt x="315" y="149" on="1"/>
        <pt x="321" y="149" on="1"/>
        <pt x="350" y="572" on="0"/>
        <pt x="350" y="816" on="1"/>
        <pt x="350" y="826" on="1"/>
        <pt x="350" y="858" on="0"/>
        <pt x="344" y="858" on="1"/>
        <pt x="354" y="892" on="0"/>
        <pt x="379" y="892" on="1"/>
        <pt x="410" y="892" on="0"/>
        <pt x="410" y="830" on="1"/>
        <pt x="410" y="807" on="1"/>
        <pt x="390" y="-5" on="0"/>
        <pt x="353" y="-5" on="1"/>
        <pt x="337" y="-12" on="1"/>
        <pt x="309" y="-12" on="0"/>
        <pt x="277" y="89" on="1"/>
        <pt x="224" y="211" on="0"/>
        <pt x="161" y="496" on="1"/>
        <pt x="144" y="593" on="0"/>
        <pt x="136" y="593" on="1"/>
        <pt x="136" y="587" on="1"/>
        <pt x="139" y="363" on="1"/>
        <pt x="139" y="101" on="0"/>
        <pt x="139" y="34" on="1"/>
        <pt x="139" y="-16" on="1"/>
        <pt x="139" y="-41" on="0"/>
        <pt x="110" y="-41" on="1"/>
        <pt x="78" y="-41" on="0"/>
        <pt x="78" y="8" on="1"/>
        <pt x="78" y="40" on="1"/>
        <pt x="78" y="93" on="0"/>
        <pt x="79" y="356" on="1"/>
        <pt x="76" y="612" on="1"/>
        <pt x="76" y="921" on="0"/>
        <pt x="104" y="921" on="1"/>
      </contour>
      <contour>
        <pt x="292" y="1362" on="1"/>
        <pt x="323" y="1354" on="0"/>
        <pt x="323" y="1330" on="1"/>
        <pt x="323" y="1319" on="0"/>
        <pt x="203" y="1214" on="1"/>
        <pt x="152" y="1163" on="0"/>
        <pt x="144" y="1163" on="1"/>
        <pt x="112" y="1172" on="0"/>
        <pt x="112" y="1198" on="1"/>
        <pt x="264" y="1362" on="0"/>
      </contour>
    </TTGlyph>
    <TTGlyph name="Ncaron" xMin="76" yMin="-41" xMax="410" yMax="1225">
      <contour>
        <pt x="123" y="923" on="1"/>
        <pt x="150" y="923" on="0"/>
        <pt x="164" y="782" on="1"/>
        <pt x="237" y="363" on="0"/>
        <pt x="315" y="149" on="1"/>
        <pt x="321" y="149" on="1"/>
        <pt x="350" y="572" on="0"/>
        <pt x="350" y="816" on="1"/>
        <pt x="350" y="826" on="1"/>
        <pt x="350" y="858" on="0"/>
        <pt x="344" y="858" on="1"/>
        <pt x="354" y="892" on="0"/>
        <pt x="379" y="892" on="1"/>
        <pt x="410" y="892" on="0"/>
        <pt x="410" y="830" on="1"/>
        <pt x="410" y="807" on="1"/>
        <pt x="390" y="-5" on="0"/>
        <pt x="353" y="-5" on="1"/>
        <pt x="337" y="-12" on="1"/>
        <pt x="309" y="-12" on="0"/>
        <pt x="277" y="89" on="1"/>
        <pt x="224" y="211" on="0"/>
        <pt x="161" y="496" on="1"/>
        <pt x="144" y="593" on="0"/>
        <pt x="136" y="593" on="1"/>
        <pt x="136" y="587" on="1"/>
        <pt x="139" y="363" on="1"/>
        <pt x="139" y="101" on="0"/>
        <pt x="139" y="34" on="1"/>
        <pt x="139" y="-16" on="1"/>
        <pt x="139" y="-41" on="0"/>
        <pt x="110" y="-41" on="1"/>
        <pt x="78" y="-41" on="0"/>
        <pt x="78" y="8" on="1"/>
        <pt x="78" y="40" on="1"/>
        <pt x="78" y="93" on="0"/>
        <pt x="79" y="356" on="1"/>
        <pt x="76" y="612" on="1"/>
        <pt x="76" y="921" on="0"/>
        <pt x="104" y="921" on="1"/>
      </contour>
      <contour>
        <pt x="350" y="1200" on="1"/>
        <pt x="350" y="1188" on="0"/>
        <pt x="253" y="1039" on="1"/>
        <pt x="240" y="1030" on="0"/>
        <pt x="225" y="1030" on="1"/>
        <pt x="218" y="1030" on="0"/>
        <pt x="167" y="1099" on="1"/>
        <pt x="108" y="1147" on="0"/>
        <pt x="108" y="1168" on="1"/>
        <pt x="116" y="1193" on="0"/>
        <pt x="137" y="1193" on="1"/>
        <pt x="139" y="1193" on="1"/>
        <pt x="154" y="1193" on="0"/>
        <pt x="228" y="1118" on="1"/>
        <pt x="234" y="1118" on="1"/>
        <pt x="298" y="1225" on="0"/>
        <pt x="319" y="1225" on="1"/>
        <pt x="322" y="1225" on="1"/>
        <pt x="337" y="1225" on="0"/>
      </contour>
    </TTGlyph>
    <TTGlyph name="Ncommaaccent" xMin="76" yMin="-271" xMax="410" yMax="923">
      <contour>
        <pt x="123" y="923" on="1"/>
        <pt x="150" y="923" on="0"/>
        <pt x="164" y="782" on="1"/>
        <pt x="237" y="363" on="0"/>
        <pt x="315" y="149" on="1"/>
        <pt x="321" y="149" on="1"/>
        <pt x="350" y="572" on="0"/>
        <pt x="350" y="816" on="1"/>
        <pt x="350" y="826" on="1"/>
        <pt x="350" y="858" on="0"/>
        <pt x="344" y="858" on="1"/>
        <pt x="354" y="892" on="0"/>
        <pt x="379" y="892" on="1"/>
        <pt x="410" y="892" on="0"/>
        <pt x="410" y="830" on="1"/>
        <pt x="410" y="807" on="1"/>
        <pt x="390" y="-5" on="0"/>
        <pt x="353" y="-5" on="1"/>
        <pt x="337" y="-12" on="1"/>
        <pt x="309" y="-12" on="0"/>
        <pt x="277" y="89" on="1"/>
        <pt x="224" y="211" on="0"/>
        <pt x="161" y="496" on="1"/>
        <pt x="144" y="593" on="0"/>
        <pt x="136" y="593" on="1"/>
        <pt x="136" y="587" on="1"/>
        <pt x="139" y="363" on="1"/>
        <pt x="139" y="101" on="0"/>
        <pt x="139" y="34" on="1"/>
        <pt x="139" y="-16" on="1"/>
        <pt x="139" y="-41" on="0"/>
        <pt x="110" y="-41" on="1"/>
        <pt x="78" y="-41" on="0"/>
        <pt x="78" y="8" on="1"/>
        <pt x="78" y="40" on="1"/>
        <pt x="78" y="93" on="0"/>
        <pt x="79" y="356" on="1"/>
        <pt x="76" y="612" on="1"/>
        <pt x="76" y="921" on="0"/>
        <pt x="104" y="921" on="1"/>
      </contour>
      <contour>
        <pt x="225" y="-86" on="1"/>
        <pt x="280" y="-99" on="0"/>
        <pt x="269" y="-177" on="1"/>
        <pt x="240" y="-245" on="0"/>
        <pt x="184" y="-271" on="1"/>
        <pt x="155" y="-260" on="0"/>
        <pt x="155" y="-239" on="1"/>
        <pt x="244" y="-183" on="0"/>
        <pt x="190" y="-136" on="1"/>
        <pt x="190" y="-86" on="0"/>
      </contour>
    </TTGlyph>
    <TTGlyph name="Ntilde" xMin="76" yMin="-41" xMax="410" yMax="1086">
      <contour>
        <pt x="123" y="923" on="1"/>
        <pt x="150" y="923" on="0"/>
        <pt x="164" y="782" on="1"/>
        <pt x="237" y="363" on="0"/>
        <pt x="315" y="149" on="1"/>
        <pt x="321" y="149" on="1"/>
        <pt x="350" y="572" on="0"/>
        <pt x="350" y="816" on="1"/>
        <pt x="350" y="826" on="1"/>
        <pt x="350" y="858" on="0"/>
        <pt x="344" y="858" on="1"/>
        <pt x="354" y="892" on="0"/>
        <pt x="379" y="892" on="1"/>
        <pt x="410" y="892" on="0"/>
        <pt x="410" y="830" on="1"/>
        <pt x="410" y="807" on="1"/>
        <pt x="390" y="-5" on="0"/>
        <pt x="353" y="-5" on="1"/>
        <pt x="337" y="-12" on="1"/>
        <pt x="309" y="-12" on="0"/>
        <pt x="277" y="89" on="1"/>
        <pt x="224" y="211" on="0"/>
        <pt x="161" y="496" on="1"/>
        <pt x="144" y="593" on="0"/>
        <pt x="136" y="593" on="1"/>
        <pt x="136" y="587" on="1"/>
        <pt x="139" y="363" on="1"/>
        <pt x="139" y="101" on="0"/>
        <pt x="139" y="34" on="1"/>
        <pt x="139" y="-16" on="1"/>
        <pt x="139" y="-41" on="0"/>
        <pt x="110" y="-41" on="1"/>
        <pt x="78" y="-41" on="0"/>
        <pt x="78" y="8" on="1"/>
        <pt x="78" y="40" on="1"/>
        <pt x="78" y="93" on="0"/>
        <pt x="79" y="356" on="1"/>
        <pt x="76" y="612" on="1"/>
        <pt x="76" y="921" on="0"/>
        <pt x="104" y="921" on="1"/>
      </contour>
      <contour>
        <pt x="378" y="1086" on="1"/>
        <pt x="407" y="1079" on="0"/>
        <pt x="407" y="1037" on="1"/>
        <pt x="398" y="967" on="0"/>
        <pt x="344" y="967" on="1"/>
        <pt x="340" y="967" on="1"/>
        <pt x="303" y="973" on="0"/>
        <pt x="198" y="1014" on="1"/>
        <pt x="170" y="1017" on="1"/>
        <pt x="154" y="1011" on="0"/>
        <pt x="154" y="995" on="1"/>
        <pt x="154" y="993" on="1"/>
        <pt x="157" y="989" on="1"/>
        <pt x="147" y="955" on="0"/>
        <pt x="116" y="955" on="1"/>
        <pt x="113" y="955" on="1"/>
        <pt x="86" y="955" on="0"/>
        <pt x="78" y="993" on="1"/>
        <pt x="121" y="1077" on="0"/>
        <pt x="180" y="1077" on="1"/>
        <pt x="206" y="1077" on="0"/>
        <pt x="334" y="1027" on="1"/>
        <pt x="340" y="1027" on="1"/>
        <pt x="346" y="1027" on="0"/>
        <pt x="346" y="1037" on="1"/>
        <pt x="344" y="1058" on="1"/>
        <pt x="344" y="1080" on="0"/>
      </contour>
    </TTGlyph>
    <TTGlyph name="O" xMin="22" yMin="-28" xMax="388" yMax="854">
      <contour>
        <pt x="157" y="854" on="1"/>
        <pt x="291" y="854" on="0"/>
        <pt x="373" y="479" on="1"/>
        <pt x="384" y="401" on="0"/>
        <pt x="388" y="319" on="1"/>
        <pt x="388" y="76" on="0"/>
        <pt x="259" y="-9" on="1"/>
        <pt x="208" y="-28" on="0"/>
        <pt x="180" y="-28" on="1"/>
        <pt x="74" y="-28" on="0"/>
        <pt x="39" y="142" on="1"/>
        <pt x="22" y="207" on="0"/>
        <pt x="22" y="293" on="1"/>
        <pt x="22" y="309" on="1"/>
        <pt x="22" y="542" on="0"/>
        <pt x="102" y="806" on="1"/>
        <pt x="102" y="816" on="1"/>
        <pt x="98" y="819" on="1"/>
        <pt x="109" y="854" on="0"/>
      </contour>
      <contour>
        <pt x="161" y="795" on="1"/>
        <pt x="82" y="565" on="0"/>
        <pt x="82" y="309" on="1"/>
        <pt x="82" y="300" on="1"/>
        <pt x="82" y="79" on="0"/>
        <pt x="155" y="39" on="1"/>
        <pt x="180" y="32" on="1"/>
        <pt x="190" y="32" on="1"/>
        <pt x="278" y="32" on="0"/>
        <pt x="315" y="190" on="1"/>
        <pt x="325" y="230" on="0"/>
        <pt x="325" y="283" on="1"/>
        <pt x="325" y="341" on="1"/>
        <pt x="325" y="583" on="0"/>
        <pt x="199" y="772" on="1"/>
        <pt x="175" y="795" on="0"/>
      </contour>
    </TTGlyph>
    <TTGlyph name="OE" xMin="41" yMin="8" xMax="657" yMax="933">
      <contour>
        <pt x="357" y="933" on="1"/>
        <pt x="382" y="933" on="0"/>
        <pt x="386" y="898" on="1"/>
        <pt x="383" y="898" on="1"/>
        <pt x="386" y="889" on="1"/>
        <pt x="420" y="889" on="0"/>
        <pt x="575" y="910" on="1"/>
        <pt x="600" y="901" on="0"/>
        <pt x="600" y="881" on="1"/>
        <pt x="600" y="850" on="0"/>
        <pt x="464" y="842" on="1"/>
        <pt x="377" y="831" on="1"/>
        <pt x="377" y="789" on="1"/>
        <pt x="377" y="745" on="0"/>
        <pt x="415" y="434" on="1"/>
        <pt x="544" y="434" on="1"/>
        <pt x="569" y="434" on="0"/>
        <pt x="575" y="408" on="1"/>
        <pt x="575" y="378" on="0"/>
        <pt x="528" y="378" on="1"/>
        <pt x="415" y="378" on="1"/>
        <pt x="415" y="375" on="1"/>
        <pt x="411" y="182" on="1"/>
        <pt x="411" y="113" on="0"/>
        <pt x="427" y="81" on="1"/>
        <pt x="625" y="93" on="1"/>
        <pt x="657" y="89" on="0"/>
        <pt x="657" y="67" on="1"/>
        <pt x="657" y="38" on="0"/>
        <pt x="588" y="38" on="1"/>
        <pt x="409" y="27" on="0"/>
        <pt x="409" y="20" on="1"/>
        <pt x="373" y="20" on="0"/>
        <pt x="358" y="114" on="1"/>
        <pt x="328" y="59" on="0"/>
        <pt x="280" y="28" on="1"/>
        <pt x="229" y="8" on="0"/>
        <pt x="201" y="8" on="1"/>
        <pt x="93" y="8" on="0"/>
        <pt x="57" y="184" on="1"/>
        <pt x="41" y="250" on="0"/>
        <pt x="41" y="339" on="1"/>
        <pt x="41" y="355" on="1"/>
        <pt x="41" y="596" on="0"/>
        <pt x="121" y="868" on="1"/>
        <pt x="121" y="878" on="1"/>
        <pt x="118" y="881" on="1"/>
        <pt x="129" y="917" on="0"/>
        <pt x="178" y="917" on="1"/>
        <pt x="256" y="917" on="0"/>
        <pt x="317" y="783" on="1"/>
        <pt x="317" y="789" on="1"/>
        <pt x="317" y="818" on="1"/>
        <pt x="317" y="933" on="0"/>
        <pt x="355" y="933" on="1"/>
      </contour>
      <contour>
        <pt x="181" y="831" on="1"/>
        <pt x="102" y="601" on="0"/>
        <pt x="102" y="346" on="1"/>
        <pt x="102" y="337" on="1"/>
        <pt x="102" y="116" on="0"/>
        <pt x="175" y="75" on="1"/>
        <pt x="199" y="68" on="1"/>
        <pt x="209" y="68" on="1"/>
        <pt x="298" y="68" on="0"/>
        <pt x="335" y="226" on="1"/>
        <pt x="345" y="267" on="0"/>
        <pt x="345" y="320" on="1"/>
        <pt x="345" y="377" on="1"/>
        <pt x="345" y="620" on="0"/>
        <pt x="219" y="808" on="1"/>
        <pt x="194" y="831" on="0"/>
      </contour>
    </TTGlyph>
    <TTGlyph name="Oacute" xMin="22" yMin="-28" xMax="388" yMax="1031">
      <contour>
        <pt x="157" y="854" on="1"/>
        <pt x="291" y="854" on="0"/>
        <pt x="373" y="479" on="1"/>
        <pt x="384" y="401" on="0"/>
        <pt x="388" y="319" on="1"/>
        <pt x="388" y="76" on="0"/>
        <pt x="259" y="-9" on="1"/>
        <pt x="208" y="-28" on="0"/>
        <pt x="180" y="-28" on="1"/>
        <pt x="74" y="-28" on="0"/>
        <pt x="39" y="142" on="1"/>
        <pt x="22" y="207" on="0"/>
        <pt x="22" y="293" on="1"/>
        <pt x="22" y="309" on="1"/>
        <pt x="22" y="542" on="0"/>
        <pt x="102" y="806" on="1"/>
        <pt x="102" y="816" on="1"/>
        <pt x="98" y="819" on="1"/>
        <pt x="109" y="854" on="0"/>
      </contour>
      <contour>
        <pt x="161" y="795" on="1"/>
        <pt x="82" y="565" on="0"/>
        <pt x="82" y="309" on="1"/>
        <pt x="82" y="300" on="1"/>
        <pt x="82" y="79" on="0"/>
        <pt x="155" y="39" on="1"/>
        <pt x="180" y="32" on="1"/>
        <pt x="190" y="32" on="1"/>
        <pt x="278" y="32" on="0"/>
        <pt x="315" y="190" on="1"/>
        <pt x="325" y="230" on="0"/>
        <pt x="325" y="283" on="1"/>
        <pt x="325" y="341" on="1"/>
        <pt x="325" y="583" on="0"/>
        <pt x="199" y="772" on="1"/>
        <pt x="175" y="795" on="0"/>
      </contour>
      <contour>
        <pt x="206" y="1031" on="1"/>
        <pt x="238" y="1023" on="0"/>
        <pt x="238" y="1000" on="1"/>
        <pt x="238" y="990" on="0"/>
        <pt x="118" y="883" on="1"/>
        <pt x="67" y="833" on="0"/>
        <pt x="58" y="833" on="1"/>
        <pt x="27" y="841" on="0"/>
        <pt x="27" y="868" on="1"/>
        <pt x="178" y="1031" on="0"/>
      </contour>
    </TTGlyph>
    <TTGlyph name="Obreve" xMin="22" yMin="-28" xMax="388" yMax="1097">
      <contour>
        <pt x="157" y="854" on="1"/>
        <pt x="291" y="854" on="0"/>
        <pt x="373" y="479" on="1"/>
        <pt x="384" y="401" on="0"/>
        <pt x="388" y="319" on="1"/>
        <pt x="388" y="76" on="0"/>
        <pt x="259" y="-9" on="1"/>
        <pt x="208" y="-28" on="0"/>
        <pt x="180" y="-28" on="1"/>
        <pt x="74" y="-28" on="0"/>
        <pt x="39" y="142" on="1"/>
        <pt x="22" y="207" on="0"/>
        <pt x="22" y="293" on="1"/>
        <pt x="22" y="309" on="1"/>
        <pt x="22" y="542" on="0"/>
        <pt x="102" y="806" on="1"/>
        <pt x="102" y="816" on="1"/>
        <pt x="98" y="819" on="1"/>
        <pt x="109" y="854" on="0"/>
      </contour>
      <contour>
        <pt x="161" y="795" on="1"/>
        <pt x="82" y="565" on="0"/>
        <pt x="82" y="309" on="1"/>
        <pt x="82" y="300" on="1"/>
        <pt x="82" y="79" on="0"/>
        <pt x="155" y="39" on="1"/>
        <pt x="180" y="32" on="1"/>
        <pt x="190" y="32" on="1"/>
        <pt x="278" y="32" on="0"/>
        <pt x="315" y="190" on="1"/>
        <pt x="325" y="230" on="0"/>
        <pt x="325" y="283" on="1"/>
        <pt x="325" y="341" on="1"/>
        <pt x="325" y="583" on="0"/>
        <pt x="199" y="772" on="1"/>
        <pt x="175" y="795" on="0"/>
      </contour>
      <contour>
        <pt x="320" y="1072" on="1"/>
        <pt x="205" y="930" on="0"/>
        <pt x="56" y="1039" on="0"/>
        <pt x="56" y="1062" on="1"/>
        <pt x="65" y="1086" on="0"/>
        <pt x="85" y="1086" on="1"/>
        <pt x="87" y="1086" on="1"/>
        <pt x="174" y="985" on="0"/>
        <pt x="267" y="1097" on="0"/>
        <pt x="289" y="1097" on="1"/>
        <pt x="292" y="1097" on="1"/>
        <pt x="307" y="1097" on="0"/>
      </contour>
    </TTGlyph>
    <TTGlyph name="Ocircumflex" xMin="22" yMin="-28" xMax="388" yMax="1044">
      <contour>
        <pt x="157" y="854" on="1"/>
        <pt x="291" y="854" on="0"/>
        <pt x="373" y="479" on="1"/>
        <pt x="384" y="401" on="0"/>
        <pt x="388" y="319" on="1"/>
        <pt x="388" y="76" on="0"/>
        <pt x="259" y="-9" on="1"/>
        <pt x="208" y="-28" on="0"/>
        <pt x="180" y="-28" on="1"/>
        <pt x="74" y="-28" on="0"/>
        <pt x="39" y="142" on="1"/>
        <pt x="22" y="207" on="0"/>
        <pt x="22" y="293" on="1"/>
        <pt x="22" y="309" on="1"/>
        <pt x="22" y="542" on="0"/>
        <pt x="102" y="806" on="1"/>
        <pt x="102" y="816" on="1"/>
        <pt x="98" y="819" on="1"/>
        <pt x="109" y="854" on="0"/>
      </contour>
      <contour>
        <pt x="161" y="795" on="1"/>
        <pt x="82" y="565" on="0"/>
        <pt x="82" y="309" on="1"/>
        <pt x="82" y="300" on="1"/>
        <pt x="82" y="79" on="0"/>
        <pt x="155" y="39" on="1"/>
        <pt x="180" y="32" on="1"/>
        <pt x="190" y="32" on="1"/>
        <pt x="278" y="32" on="0"/>
        <pt x="315" y="190" on="1"/>
        <pt x="325" y="230" on="0"/>
        <pt x="325" y="283" on="1"/>
        <pt x="325" y="341" on="1"/>
        <pt x="325" y="583" on="0"/>
        <pt x="199" y="772" on="1"/>
        <pt x="175" y="795" on="0"/>
      </contour>
      <contour>
        <pt x="22" y="882" on="1"/>
        <pt x="23" y="893" on="0"/>
        <pt x="130" y="1036" on="1"/>
        <pt x="143" y="1044" on="0"/>
        <pt x="159" y="1042" on="1"/>
        <pt x="166" y="1042" on="0"/>
        <pt x="211" y="969" on="1"/>
        <pt x="268" y="919" on="0"/>
        <pt x="266" y="896" on="1"/>
        <pt x="256" y="872" on="0"/>
        <pt x="236" y="874" on="1"/>
        <pt x="233" y="874" on="1"/>
        <pt x="219" y="875" on="0"/>
        <pt x="150" y="955" on="1"/>
        <pt x="144" y="956" on="1"/>
        <pt x="73" y="852" on="0"/>
        <pt x="51" y="854" on="1"/>
        <pt x="49" y="854" on="1"/>
        <pt x="33" y="855" on="0"/>
      </contour>
    </TTGlyph>
    <TTGlyph name="Odieresis" xMin="22" yMin="-28" xMax="388" yMax="976">
      <contour>
        <pt x="157" y="854" on="1"/>
        <pt x="291" y="854" on="0"/>
        <pt x="373" y="479" on="1"/>
        <pt x="384" y="401" on="0"/>
        <pt x="388" y="319" on="1"/>
        <pt x="388" y="76" on="0"/>
        <pt x="259" y="-9" on="1"/>
        <pt x="208" y="-28" on="0"/>
        <pt x="180" y="-28" on="1"/>
        <pt x="74" y="-28" on="0"/>
        <pt x="39" y="142" on="1"/>
        <pt x="22" y="207" on="0"/>
        <pt x="22" y="293" on="1"/>
        <pt x="22" y="309" on="1"/>
        <pt x="22" y="542" on="0"/>
        <pt x="102" y="806" on="1"/>
        <pt x="102" y="816" on="1"/>
        <pt x="98" y="819" on="1"/>
        <pt x="109" y="854" on="0"/>
      </contour>
      <contour>
        <pt x="161" y="795" on="1"/>
        <pt x="82" y="565" on="0"/>
        <pt x="82" y="309" on="1"/>
        <pt x="82" y="300" on="1"/>
        <pt x="82" y="79" on="0"/>
        <pt x="155" y="39" on="1"/>
        <pt x="180" y="32" on="1"/>
        <pt x="190" y="32" on="1"/>
        <pt x="278" y="32" on="0"/>
        <pt x="315" y="190" on="1"/>
        <pt x="325" y="230" on="0"/>
        <pt x="325" y="283" on="1"/>
        <pt x="325" y="341" on="1"/>
        <pt x="325" y="583" on="0"/>
        <pt x="199" y="772" on="1"/>
        <pt x="175" y="795" on="0"/>
      </contour>
      <contour>
        <pt x="111" y="976" on="1"/>
        <pt x="132" y="976" on="0"/>
        <pt x="136" y="941" on="1"/>
        <pt x="130" y="910" on="0"/>
        <pt x="104" y="910" on="1"/>
        <pt x="78" y="910" on="0"/>
        <pt x="73" y="944" on="1"/>
        <pt x="85" y="976" on="0"/>
      </contour>
      <contour>
        <pt x="199" y="976" on="1"/>
        <pt x="224" y="967" on="0"/>
        <pt x="224" y="944" on="1"/>
        <pt x="224" y="922" on="0"/>
        <pt x="190" y="916" on="1"/>
        <pt x="170" y="916" on="0"/>
        <pt x="157" y="944" on="1"/>
        <pt x="157" y="974" on="0"/>
      </contour>
    </TTGlyph>
    <TTGlyph name="Ograve" xMin="25" yMin="-28" xMax="391" yMax="1034">
      <contour>
        <pt x="160" y="854" on="1"/>
        <pt x="293" y="854" on="0"/>
        <pt x="375" y="479" on="1"/>
        <pt x="387" y="401" on="0"/>
        <pt x="391" y="319" on="1"/>
        <pt x="391" y="76" on="0"/>
        <pt x="262" y="-9" on="1"/>
        <pt x="211" y="-28" on="0"/>
        <pt x="183" y="-28" on="1"/>
        <pt x="76" y="-28" on="0"/>
        <pt x="40" y="142" on="1"/>
        <pt x="25" y="207" on="0"/>
        <pt x="25" y="293" on="1"/>
        <pt x="25" y="309" on="1"/>
        <pt x="25" y="542" on="0"/>
        <pt x="104" y="806" on="1"/>
        <pt x="104" y="816" on="1"/>
        <pt x="101" y="819" on="1"/>
        <pt x="112" y="854" on="0"/>
      </contour>
      <contour>
        <pt x="164" y="795" on="1"/>
        <pt x="85" y="565" on="0"/>
        <pt x="85" y="309" on="1"/>
        <pt x="85" y="300" on="1"/>
        <pt x="85" y="79" on="0"/>
        <pt x="157" y="39" on="1"/>
        <pt x="183" y="32" on="1"/>
        <pt x="192" y="32" on="1"/>
        <pt x="281" y="32" on="0"/>
        <pt x="318" y="190" on="1"/>
        <pt x="328" y="230" on="0"/>
        <pt x="328" y="283" on="1"/>
        <pt x="328" y="341" on="1"/>
        <pt x="328" y="583" on="0"/>
        <pt x="202" y="772" on="1"/>
        <pt x="178" y="795" on="0"/>
      </contour>
      <contour>
        <pt x="154" y="1034" on="1"/>
        <pt x="184" y="1020" on="0"/>
        <pt x="242" y="932" on="1"/>
        <pt x="290" y="899" on="0"/>
        <pt x="290" y="886" on="1"/>
        <pt x="290" y="868" on="0"/>
        <pt x="258" y="854" on="1"/>
        <pt x="202" y="877" on="0"/>
        <pt x="122" y="999" on="1"/>
        <pt x="122" y="1005" on="1"/>
        <pt x="132" y="1034" on="0"/>
      </contour>
    </TTGlyph>
    <TTGlyph name="Ohungarumlaut" xMin="22" yMin="-28" xMax="388" yMax="1105">
      <contour>
        <pt x="157" y="854" on="1"/>
        <pt x="291" y="854" on="0"/>
        <pt x="373" y="479" on="1"/>
        <pt x="384" y="401" on="0"/>
        <pt x="388" y="319" on="1"/>
        <pt x="388" y="76" on="0"/>
        <pt x="259" y="-9" on="1"/>
        <pt x="208" y="-28" on="0"/>
        <pt x="180" y="-28" on="1"/>
        <pt x="74" y="-28" on="0"/>
        <pt x="39" y="142" on="1"/>
        <pt x="22" y="207" on="0"/>
        <pt x="22" y="293" on="1"/>
        <pt x="22" y="309" on="1"/>
        <pt x="22" y="542" on="0"/>
        <pt x="102" y="806" on="1"/>
        <pt x="102" y="816" on="1"/>
        <pt x="98" y="819" on="1"/>
        <pt x="109" y="854" on="0"/>
      </contour>
      <contour>
        <pt x="161" y="795" on="1"/>
        <pt x="82" y="565" on="0"/>
        <pt x="82" y="309" on="1"/>
        <pt x="82" y="300" on="1"/>
        <pt x="82" y="79" on="0"/>
        <pt x="155" y="39" on="1"/>
        <pt x="180" y="32" on="1"/>
        <pt x="190" y="32" on="1"/>
        <pt x="278" y="32" on="0"/>
        <pt x="315" y="190" on="1"/>
        <pt x="325" y="230" on="0"/>
        <pt x="325" y="283" on="1"/>
        <pt x="325" y="341" on="1"/>
        <pt x="325" y="583" on="0"/>
        <pt x="199" y="772" on="1"/>
        <pt x="175" y="795" on="0"/>
      </contour>
      <contour>
        <pt x="240" y="1105" on="1"/>
        <pt x="272" y="1097" on="0"/>
        <pt x="272" y="1074" on="1"/>
        <pt x="272" y="1064" on="0"/>
        <pt x="199" y="1001" on="1"/>
        <pt x="148" y="951" on="0"/>
        <pt x="139" y="951" on="1"/>
        <pt x="108" y="959" on="0"/>
        <pt x="108" y="985" on="1"/>
        <pt x="212" y="1105" on="0"/>
      </contour>
      <contour>
        <pt x="354" y="1083" on="1"/>
        <pt x="385" y="1075" on="0"/>
        <pt x="385" y="1051" on="1"/>
        <pt x="385" y="1040" on="0"/>
        <pt x="311" y="978" on="1"/>
        <pt x="261" y="928" on="0"/>
        <pt x="252" y="928" on="1"/>
        <pt x="220" y="936" on="0"/>
        <pt x="220" y="963" on="1"/>
        <pt x="325" y="1083" on="0"/>
      </contour>
    </TTGlyph>
    <TTGlyph name="Omacron" xMin="22" yMin="-28" xMax="388" yMax="1023">
      <contour>
        <pt x="157" y="854" on="1"/>
        <pt x="291" y="854" on="0"/>
        <pt x="373" y="479" on="1"/>
        <pt x="384" y="401" on="0"/>
        <pt x="388" y="319" on="1"/>
        <pt x="388" y="76" on="0"/>
        <pt x="259" y="-9" on="1"/>
        <pt x="208" y="-28" on="0"/>
        <pt x="180" y="-28" on="1"/>
        <pt x="74" y="-28" on="0"/>
        <pt x="39" y="142" on="1"/>
        <pt x="22" y="207" on="0"/>
        <pt x="22" y="293" on="1"/>
        <pt x="22" y="309" on="1"/>
        <pt x="22" y="542" on="0"/>
        <pt x="102" y="806" on="1"/>
        <pt x="102" y="816" on="1"/>
        <pt x="98" y="819" on="1"/>
        <pt x="109" y="854" on="0"/>
      </contour>
      <contour>
        <pt x="161" y="795" on="1"/>
        <pt x="82" y="565" on="0"/>
        <pt x="82" y="309" on="1"/>
        <pt x="82" y="300" on="1"/>
        <pt x="82" y="79" on="0"/>
        <pt x="155" y="39" on="1"/>
        <pt x="180" y="32" on="1"/>
        <pt x="190" y="32" on="1"/>
        <pt x="278" y="32" on="0"/>
        <pt x="315" y="190" on="1"/>
        <pt x="325" y="230" on="0"/>
        <pt x="325" y="283" on="1"/>
        <pt x="325" y="341" on="1"/>
        <pt x="325" y="583" on="0"/>
        <pt x="199" y="772" on="1"/>
        <pt x="175" y="795" on="0"/>
      </contour>
      <contour>
        <pt x="108" y="1015" on="1"/>
        <pt x="348" y="1023" on="0"/>
        <pt x="348" y="992" on="1"/>
        <pt x="352" y="982" on="1"/>
        <pt x="344" y="954" on="0"/>
        <pt x="326" y="954" on="1"/>
        <pt x="262" y="963" on="0"/>
        <pt x="111" y="956" on="1"/>
        <pt x="92" y="952" on="1"/>
        <pt x="70" y="952" on="0"/>
        <pt x="64" y="987" on="1"/>
        <pt x="64" y="1011" on="0"/>
      </contour>
    </TTGlyph>
    <TTGlyph name="Oslash" xMin="-98" yMin="-51" xMax="452" yMax="854">
      <contour>
        <pt x="420" y="805" on="1"/>
        <pt x="452" y="787" on="0"/>
        <pt x="344" y="591" on="1"/>
        <pt x="359" y="540" on="0"/>
        <pt x="373" y="479" on="1"/>
        <pt x="385" y="401" on="0"/>
        <pt x="388" y="319" on="1"/>
        <pt x="388" y="76" on="0"/>
        <pt x="259" y="-9" on="1"/>
        <pt x="209" y="-28" on="0"/>
        <pt x="181" y="-28" on="1"/>
        <pt x="85" y="-28" on="0"/>
        <pt x="47" y="108" on="1"/>
        <pt x="40" y="97" on="1"/>
        <pt x="-24" y="-27" on="1"/>
        <pt x="-39" y="-51" on="0"/>
        <pt x="-71" y="-39" on="1"/>
        <pt x="-98" y="-23" on="0"/>
        <pt x="-14" y="122" on="1"/>
        <pt x="30" y="192" on="1"/>
        <pt x="23" y="238" on="0"/>
        <pt x="23" y="293" on="1"/>
        <pt x="23" y="309" on="1"/>
        <pt x="23" y="542" on="0"/>
        <pt x="102" y="806" on="1"/>
        <pt x="102" y="816" on="1"/>
        <pt x="99" y="819" on="1"/>
        <pt x="109" y="854" on="0"/>
        <pt x="158" y="854" on="1"/>
        <pt x="250" y="854" on="0"/>
        <pt x="318" y="671" on="1"/>
        <pt x="347" y="730" on="0"/>
        <pt x="372" y="789" on="1"/>
        <pt x="386" y="814" on="0"/>
      </contour>
      <contour>
        <pt x="155" y="39" on="1"/>
        <pt x="181" y="32" on="1"/>
        <pt x="190" y="32" on="1"/>
        <pt x="278" y="32" on="0"/>
        <pt x="316" y="190" on="1"/>
        <pt x="325" y="230" on="0"/>
        <pt x="325" y="283" on="1"/>
        <pt x="325" y="341" on="1"/>
        <pt x="325" y="436" on="0"/>
        <pt x="305" y="524" on="1"/>
        <pt x="90" y="177" on="1"/>
        <pt x="105" y="66" on="0"/>
      </contour>
      <contour>
        <pt x="161" y="795" on="1"/>
        <pt x="83" y="565" on="0"/>
        <pt x="83" y="309" on="1"/>
        <pt x="83" y="300" on="1"/>
        <pt x="83" y="277" on="1"/>
        <pt x="239" y="530" on="1"/>
        <pt x="271" y="584" on="1"/>
        <pt x="276" y="594" on="0"/>
        <pt x="282" y="604" on="1"/>
        <pt x="252" y="693" on="0"/>
        <pt x="199" y="772" on="1"/>
        <pt x="175" y="795" on="0"/>
      </contour>
    </TTGlyph>
    <TTGlyph name="Oslashacute" xMin="8" yMin="-28" xMax="411" yMax="1148">
      <contour>
        <pt x="384" y="660" on="1"/>
        <pt x="411" y="645" on="0"/>
        <pt x="359" y="535" on="1"/>
        <pt x="366" y="508" on="0"/>
        <pt x="373" y="479" on="1"/>
        <pt x="384" y="401" on="0"/>
        <pt x="388" y="319" on="1"/>
        <pt x="388" y="76" on="0"/>
        <pt x="259" y="-9" on="1"/>
        <pt x="208" y="-28" on="0"/>
        <pt x="180" y="-28" on="1"/>
        <pt x="116" y="-28" on="0"/>
        <pt x="78" y="32" on="1"/>
        <pt x="75" y="25" on="1"/>
        <pt x="64" y="5" on="0"/>
        <pt x="32" y="20" on="1"/>
        <pt x="8" y="32" on="0"/>
        <pt x="46" y="110" on="1"/>
        <pt x="42" y="125" on="0"/>
        <pt x="39" y="142" on="1"/>
        <pt x="22" y="207" on="0"/>
        <pt x="22" y="293" on="1"/>
        <pt x="22" y="309" on="1"/>
        <pt x="22" y="542" on="0"/>
        <pt x="102" y="806" on="1"/>
        <pt x="102" y="816" on="1"/>
        <pt x="98" y="819" on="1"/>
        <pt x="109" y="854" on="0"/>
        <pt x="157" y="854" on="1"/>
        <pt x="260" y="854" on="0"/>
        <pt x="332" y="629" on="1"/>
        <pt x="337" y="640" on="0"/>
        <pt x="340" y="652" on="1"/>
        <pt x="350" y="670" on="0"/>
      </contour>
      <contour>
        <pt x="161" y="795" on="1"/>
        <pt x="82" y="565" on="0"/>
        <pt x="82" y="309" on="1"/>
        <pt x="82" y="300" on="1"/>
        <pt x="82" y="234" on="0"/>
        <pt x="88" y="184" on="1"/>
        <pt x="250" y="454" on="1"/>
        <pt x="272" y="495" on="1"/>
        <pt x="286" y="521" on="0"/>
        <pt x="299" y="548" on="1"/>
        <pt x="268" y="668" on="0"/>
        <pt x="199" y="772" on="1"/>
        <pt x="175" y="795" on="0"/>
      </contour>
      <contour>
        <pt x="155" y="39" on="1"/>
        <pt x="180" y="32" on="1"/>
        <pt x="190" y="32" on="1"/>
        <pt x="278" y="32" on="0"/>
        <pt x="315" y="190" on="1"/>
        <pt x="325" y="230" on="0"/>
        <pt x="325" y="283" on="1"/>
        <pt x="325" y="341" on="1"/>
        <pt x="325" y="399" on="0"/>
        <pt x="318" y="454" on="1"/>
        <pt x="316" y="450" on="1"/>
        <pt x="118" y="119" on="1"/>
        <pt x="108" y="98" on="1"/>
        <pt x="126" y="54" on="0"/>
      </contour>
      <contour>
        <pt x="258" y="1148" on="1"/>
        <pt x="290" y="1140" on="0"/>
        <pt x="290" y="1116" on="1"/>
        <pt x="290" y="1106" on="0"/>
        <pt x="170" y="1000" on="1"/>
        <pt x="119" y="949" on="0"/>
        <pt x="111" y="949" on="1"/>
        <pt x="78" y="958" on="0"/>
        <pt x="78" y="985" on="1"/>
        <pt x="230" y="1148" on="0"/>
      </contour>
    </TTGlyph>
    <TTGlyph name="Otilde" xMin="40" yMin="-5" xMax="410" yMax="1008">
      <contour>
        <pt x="181" y="877" on="1"/>
        <pt x="312" y="877" on="0"/>
        <pt x="394" y="501" on="1"/>
        <pt x="408" y="424" on="0"/>
        <pt x="410" y="341" on="1"/>
        <pt x="410" y="98" on="0"/>
        <pt x="281" y="13" on="1"/>
        <pt x="230" y="-5" on="0"/>
        <pt x="202" y="-5" on="1"/>
        <pt x="95" y="-5" on="0"/>
        <pt x="61" y="165" on="1"/>
        <pt x="45" y="229" on="0"/>
        <pt x="45" y="316" on="1"/>
        <pt x="45" y="332" on="1"/>
        <pt x="45" y="565" on="0"/>
        <pt x="123" y="830" on="1"/>
        <pt x="123" y="839" on="1"/>
        <pt x="121" y="842" on="1"/>
        <pt x="130" y="877" on="0"/>
      </contour>
      <contour>
        <pt x="184" y="816" on="1"/>
        <pt x="105" y="587" on="0"/>
        <pt x="105" y="332" on="1"/>
        <pt x="105" y="322" on="1"/>
        <pt x="105" y="103" on="0"/>
        <pt x="177" y="61" on="1"/>
        <pt x="202" y="54" on="1"/>
        <pt x="212" y="54" on="1"/>
        <pt x="301" y="54" on="0"/>
        <pt x="338" y="212" on="1"/>
        <pt x="347" y="253" on="0"/>
        <pt x="347" y="307" on="1"/>
        <pt x="347" y="363" on="1"/>
        <pt x="347" y="607" on="0"/>
        <pt x="221" y="795" on="1"/>
        <pt x="197" y="816" on="0"/>
      </contour>
      <contour>
        <pt x="339" y="1008" on="1"/>
        <pt x="367" y="1000" on="0"/>
        <pt x="367" y="958" on="1"/>
        <pt x="358" y="888" on="0"/>
        <pt x="304" y="888" on="1"/>
        <pt x="301" y="888" on="1"/>
        <pt x="265" y="895" on="0"/>
        <pt x="159" y="935" on="1"/>
        <pt x="130" y="939" on="1"/>
        <pt x="115" y="932" on="0"/>
        <pt x="115" y="917" on="1"/>
        <pt x="115" y="913" on="1"/>
        <pt x="118" y="911" on="1"/>
        <pt x="107" y="876" on="0"/>
        <pt x="77" y="876" on="1"/>
        <pt x="75" y="876" on="1"/>
        <pt x="48" y="876" on="0"/>
        <pt x="40" y="913" on="1"/>
        <pt x="81" y="998" on="0"/>
        <pt x="140" y="998" on="1"/>
        <pt x="166" y="998" on="0"/>
        <pt x="295" y="949" on="1"/>
        <pt x="301" y="949" on="1"/>
        <pt x="307" y="949" on="0"/>
        <pt x="307" y="958" on="1"/>
        <pt x="304" y="980" on="1"/>
        <pt x="304" y="1002" on="0"/>
      </contour>
    </TTGlyph>
    <TTGlyph name="P" xMin="20" yMin="-11" xMax="322" yMax="949">
      <contour>
        <pt x="167" y="949" on="1"/>
        <pt x="265" y="949" on="0"/>
        <pt x="316" y="827" on="1"/>
        <pt x="322" y="789" on="1"/>
        <pt x="322" y="675" on="0"/>
        <pt x="193" y="490" on="1"/>
        <pt x="150" y="448" on="0"/>
        <pt x="114" y="436" on="1"/>
        <pt x="117" y="408" on="1"/>
        <pt x="123" y="17" on="1"/>
        <pt x="123" y="-6" on="0"/>
        <pt x="92" y="-11" on="1"/>
        <pt x="64" y="-11" on="0"/>
        <pt x="64" y="27" on="1"/>
        <pt x="64" y="464" on="0"/>
        <pt x="45" y="464" on="1"/>
        <pt x="20" y="499" on="0"/>
        <pt x="20" y="517" on="1"/>
        <pt x="20" y="537" on="0"/>
        <pt x="51" y="543" on="1"/>
        <pt x="41" y="851" on="1"/>
        <pt x="41" y="927" on="0"/>
        <pt x="74" y="927" on="1"/>
        <pt x="92" y="924" on="1"/>
        <pt x="130" y="949" on="0"/>
      </contour>
      <contour>
        <pt x="105" y="855" on="1"/>
        <pt x="112" y="527" on="1"/>
        <pt x="114" y="505" on="1"/>
        <pt x="180" y="531" on="0"/>
        <pt x="243" y="704" on="1"/>
        <pt x="263" y="751" on="0"/>
        <pt x="263" y="798" on="1"/>
        <pt x="235" y="889" on="0"/>
        <pt x="175" y="889" on="1"/>
        <pt x="161" y="889" on="1"/>
        <pt x="129" y="889" on="0"/>
      </contour>
    </TTGlyph>
    <TTGlyph name="Q" xMin="33" yMin="-50" xMax="459" yMax="960">
      <contour>
        <pt x="235" y="960" on="1"/>
        <pt x="259" y="960" on="0"/>
        <pt x="264" y="913" on="1"/>
        <pt x="377" y="834" on="0"/>
        <pt x="421" y="680" on="1"/>
        <pt x="455" y="564" on="0"/>
        <pt x="455" y="457" on="1"/>
        <pt x="455" y="416" on="1"/>
        <pt x="455" y="267" on="0"/>
        <pt x="399" y="126" on="1"/>
        <pt x="399" y="88" on="0"/>
        <pt x="459" y="-20" on="1"/>
        <pt x="459" y="-38" on="0"/>
        <pt x="430" y="-50" on="1"/>
        <pt x="398" y="-50" on="0"/>
        <pt x="361" y="47" on="1"/>
        <pt x="355" y="47" on="1"/>
        <pt x="281" y="-32" on="0"/>
        <pt x="220" y="-32" on="1"/>
        <pt x="76" y="-32" on="0"/>
        <pt x="33" y="382" on="1"/>
        <pt x="33" y="400" on="1"/>
        <pt x="41" y="846" on="0"/>
        <pt x="182" y="939" on="1"/>
        <pt x="215" y="960" on="0"/>
      </contour>
      <contour>
        <pt x="93" y="407" on="1"/>
        <pt x="93" y="184" on="0"/>
        <pt x="188" y="44" on="1"/>
        <pt x="211" y="29" on="0"/>
        <pt x="229" y="29" on="1"/>
        <pt x="283" y="29" on="0"/>
        <pt x="336" y="136" on="1"/>
        <pt x="331" y="202" on="0"/>
        <pt x="273" y="309" on="1"/>
        <pt x="235" y="346" on="0"/>
        <pt x="235" y="355" on="1"/>
        <pt x="240" y="387" on="0"/>
        <pt x="264" y="387" on="1"/>
        <pt x="314" y="387" on="0"/>
        <pt x="371" y="239" on="1"/>
        <pt x="377" y="239" on="1"/>
        <pt x="399" y="337" on="0"/>
        <pt x="399" y="425" on="1"/>
        <pt x="399" y="731" on="0"/>
        <pt x="241" y="859" on="1"/>
        <pt x="203" y="879" on="1"/>
        <pt x="167" y="879" on="0"/>
        <pt x="118" y="693" on="1"/>
        <pt x="93" y="550" on="0"/>
      </contour>
    </TTGlyph>
    <TTGlyph name="R" xMin="33" yMin="-18" xMax="395" yMax="965">
      <contour>
        <pt x="238" y="960" on="1"/>
        <pt x="328" y="952" on="0"/>
        <pt x="346" y="796" on="1"/>
        <pt x="346" y="754" on="1"/>
        <pt x="334" y="629" on="0"/>
        <pt x="220" y="503" on="1"/>
        <pt x="242" y="456" on="0"/>
        <pt x="311" y="201" on="1"/>
        <pt x="395" y="9" on="1"/>
        <pt x="382" y="-18" on="0"/>
        <pt x="361" y="-15" on="1"/>
        <pt x="334" y="-14" on="0"/>
        <pt x="277" y="140" on="1"/>
        <pt x="238" y="217" on="0"/>
        <pt x="191" y="424" on="1"/>
        <pt x="179" y="460" on="0"/>
        <pt x="172" y="461" on="1"/>
        <pt x="105" y="426" on="1"/>
        <pt x="107" y="207" on="0"/>
        <pt x="123" y="13" on="1"/>
        <pt x="121" y="-3" on="0"/>
        <pt x="98" y="-16" on="1"/>
        <pt x="88" y="-15" on="1"/>
        <pt x="60" y="-13" on="0"/>
        <pt x="60" y="47" on="1"/>
        <pt x="33" y="594" on="0"/>
        <pt x="53" y="814" on="1"/>
        <pt x="33" y="832" on="0"/>
        <pt x="35" y="850" on="1"/>
        <pt x="36" y="857" on="0"/>
        <pt x="57" y="877" on="1"/>
        <pt x="60" y="918" on="0"/>
        <pt x="92" y="914" on="1"/>
        <pt x="107" y="907" on="1"/>
        <pt x="191" y="965" on="0"/>
      </contour>
      <contour>
        <pt x="113" y="837" on="1"/>
        <pt x="102" y="618" on="0"/>
        <pt x="106" y="496" on="1"/>
        <pt x="115" y="495" on="1"/>
        <pt x="213" y="541" on="0"/>
        <pt x="278" y="711" on="1"/>
        <pt x="285" y="754" on="1"/>
        <pt x="286" y="763" on="1"/>
        <pt x="295" y="854" on="0"/>
        <pt x="245" y="900" on="1"/>
        <pt x="229" y="901" on="1"/>
        <pt x="195" y="904" on="0"/>
      </contour>
    </TTGlyph>
    <TTGlyph name="Racute" xMin="33" yMin="-18" xMax="395" yMax="1214">
      <contour>
        <pt x="238" y="960" on="1"/>
        <pt x="328" y="952" on="0"/>
        <pt x="346" y="796" on="1"/>
        <pt x="346" y="754" on="1"/>
        <pt x="334" y="629" on="0"/>
        <pt x="220" y="503" on="1"/>
        <pt x="242" y="456" on="0"/>
        <pt x="311" y="201" on="1"/>
        <pt x="395" y="9" on="1"/>
        <pt x="382" y="-18" on="0"/>
        <pt x="361" y="-15" on="1"/>
        <pt x="334" y="-14" on="0"/>
        <pt x="277" y="140" on="1"/>
        <pt x="238" y="217" on="0"/>
        <pt x="191" y="424" on="1"/>
        <pt x="179" y="460" on="0"/>
        <pt x="172" y="461" on="1"/>
        <pt x="105" y="426" on="1"/>
        <pt x="107" y="207" on="0"/>
        <pt x="123" y="13" on="1"/>
        <pt x="121" y="-3" on="0"/>
        <pt x="98" y="-16" on="1"/>
        <pt x="88" y="-15" on="1"/>
        <pt x="60" y="-13" on="0"/>
        <pt x="60" y="47" on="1"/>
        <pt x="33" y="594" on="0"/>
        <pt x="53" y="814" on="1"/>
        <pt x="33" y="832" on="0"/>
        <pt x="35" y="850" on="1"/>
        <pt x="36" y="857" on="0"/>
        <pt x="57" y="877" on="1"/>
        <pt x="60" y="918" on="0"/>
        <pt x="92" y="914" on="1"/>
        <pt x="107" y="907" on="1"/>
        <pt x="191" y="965" on="0"/>
      </contour>
      <contour>
        <pt x="113" y="837" on="1"/>
        <pt x="102" y="618" on="0"/>
        <pt x="106" y="496" on="1"/>
        <pt x="115" y="495" on="1"/>
        <pt x="213" y="541" on="0"/>
        <pt x="278" y="711" on="1"/>
        <pt x="285" y="754" on="1"/>
        <pt x="286" y="763" on="1"/>
        <pt x="295" y="854" on="0"/>
        <pt x="245" y="900" on="1"/>
        <pt x="229" y="901" on="1"/>
        <pt x="195" y="904" on="0"/>
      </contour>
      <contour>
        <pt x="256" y="1214" on="1"/>
        <pt x="287" y="1206" on="0"/>
        <pt x="287" y="1183" on="1"/>
        <pt x="287" y="1173" on="0"/>
        <pt x="167" y="1066" on="1"/>
        <pt x="116" y="1015" on="0"/>
        <pt x="108" y="1015" on="1"/>
        <pt x="76" y="1024" on="0"/>
        <pt x="76" y="1050" on="1"/>
        <pt x="228" y="1214" on="0"/>
      </contour>
    </TTGlyph>
    <TTGlyph name="Rcaron" xMin="33" yMin="-18" xMax="395" yMax="1209">
      <contour>
        <pt x="238" y="960" on="1"/>
        <pt x="328" y="952" on="0"/>
        <pt x="346" y="796" on="1"/>
        <pt x="346" y="754" on="1"/>
        <pt x="334" y="629" on="0"/>
        <pt x="220" y="503" on="1"/>
        <pt x="242" y="456" on="0"/>
        <pt x="311" y="201" on="1"/>
        <pt x="395" y="9" on="1"/>
        <pt x="382" y="-18" on="0"/>
        <pt x="361" y="-15" on="1"/>
        <pt x="334" y="-14" on="0"/>
        <pt x="277" y="140" on="1"/>
        <pt x="238" y="217" on="0"/>
        <pt x="191" y="424" on="1"/>
        <pt x="179" y="460" on="0"/>
        <pt x="172" y="461" on="1"/>
        <pt x="105" y="426" on="1"/>
        <pt x="107" y="207" on="0"/>
        <pt x="123" y="13" on="1"/>
        <pt x="121" y="-3" on="0"/>
        <pt x="98" y="-16" on="1"/>
        <pt x="88" y="-15" on="1"/>
        <pt x="60" y="-13" on="0"/>
        <pt x="60" y="47" on="1"/>
        <pt x="33" y="594" on="0"/>
        <pt x="53" y="814" on="1"/>
        <pt x="33" y="832" on="0"/>
        <pt x="35" y="850" on="1"/>
        <pt x="36" y="857" on="0"/>
        <pt x="57" y="877" on="1"/>
        <pt x="60" y="918" on="0"/>
        <pt x="92" y="914" on="1"/>
        <pt x="107" y="907" on="1"/>
        <pt x="191" y="965" on="0"/>
      </contour>
      <contour>
        <pt x="113" y="837" on="1"/>
        <pt x="102" y="618" on="0"/>
        <pt x="106" y="496" on="1"/>
        <pt x="115" y="495" on="1"/>
        <pt x="213" y="541" on="0"/>
        <pt x="278" y="711" on="1"/>
        <pt x="285" y="754" on="1"/>
        <pt x="286" y="763" on="1"/>
        <pt x="295" y="854" on="0"/>
        <pt x="245" y="900" on="1"/>
        <pt x="229" y="901" on="1"/>
        <pt x="195" y="904" on="0"/>
      </contour>
      <contour>
        <pt x="303" y="1184" on="1"/>
        <pt x="303" y="1173" on="0"/>
        <pt x="205" y="1023" on="1"/>
        <pt x="193" y="1013" on="0"/>
        <pt x="177" y="1013" on="1"/>
        <pt x="170" y="1013" on="0"/>
        <pt x="121" y="1083" on="1"/>
        <pt x="61" y="1130" on="0"/>
        <pt x="61" y="1152" on="1"/>
        <pt x="69" y="1178" on="0"/>
        <pt x="89" y="1178" on="1"/>
        <pt x="92" y="1178" on="1"/>
        <pt x="107" y="1178" on="0"/>
        <pt x="181" y="1102" on="1"/>
        <pt x="187" y="1102" on="1"/>
        <pt x="250" y="1209" on="0"/>
        <pt x="272" y="1209" on="1"/>
        <pt x="274" y="1209" on="1"/>
        <pt x="291" y="1209" on="0"/>
      </contour>
    </TTGlyph>
    <TTGlyph name="Rcommaaccent" xMin="33" yMin="-271" xMax="395" yMax="965">
      <contour>
        <pt x="238" y="960" on="1"/>
        <pt x="328" y="952" on="0"/>
        <pt x="346" y="796" on="1"/>
        <pt x="346" y="754" on="1"/>
        <pt x="334" y="629" on="0"/>
        <pt x="220" y="503" on="1"/>
        <pt x="242" y="456" on="0"/>
        <pt x="311" y="201" on="1"/>
        <pt x="395" y="9" on="1"/>
        <pt x="382" y="-18" on="0"/>
        <pt x="361" y="-15" on="1"/>
        <pt x="334" y="-14" on="0"/>
        <pt x="277" y="140" on="1"/>
        <pt x="238" y="217" on="0"/>
        <pt x="191" y="424" on="1"/>
        <pt x="179" y="460" on="0"/>
        <pt x="172" y="461" on="1"/>
        <pt x="105" y="426" on="1"/>
        <pt x="107" y="207" on="0"/>
        <pt x="123" y="13" on="1"/>
        <pt x="121" y="-3" on="0"/>
        <pt x="98" y="-16" on="1"/>
        <pt x="88" y="-15" on="1"/>
        <pt x="60" y="-13" on="0"/>
        <pt x="60" y="47" on="1"/>
        <pt x="33" y="594" on="0"/>
        <pt x="53" y="814" on="1"/>
        <pt x="33" y="832" on="0"/>
        <pt x="35" y="850" on="1"/>
        <pt x="36" y="857" on="0"/>
        <pt x="57" y="877" on="1"/>
        <pt x="60" y="918" on="0"/>
        <pt x="92" y="914" on="1"/>
        <pt x="107" y="907" on="1"/>
        <pt x="191" y="965" on="0"/>
      </contour>
      <contour>
        <pt x="113" y="837" on="1"/>
        <pt x="102" y="618" on="0"/>
        <pt x="106" y="496" on="1"/>
        <pt x="115" y="495" on="1"/>
        <pt x="213" y="541" on="0"/>
        <pt x="278" y="711" on="1"/>
        <pt x="285" y="754" on="1"/>
        <pt x="286" y="763" on="1"/>
        <pt x="295" y="854" on="0"/>
        <pt x="245" y="900" on="1"/>
        <pt x="229" y="901" on="1"/>
        <pt x="195" y="904" on="0"/>
      </contour>
      <contour>
        <pt x="216" y="-86" on="1"/>
        <pt x="271" y="-99" on="0"/>
        <pt x="260" y="-177" on="1"/>
        <pt x="232" y="-245" on="0"/>
        <pt x="175" y="-271" on="1"/>
        <pt x="147" y="-260" on="0"/>
        <pt x="147" y="-239" on="1"/>
        <pt x="236" y="-183" on="0"/>
        <pt x="182" y="-136" on="1"/>
        <pt x="182" y="-86" on="0"/>
      </contour>
    </TTGlyph>
    <TTGlyph name="S" xMin="39" yMin="-37" xMax="370" yMax="931">
      <contour>
        <pt x="209" y="931" on="1"/>
        <pt x="309" y="931" on="0"/>
        <pt x="351" y="811" on="1"/>
        <pt x="357" y="799" on="0"/>
        <pt x="357" y="776" on="1"/>
        <pt x="357" y="751" on="0"/>
        <pt x="326" y="748" on="1"/>
        <pt x="299" y="748" on="0"/>
        <pt x="292" y="814" on="1"/>
        <pt x="258" y="871" on="0"/>
        <pt x="216" y="871" on="1"/>
        <pt x="202" y="871" on="1"/>
        <pt x="141" y="871" on="0"/>
        <pt x="130" y="751" on="1"/>
        <pt x="130" y="748" on="1"/>
        <pt x="130" y="604" on="0"/>
        <pt x="313" y="313" on="1"/>
        <pt x="370" y="202" on="0"/>
        <pt x="370" y="127" on="1"/>
        <pt x="370" y="25" on="0"/>
        <pt x="266" y="-31" on="1"/>
        <pt x="231" y="-37" on="1"/>
        <pt x="139" y="-37" on="0"/>
        <pt x="55" y="89" on="1"/>
        <pt x="39" y="117" on="0"/>
        <pt x="39" y="149" on="1"/>
        <pt x="39" y="200" on="0"/>
        <pt x="74" y="206" on="1"/>
        <pt x="83" y="206" on="1"/>
        <pt x="105" y="191" on="0"/>
        <pt x="105" y="178" on="1"/>
        <pt x="99" y="149" on="1"/>
        <pt x="99" y="147" on="1"/>
        <pt x="99" y="82" on="0"/>
        <pt x="206" y="27" on="1"/>
        <pt x="225" y="23" on="1"/>
        <pt x="234" y="23" on="1"/>
        <pt x="286" y="23" on="0"/>
        <pt x="310" y="112" on="1"/>
        <pt x="310" y="124" on="1"/>
        <pt x="310" y="231" on="0"/>
        <pt x="171" y="439" on="1"/>
        <pt x="71" y="636" on="0"/>
        <pt x="71" y="748" on="1"/>
        <pt x="71" y="874" on="0"/>
        <pt x="168" y="924" on="1"/>
      </contour>
    </TTGlyph>
    <TTGlyph name="Sacute" xMin="39" yMin="-37" xMax="370" yMax="1187">
      <contour>
        <pt x="209" y="931" on="1"/>
        <pt x="309" y="931" on="0"/>
        <pt x="351" y="811" on="1"/>
        <pt x="357" y="799" on="0"/>
        <pt x="357" y="776" on="1"/>
        <pt x="357" y="751" on="0"/>
        <pt x="326" y="748" on="1"/>
        <pt x="299" y="748" on="0"/>
        <pt x="292" y="814" on="1"/>
        <pt x="258" y="871" on="0"/>
        <pt x="216" y="871" on="1"/>
        <pt x="202" y="871" on="1"/>
        <pt x="141" y="871" on="0"/>
        <pt x="130" y="751" on="1"/>
        <pt x="130" y="748" on="1"/>
        <pt x="130" y="604" on="0"/>
        <pt x="313" y="313" on="1"/>
        <pt x="370" y="202" on="0"/>
        <pt x="370" y="127" on="1"/>
        <pt x="370" y="25" on="0"/>
        <pt x="266" y="-31" on="1"/>
        <pt x="231" y="-37" on="1"/>
        <pt x="139" y="-37" on="0"/>
        <pt x="55" y="89" on="1"/>
        <pt x="39" y="117" on="0"/>
        <pt x="39" y="149" on="1"/>
        <pt x="39" y="200" on="0"/>
        <pt x="74" y="206" on="1"/>
        <pt x="83" y="206" on="1"/>
        <pt x="105" y="191" on="0"/>
        <pt x="105" y="178" on="1"/>
        <pt x="99" y="149" on="1"/>
        <pt x="99" y="147" on="1"/>
        <pt x="99" y="82" on="0"/>
        <pt x="206" y="27" on="1"/>
        <pt x="225" y="23" on="1"/>
        <pt x="234" y="23" on="1"/>
        <pt x="286" y="23" on="0"/>
        <pt x="310" y="112" on="1"/>
        <pt x="310" y="124" on="1"/>
        <pt x="310" y="231" on="0"/>
        <pt x="171" y="439" on="1"/>
        <pt x="71" y="636" on="0"/>
        <pt x="71" y="748" on="1"/>
        <pt x="71" y="874" on="0"/>
        <pt x="168" y="924" on="1"/>
      </contour>
      <contour>
        <pt x="265" y="1187" on="1"/>
        <pt x="296" y="1179" on="0"/>
        <pt x="296" y="1156" on="1"/>
        <pt x="296" y="1146" on="0"/>
        <pt x="176" y="1039" on="1"/>
        <pt x="124" y="989" on="0"/>
        <pt x="116" y="989" on="1"/>
        <pt x="85" y="997" on="0"/>
        <pt x="85" y="1023" on="1"/>
        <pt x="236" y="1187" on="0"/>
      </contour>
    </TTGlyph>
    <TTGlyph name="Scaron" xMin="39" yMin="-37" xMax="370" yMax="1212">
      <component glyphName="S" x="0" y="0" flags="0x204"/>
      <component glyphName="caron" x="65" y="375" flags="0x4"/>
    </TTGlyph>
    <TTGlyph name="Scedilla" xMin="39" yMin="-275" xMax="370" yMax="931">
      <contour>
        <pt x="241" y="-74" on="1"/>
        <pt x="272" y="-65" on="0"/>
        <pt x="284" y="-65" on="1"/>
        <pt x="332" y="-65" on="0"/>
        <pt x="339" y="-119" on="1"/>
        <pt x="339" y="-122" on="1"/>
        <pt x="339" y="-195" on="0"/>
        <pt x="271" y="-259" on="1"/>
        <pt x="247" y="-275" on="0"/>
        <pt x="221" y="-275" on="1"/>
        <pt x="157" y="-262" on="0"/>
        <pt x="157" y="-233" on="1"/>
        <pt x="157" y="-225" on="0"/>
        <pt x="178" y="-216" on="1"/>
        <pt x="183" y="-216" on="0"/>
        <pt x="212" y="-238" on="1"/>
        <pt x="229" y="-238" on="1"/>
        <pt x="261" y="-238" on="0"/>
        <pt x="292" y="-155" on="1"/>
        <pt x="296" y="-122" on="1"/>
        <pt x="293" y="-102" on="0"/>
        <pt x="287" y="-102" on="1"/>
        <pt x="284" y="-102" on="1"/>
        <pt x="268" y="-102" on="0"/>
        <pt x="230" y="-125" on="1"/>
        <pt x="197" y="-125" on="0"/>
        <pt x="196" y="-32" on="1"/>
        <pt x="123" y="-13" on="0"/>
        <pt x="55" y="89" on="1"/>
        <pt x="39" y="117" on="0"/>
        <pt x="39" y="149" on="1"/>
        <pt x="39" y="200" on="0"/>
        <pt x="74" y="206" on="1"/>
        <pt x="83" y="206" on="1"/>
        <pt x="105" y="191" on="0"/>
        <pt x="105" y="178" on="1"/>
        <pt x="99" y="149" on="1"/>
        <pt x="99" y="147" on="1"/>
        <pt x="99" y="82" on="0"/>
        <pt x="206" y="27" on="1"/>
        <pt x="225" y="23" on="1"/>
        <pt x="234" y="23" on="1"/>
        <pt x="286" y="23" on="0"/>
        <pt x="310" y="112" on="1"/>
        <pt x="310" y="124" on="1"/>
        <pt x="310" y="231" on="0"/>
        <pt x="171" y="439" on="1"/>
        <pt x="71" y="636" on="0"/>
        <pt x="71" y="748" on="1"/>
        <pt x="71" y="874" on="0"/>
        <pt x="168" y="924" on="1"/>
        <pt x="209" y="931" on="1"/>
        <pt x="309" y="931" on="0"/>
        <pt x="351" y="811" on="1"/>
        <pt x="357" y="799" on="0"/>
        <pt x="357" y="776" on="1"/>
        <pt x="357" y="751" on="0"/>
        <pt x="326" y="748" on="1"/>
        <pt x="299" y="748" on="0"/>
        <pt x="292" y="814" on="1"/>
        <pt x="258" y="871" on="0"/>
        <pt x="216" y="871" on="1"/>
        <pt x="202" y="871" on="1"/>
        <pt x="141" y="871" on="0"/>
        <pt x="130" y="751" on="1"/>
        <pt x="130" y="748" on="1"/>
        <pt x="130" y="604" on="0"/>
        <pt x="313" y="313" on="1"/>
        <pt x="370" y="202" on="0"/>
        <pt x="370" y="127" on="1"/>
        <pt x="370" y="25" on="0"/>
        <pt x="266" y="-31" on="1"/>
        <pt x="233" y="-36" on="1"/>
        <pt x="238" y="-50" on="0"/>
      </contour>
    </TTGlyph>
    <TTGlyph name="Scircumflex" xMin="39" yMin="-37" xMax="370" yMax="1192">
      <contour>
        <pt x="209" y="931" on="1"/>
        <pt x="309" y="931" on="0"/>
        <pt x="351" y="811" on="1"/>
        <pt x="357" y="799" on="0"/>
        <pt x="357" y="776" on="1"/>
        <pt x="357" y="751" on="0"/>
        <pt x="326" y="748" on="1"/>
        <pt x="299" y="748" on="0"/>
        <pt x="292" y="814" on="1"/>
        <pt x="258" y="871" on="0"/>
        <pt x="216" y="871" on="1"/>
        <pt x="202" y="871" on="1"/>
        <pt x="141" y="871" on="0"/>
        <pt x="130" y="751" on="1"/>
        <pt x="130" y="748" on="1"/>
        <pt x="130" y="604" on="0"/>
        <pt x="313" y="313" on="1"/>
        <pt x="370" y="202" on="0"/>
        <pt x="370" y="127" on="1"/>
        <pt x="370" y="25" on="0"/>
        <pt x="266" y="-31" on="1"/>
        <pt x="231" y="-37" on="1"/>
        <pt x="139" y="-37" on="0"/>
        <pt x="55" y="89" on="1"/>
        <pt x="39" y="117" on="0"/>
        <pt x="39" y="149" on="1"/>
        <pt x="39" y="200" on="0"/>
        <pt x="74" y="206" on="1"/>
        <pt x="83" y="206" on="1"/>
        <pt x="105" y="191" on="0"/>
        <pt x="105" y="178" on="1"/>
        <pt x="99" y="149" on="1"/>
        <pt x="99" y="147" on="1"/>
        <pt x="99" y="82" on="0"/>
        <pt x="206" y="27" on="1"/>
        <pt x="225" y="23" on="1"/>
        <pt x="234" y="23" on="1"/>
        <pt x="286" y="23" on="0"/>
        <pt x="310" y="112" on="1"/>
        <pt x="310" y="124" on="1"/>
        <pt x="310" y="231" on="0"/>
        <pt x="171" y="439" on="1"/>
        <pt x="71" y="636" on="0"/>
        <pt x="71" y="748" on="1"/>
        <pt x="71" y="874" on="0"/>
        <pt x="168" y="924" on="1"/>
      </contour>
      <contour>
        <pt x="320" y="1039" on="1"/>
        <pt x="321" y="1012" on="0"/>
        <pt x="287" y="1005" on="1"/>
        <pt x="275" y="1005" on="0"/>
        <pt x="158" y="1110" on="1"/>
        <pt x="155" y="1110" on="1"/>
        <pt x="117" y="1021" on="0"/>
        <pt x="98" y="1020" on="1"/>
        <pt x="94" y="1020" on="1"/>
        <pt x="67" y="1023" on="0"/>
        <pt x="66" y="1047" on="1"/>
        <pt x="112" y="1177" on="0"/>
        <pt x="153" y="1191" on="1"/>
        <pt x="169" y="1192" on="0"/>
        <pt x="247" y="1106" on="1"/>
        <pt x="306" y="1064" on="0"/>
      </contour>
    </TTGlyph>
    <TTGlyph name="T" xMin="25" yMin="-62" xMax="359" yMax="951">
      <contour>
        <pt x="170" y="951" on="1"/>
        <pt x="220" y="951" on="1"/>
        <pt x="319" y="951" on="0"/>
        <pt x="353" y="916" on="1"/>
        <pt x="359" y="897" on="1"/>
        <pt x="359" y="894" on="1"/>
        <pt x="359" y="869" on="0"/>
        <pt x="328" y="866" on="1"/>
        <pt x="298" y="891" on="0"/>
        <pt x="208" y="891" on="1"/>
        <pt x="198" y="891" on="1"/>
        <pt x="198" y="887" on="1"/>
        <pt x="198" y="702" on="0"/>
        <pt x="207" y="46" on="0"/>
        <pt x="233" y="11" on="1"/>
        <pt x="223" y="-17" on="0"/>
        <pt x="199" y="-17" on="1"/>
        <pt x="157" y="-62" on="0"/>
        <pt x="139" y="716" on="0"/>
        <pt x="139" y="887" on="1"/>
        <pt x="139" y="891" on="1"/>
        <pt x="50" y="885" on="1"/>
        <pt x="25" y="896" on="0"/>
        <pt x="25" y="916" on="1"/>
        <pt x="25" y="951" on="0"/>
      </contour>
    </TTGlyph>
    <TTGlyph name="Tcaron" xMin="25" yMin="-62" xMax="359" yMax="1275">
      <contour>
        <pt x="170" y="951" on="1"/>
        <pt x="220" y="951" on="1"/>
        <pt x="319" y="951" on="0"/>
        <pt x="353" y="916" on="1"/>
        <pt x="359" y="897" on="1"/>
        <pt x="359" y="894" on="1"/>
        <pt x="359" y="869" on="0"/>
        <pt x="328" y="866" on="1"/>
        <pt x="298" y="891" on="0"/>
        <pt x="208" y="891" on="1"/>
        <pt x="198" y="891" on="1"/>
        <pt x="198" y="887" on="1"/>
        <pt x="198" y="702" on="0"/>
        <pt x="207" y="46" on="0"/>
        <pt x="233" y="11" on="1"/>
        <pt x="223" y="-17" on="0"/>
        <pt x="199" y="-17" on="1"/>
        <pt x="157" y="-62" on="0"/>
        <pt x="139" y="716" on="0"/>
        <pt x="139" y="887" on="1"/>
        <pt x="139" y="891" on="1"/>
        <pt x="50" y="885" on="1"/>
        <pt x="25" y="896" on="0"/>
        <pt x="25" y="916" on="1"/>
        <pt x="25" y="951" on="0"/>
      </contour>
      <contour>
        <pt x="306" y="1250" on="1"/>
        <pt x="306" y="1238" on="0"/>
        <pt x="208" y="1089" on="1"/>
        <pt x="195" y="1080" on="0"/>
        <pt x="180" y="1080" on="1"/>
        <pt x="172" y="1080" on="0"/>
        <pt x="122" y="1149" on="1"/>
        <pt x="63" y="1196" on="0"/>
        <pt x="63" y="1219" on="1"/>
        <pt x="71" y="1244" on="0"/>
        <pt x="91" y="1244" on="1"/>
        <pt x="94" y="1244" on="1"/>
        <pt x="109" y="1244" on="0"/>
        <pt x="183" y="1168" on="1"/>
        <pt x="189" y="1168" on="1"/>
        <pt x="253" y="1275" on="0"/>
        <pt x="274" y="1275" on="1"/>
        <pt x="277" y="1275" on="1"/>
        <pt x="292" y="1275" on="0"/>
      </contour>
    </TTGlyph>
    <TTGlyph name="Tcommaaccent" xMin="25" yMin="-271" xMax="359" yMax="951">
      <contour>
        <pt x="170" y="951" on="1"/>
        <pt x="220" y="951" on="1"/>
        <pt x="319" y="951" on="0"/>
        <pt x="353" y="916" on="1"/>
        <pt x="359" y="897" on="1"/>
        <pt x="359" y="894" on="1"/>
        <pt x="359" y="869" on="0"/>
        <pt x="328" y="866" on="1"/>
        <pt x="298" y="891" on="0"/>
        <pt x="208" y="891" on="1"/>
        <pt x="198" y="891" on="1"/>
        <pt x="198" y="887" on="1"/>
        <pt x="198" y="702" on="0"/>
        <pt x="207" y="46" on="0"/>
        <pt x="233" y="11" on="1"/>
        <pt x="223" y="-17" on="0"/>
        <pt x="199" y="-17" on="1"/>
        <pt x="157" y="-62" on="0"/>
        <pt x="139" y="716" on="0"/>
        <pt x="139" y="887" on="1"/>
        <pt x="139" y="891" on="1"/>
        <pt x="50" y="885" on="1"/>
        <pt x="25" y="896" on="0"/>
        <pt x="25" y="916" on="1"/>
        <pt x="25" y="951" on="0"/>
      </contour>
      <contour>
        <pt x="199" y="-86" on="1"/>
        <pt x="255" y="-99" on="0"/>
        <pt x="243" y="-177" on="1"/>
        <pt x="216" y="-245" on="0"/>
        <pt x="158" y="-271" on="1"/>
        <pt x="130" y="-260" on="0"/>
        <pt x="130" y="-239" on="1"/>
        <pt x="220" y="-183" on="0"/>
        <pt x="165" y="-136" on="1"/>
        <pt x="165" y="-86" on="0"/>
      </contour>
    </TTGlyph>
    <TTGlyph name="Thorn" xMin="15" yMin="3" xMax="282" yMax="759">
      <contour>
        <pt x="49" y="759" on="1"/>
        <pt x="81" y="753" on="0"/>
        <pt x="81" y="730" on="1"/>
        <pt x="76" y="673" on="1"/>
        <pt x="103" y="531" on="1"/>
        <pt x="106" y="528" on="1"/>
        <pt x="109" y="528" on="1"/>
        <pt x="133" y="553" on="0"/>
        <pt x="172" y="560" on="1"/>
        <pt x="282" y="528" on="0"/>
        <pt x="282" y="399" on="1"/>
        <pt x="282" y="373" on="1"/>
        <pt x="277" y="221" on="0"/>
        <pt x="188" y="184" on="1"/>
        <pt x="162" y="182" on="1"/>
        <pt x="153" y="182" on="1"/>
        <pt x="150" y="184" on="1"/>
        <pt x="140" y="182" on="1"/>
        <pt x="146" y="28" on="1"/>
        <pt x="146" y="11" on="0"/>
        <pt x="126" y="3" on="1"/>
        <pt x="114" y="3" on="1"/>
        <pt x="82" y="3" on="0"/>
        <pt x="77" y="210" on="1"/>
        <pt x="72" y="251" on="0"/>
        <pt x="49" y="289" on="1"/>
        <pt x="49" y="298" on="1"/>
        <pt x="58" y="313" on="1"/>
        <pt x="52" y="377" on="1"/>
        <pt x="55" y="411" on="1"/>
        <pt x="15" y="667" on="1"/>
        <pt x="15" y="759" on="0"/>
      </contour>
      <contour>
        <pt x="118" y="409" on="1"/>
        <pt x="118" y="244" on="0"/>
        <pt x="153" y="244" on="1"/>
        <pt x="156" y="241" on="1"/>
        <pt x="175" y="241" on="1"/>
        <pt x="226" y="280" on="0"/>
        <pt x="226" y="383" on="1"/>
        <pt x="226" y="464" on="0"/>
        <pt x="182" y="497" on="1"/>
        <pt x="159" y="497" on="1"/>
        <pt x="118" y="464" on="0"/>
      </contour>
    </TTGlyph>
    <TTGlyph name="U" xMin="25" yMin="-28" xMax="451" yMax="967">
      <contour>
        <pt x="318" y="967" on="1"/>
        <pt x="359" y="967" on="0"/>
        <pt x="359" y="747" on="1"/>
        <pt x="365" y="703" on="0"/>
        <pt x="365" y="517" on="1"/>
        <pt x="362" y="335" on="1"/>
        <pt x="385" y="81" on="0"/>
        <pt x="422" y="35" on="1"/>
        <pt x="451" y="15" on="0"/>
        <pt x="451" y="4" on="1"/>
        <pt x="445" y="-20" on="0"/>
        <pt x="428" y="-28" on="1"/>
        <pt x="416" y="-28" on="1"/>
        <pt x="366" y="-28" on="0"/>
        <pt x="334" y="104" on="1"/>
        <pt x="328" y="102" on="0"/>
        <pt x="300" y="22" on="1"/>
        <pt x="264" y="-28" on="0"/>
        <pt x="227" y="-28" on="1"/>
        <pt x="100" y="-28" on="0"/>
        <pt x="76" y="309" on="1"/>
        <pt x="25" y="901" on="1"/>
        <pt x="35" y="923" on="0"/>
        <pt x="53" y="923" on="1"/>
        <pt x="88" y="923" on="0"/>
        <pt x="88" y="829" on="1"/>
        <pt x="148" y="180" on="1"/>
        <pt x="180" y="32" on="0"/>
        <pt x="227" y="32" on="1"/>
        <pt x="282" y="47" on="0"/>
        <pt x="300" y="344" on="1"/>
        <pt x="283" y="607" on="0"/>
        <pt x="283" y="819" on="1"/>
        <pt x="283" y="936" on="1"/>
        <pt x="283" y="962" on="0"/>
      </contour>
    </TTGlyph>
    <TTGlyph name="Uacute" xMin="25" yMin="-28" xMax="451" yMax="1160">
      <contour>
        <pt x="318" y="967" on="1"/>
        <pt x="359" y="967" on="0"/>
        <pt x="359" y="747" on="1"/>
        <pt x="365" y="703" on="0"/>
        <pt x="365" y="517" on="1"/>
        <pt x="362" y="335" on="1"/>
        <pt x="385" y="81" on="0"/>
        <pt x="422" y="35" on="1"/>
        <pt x="451" y="15" on="0"/>
        <pt x="451" y="4" on="1"/>
        <pt x="445" y="-20" on="0"/>
        <pt x="428" y="-28" on="1"/>
        <pt x="416" y="-28" on="1"/>
        <pt x="366" y="-28" on="0"/>
        <pt x="334" y="104" on="1"/>
        <pt x="328" y="102" on="0"/>
        <pt x="300" y="22" on="1"/>
        <pt x="264" y="-28" on="0"/>
        <pt x="227" y="-28" on="1"/>
        <pt x="100" y="-28" on="0"/>
        <pt x="76" y="309" on="1"/>
        <pt x="25" y="901" on="1"/>
        <pt x="35" y="923" on="0"/>
        <pt x="53" y="923" on="1"/>
        <pt x="88" y="923" on="0"/>
        <pt x="88" y="829" on="1"/>
        <pt x="148" y="180" on="1"/>
        <pt x="180" y="32" on="0"/>
        <pt x="227" y="32" on="1"/>
        <pt x="282" y="47" on="0"/>
        <pt x="300" y="344" on="1"/>
        <pt x="283" y="607" on="0"/>
        <pt x="283" y="819" on="1"/>
        <pt x="283" y="936" on="1"/>
        <pt x="283" y="962" on="0"/>
      </contour>
      <contour>
        <pt x="281" y="1160" on="1"/>
        <pt x="312" y="1152" on="0"/>
        <pt x="312" y="1129" on="1"/>
        <pt x="312" y="1118" on="0"/>
        <pt x="193" y="1012" on="1"/>
        <pt x="141" y="961" on="0"/>
        <pt x="132" y="961" on="1"/>
        <pt x="102" y="969" on="0"/>
        <pt x="102" y="996" on="1"/>
        <pt x="253" y="1160" on="0"/>
      </contour>
    </TTGlyph>
    <TTGlyph name="Ubreve" xMin="25" yMin="-28" xMax="451" yMax="1306">
      <contour>
        <pt x="318" y="967" on="1"/>
        <pt x="359" y="967" on="0"/>
        <pt x="359" y="747" on="1"/>
        <pt x="365" y="703" on="0"/>
        <pt x="365" y="517" on="1"/>
        <pt x="362" y="335" on="1"/>
        <pt x="385" y="81" on="0"/>
        <pt x="422" y="35" on="1"/>
        <pt x="451" y="15" on="0"/>
        <pt x="451" y="4" on="1"/>
        <pt x="445" y="-20" on="0"/>
        <pt x="428" y="-28" on="1"/>
        <pt x="416" y="-28" on="1"/>
        <pt x="366" y="-28" on="0"/>
        <pt x="334" y="104" on="1"/>
        <pt x="328" y="102" on="0"/>
        <pt x="300" y="22" on="1"/>
        <pt x="264" y="-28" on="0"/>
        <pt x="227" y="-28" on="1"/>
        <pt x="100" y="-28" on="0"/>
        <pt x="76" y="309" on="1"/>
        <pt x="25" y="901" on="1"/>
        <pt x="35" y="923" on="0"/>
        <pt x="53" y="923" on="1"/>
        <pt x="88" y="923" on="0"/>
        <pt x="88" y="829" on="1"/>
        <pt x="148" y="180" on="1"/>
        <pt x="180" y="32" on="0"/>
        <pt x="227" y="32" on="1"/>
        <pt x="282" y="47" on="0"/>
        <pt x="300" y="344" on="1"/>
        <pt x="283" y="607" on="0"/>
        <pt x="283" y="819" on="1"/>
        <pt x="283" y="936" on="1"/>
        <pt x="283" y="962" on="0"/>
      </contour>
      <contour>
        <pt x="365" y="1281" on="1"/>
        <pt x="250" y="1139" on="0"/>
        <pt x="101" y="1249" on="0"/>
        <pt x="101" y="1271" on="1"/>
        <pt x="109" y="1297" on="0"/>
        <pt x="129" y="1297" on="1"/>
        <pt x="132" y="1297" on="1"/>
        <pt x="218" y="1194" on="0"/>
        <pt x="311" y="1306" on="0"/>
        <pt x="334" y="1306" on="1"/>
        <pt x="337" y="1306" on="1"/>
        <pt x="352" y="1306" on="0"/>
      </contour>
    </TTGlyph>
    <TTGlyph name="Ucircumflex" xMin="22" yMin="-28" xMax="451" yMax="1162">
      <contour>
        <pt x="318" y="967" on="1"/>
        <pt x="359" y="967" on="0"/>
        <pt x="359" y="747" on="1"/>
        <pt x="365" y="703" on="0"/>
        <pt x="365" y="517" on="1"/>
        <pt x="362" y="335" on="1"/>
        <pt x="385" y="81" on="0"/>
        <pt x="422" y="35" on="1"/>
        <pt x="451" y="15" on="0"/>
        <pt x="451" y="4" on="1"/>
        <pt x="445" y="-20" on="0"/>
        <pt x="428" y="-28" on="1"/>
        <pt x="416" y="-28" on="1"/>
        <pt x="366" y="-28" on="0"/>
        <pt x="334" y="104" on="1"/>
        <pt x="328" y="102" on="0"/>
        <pt x="300" y="22" on="1"/>
        <pt x="264" y="-28" on="0"/>
        <pt x="227" y="-28" on="1"/>
        <pt x="100" y="-28" on="0"/>
        <pt x="76" y="309" on="1"/>
        <pt x="25" y="901" on="1"/>
        <pt x="35" y="923" on="0"/>
        <pt x="53" y="923" on="1"/>
        <pt x="88" y="923" on="0"/>
        <pt x="88" y="829" on="1"/>
        <pt x="148" y="180" on="1"/>
        <pt x="180" y="32" on="0"/>
        <pt x="227" y="32" on="1"/>
        <pt x="282" y="47" on="0"/>
        <pt x="300" y="344" on="1"/>
        <pt x="283" y="607" on="0"/>
        <pt x="283" y="819" on="1"/>
        <pt x="283" y="936" on="1"/>
        <pt x="283" y="962" on="0"/>
      </contour>
      <contour>
        <pt x="275" y="991" on="1"/>
        <pt x="274" y="964" on="0"/>
        <pt x="238" y="962" on="1"/>
        <pt x="228" y="963" on="0"/>
        <pt x="122" y="1080" on="1"/>
        <pt x="120" y="1081" on="1"/>
        <pt x="72" y="997" on="0"/>
        <pt x="52" y="998" on="1"/>
        <pt x="49" y="999" on="1"/>
        <pt x="22" y="1005" on="0"/>
        <pt x="23" y="1030" on="1"/>
        <pt x="85" y="1153" on="0"/>
        <pt x="127" y="1162" on="1"/>
        <pt x="144" y="1161" on="0"/>
        <pt x="210" y="1066" on="1"/>
        <pt x="264" y="1017" on="0"/>
      </contour>
    </TTGlyph>
    <TTGlyph name="Udieresis" xMin="25" yMin="-28" xMax="451" yMax="1009">
      <contour>
        <pt x="318" y="967" on="1"/>
        <pt x="359" y="967" on="0"/>
        <pt x="359" y="747" on="1"/>
        <pt x="365" y="703" on="0"/>
        <pt x="365" y="517" on="1"/>
        <pt x="362" y="335" on="1"/>
        <pt x="385" y="81" on="0"/>
        <pt x="422" y="35" on="1"/>
        <pt x="451" y="15" on="0"/>
        <pt x="451" y="4" on="1"/>
        <pt x="445" y="-20" on="0"/>
        <pt x="428" y="-28" on="1"/>
        <pt x="416" y="-28" on="1"/>
        <pt x="366" y="-28" on="0"/>
        <pt x="334" y="104" on="1"/>
        <pt x="328" y="102" on="0"/>
        <pt x="300" y="22" on="1"/>
        <pt x="264" y="-28" on="0"/>
        <pt x="227" y="-28" on="1"/>
        <pt x="100" y="-28" on="0"/>
        <pt x="76" y="309" on="1"/>
        <pt x="25" y="901" on="1"/>
        <pt x="35" y="923" on="0"/>
        <pt x="53" y="923" on="1"/>
        <pt x="88" y="923" on="0"/>
        <pt x="88" y="829" on="1"/>
        <pt x="148" y="180" on="1"/>
        <pt x="180" y="32" on="0"/>
        <pt x="227" y="32" on="1"/>
        <pt x="282" y="47" on="0"/>
        <pt x="300" y="344" on="1"/>
        <pt x="283" y="607" on="0"/>
        <pt x="283" y="819" on="1"/>
        <pt x="283" y="936" on="1"/>
        <pt x="283" y="962" on="0"/>
      </contour>
      <contour>
        <pt x="128" y="1009" on="1"/>
        <pt x="150" y="1009" on="0"/>
        <pt x="153" y="975" on="1"/>
        <pt x="147" y="943" on="0"/>
        <pt x="121" y="943" on="1"/>
        <pt x="95" y="943" on="0"/>
        <pt x="90" y="977" on="1"/>
        <pt x="103" y="1009" on="0"/>
      </contour>
      <contour>
        <pt x="216" y="1009" on="1"/>
        <pt x="241" y="1001" on="0"/>
        <pt x="241" y="977" on="1"/>
        <pt x="241" y="956" on="0"/>
        <pt x="206" y="949" on="1"/>
        <pt x="188" y="949" on="0"/>
        <pt x="175" y="977" on="1"/>
        <pt x="175" y="1007" on="0"/>
      </contour>
    </TTGlyph>
    <TTGlyph name="Ugrave" xMin="25" yMin="-28" xMax="451" yMax="1105">
      <contour>
        <pt x="318" y="967" on="1"/>
        <pt x="359" y="967" on="0"/>
        <pt x="359" y="747" on="1"/>
        <pt x="365" y="703" on="0"/>
        <pt x="365" y="517" on="1"/>
        <pt x="362" y="335" on="1"/>
        <pt x="385" y="81" on="0"/>
        <pt x="422" y="35" on="1"/>
        <pt x="451" y="15" on="0"/>
        <pt x="451" y="4" on="1"/>
        <pt x="445" y="-20" on="0"/>
        <pt x="428" y="-28" on="1"/>
        <pt x="416" y="-28" on="1"/>
        <pt x="366" y="-28" on="0"/>
        <pt x="334" y="104" on="1"/>
        <pt x="328" y="102" on="0"/>
        <pt x="300" y="22" on="1"/>
        <pt x="264" y="-28" on="0"/>
        <pt x="227" y="-28" on="1"/>
        <pt x="100" y="-28" on="0"/>
        <pt x="76" y="309" on="1"/>
        <pt x="25" y="901" on="1"/>
        <pt x="35" y="923" on="0"/>
        <pt x="53" y="923" on="1"/>
        <pt x="88" y="923" on="0"/>
        <pt x="88" y="829" on="1"/>
        <pt x="148" y="180" on="1"/>
        <pt x="180" y="32" on="0"/>
        <pt x="227" y="32" on="1"/>
        <pt x="282" y="47" on="0"/>
        <pt x="300" y="344" on="1"/>
        <pt x="283" y="607" on="0"/>
        <pt x="283" y="819" on="1"/>
        <pt x="283" y="936" on="1"/>
        <pt x="283" y="962" on="0"/>
      </contour>
      <contour>
        <pt x="97" y="1105" on="1"/>
        <pt x="126" y="1091" on="0"/>
        <pt x="185" y="1004" on="1"/>
        <pt x="232" y="971" on="0"/>
        <pt x="232" y="958" on="1"/>
        <pt x="232" y="940" on="0"/>
        <pt x="201" y="925" on="1"/>
        <pt x="145" y="949" on="0"/>
        <pt x="66" y="1071" on="1"/>
        <pt x="66" y="1076" on="1"/>
        <pt x="76" y="1105" on="0"/>
      </contour>
    </TTGlyph>
    <TTGlyph name="Uhungarumlaut" xMin="25" yMin="-28" xMax="451" yMax="1241">
      <contour>
        <pt x="318" y="967" on="1"/>
        <pt x="359" y="967" on="0"/>
        <pt x="359" y="747" on="1"/>
        <pt x="365" y="703" on="0"/>
        <pt x="365" y="517" on="1"/>
        <pt x="362" y="335" on="1"/>
        <pt x="385" y="81" on="0"/>
        <pt x="422" y="35" on="1"/>
        <pt x="451" y="15" on="0"/>
        <pt x="451" y="4" on="1"/>
        <pt x="445" y="-20" on="0"/>
        <pt x="428" y="-28" on="1"/>
        <pt x="416" y="-28" on="1"/>
        <pt x="366" y="-28" on="0"/>
        <pt x="334" y="104" on="1"/>
        <pt x="328" y="102" on="0"/>
        <pt x="300" y="22" on="1"/>
        <pt x="264" y="-28" on="0"/>
        <pt x="227" y="-28" on="1"/>
        <pt x="100" y="-28" on="0"/>
        <pt x="76" y="309" on="1"/>
        <pt x="25" y="901" on="1"/>
        <pt x="35" y="923" on="0"/>
        <pt x="53" y="923" on="1"/>
        <pt x="88" y="923" on="0"/>
        <pt x="88" y="829" on="1"/>
        <pt x="148" y="180" on="1"/>
        <pt x="180" y="32" on="0"/>
        <pt x="227" y="32" on="1"/>
        <pt x="282" y="47" on="0"/>
        <pt x="300" y="344" on="1"/>
        <pt x="283" y="607" on="0"/>
        <pt x="283" y="819" on="1"/>
        <pt x="283" y="936" on="1"/>
        <pt x="283" y="962" on="0"/>
      </contour>
      <contour>
        <pt x="220" y="1241" on="1"/>
        <pt x="251" y="1233" on="0"/>
        <pt x="251" y="1209" on="1"/>
        <pt x="251" y="1199" on="0"/>
        <pt x="178" y="1138" on="1"/>
        <pt x="126" y="1086" on="0"/>
        <pt x="118" y="1086" on="1"/>
        <pt x="86" y="1095" on="0"/>
        <pt x="86" y="1121" on="1"/>
        <pt x="192" y="1241" on="0"/>
      </contour>
      <contour>
        <pt x="333" y="1219" on="1"/>
        <pt x="364" y="1210" on="0"/>
        <pt x="364" y="1187" on="1"/>
        <pt x="364" y="1177" on="0"/>
        <pt x="291" y="1114" on="1"/>
        <pt x="239" y="1065" on="0"/>
        <pt x="230" y="1065" on="1"/>
        <pt x="199" y="1073" on="0"/>
        <pt x="199" y="1099" on="1"/>
        <pt x="304" y="1219" on="0"/>
      </contour>
    </TTGlyph>
    <TTGlyph name="Umacron" xMin="25" yMin="-28" xMax="451" yMax="1128">
      <contour>
        <pt x="318" y="967" on="1"/>
        <pt x="359" y="967" on="0"/>
        <pt x="359" y="747" on="1"/>
        <pt x="365" y="703" on="0"/>
        <pt x="365" y="517" on="1"/>
        <pt x="362" y="335" on="1"/>
        <pt x="385" y="81" on="0"/>
        <pt x="422" y="35" on="1"/>
        <pt x="451" y="15" on="0"/>
        <pt x="451" y="4" on="1"/>
        <pt x="445" y="-20" on="0"/>
        <pt x="428" y="-28" on="1"/>
        <pt x="416" y="-28" on="1"/>
        <pt x="366" y="-28" on="0"/>
        <pt x="334" y="104" on="1"/>
        <pt x="328" y="102" on="0"/>
        <pt x="300" y="22" on="1"/>
        <pt x="264" y="-28" on="0"/>
        <pt x="227" y="-28" on="1"/>
        <pt x="100" y="-28" on="0"/>
        <pt x="76" y="309" on="1"/>
        <pt x="25" y="901" on="1"/>
        <pt x="35" y="923" on="0"/>
        <pt x="53" y="923" on="1"/>
        <pt x="88" y="923" on="0"/>
        <pt x="88" y="829" on="1"/>
        <pt x="148" y="180" on="1"/>
        <pt x="180" y="32" on="0"/>
        <pt x="227" y="32" on="1"/>
        <pt x="282" y="47" on="0"/>
        <pt x="300" y="344" on="1"/>
        <pt x="283" y="607" on="0"/>
        <pt x="283" y="819" on="1"/>
        <pt x="283" y="936" on="1"/>
        <pt x="283" y="962" on="0"/>
      </contour>
      <contour>
        <pt x="125" y="1120" on="1"/>
        <pt x="366" y="1128" on="0"/>
        <pt x="366" y="1097" on="1"/>
        <pt x="370" y="1087" on="1"/>
        <pt x="361" y="1059" on="0"/>
        <pt x="345" y="1059" on="1"/>
        <pt x="279" y="1068" on="0"/>
        <pt x="128" y="1061" on="1"/>
        <pt x="110" y="1057" on="1"/>
        <pt x="87" y="1057" on="0"/>
        <pt x="81" y="1092" on="1"/>
        <pt x="81" y="1116" on="0"/>
      </contour>
    </TTGlyph>
    <TTGlyph name="Uogonek" xMin="25" yMin="-207" xMax="525" yMax="967">
      <contour>
        <pt x="439" y="-22" on="1"/>
        <pt x="437" y="-22" on="1"/>
        <pt x="433" y="-25" on="0"/>
        <pt x="428" y="-28" on="1"/>
        <pt x="416" y="-28" on="1"/>
        <pt x="364" y="-56" on="0"/>
        <pt x="364" y="-106" on="1"/>
        <pt x="364" y="-115" on="1"/>
        <pt x="369" y="-148" on="0"/>
        <pt x="395" y="-148" on="1"/>
        <pt x="405" y="-148" on="1"/>
        <pt x="473" y="-135" on="1"/>
        <pt x="525" y="-141" on="0"/>
        <pt x="455" y="-201" on="1"/>
        <pt x="452" y="-197" on="1"/>
        <pt x="425" y="-207" on="0"/>
        <pt x="395" y="-207" on="1"/>
        <pt x="321" y="-207" on="0"/>
        <pt x="304" y="-110" on="1"/>
        <pt x="335" y="-22" on="0"/>
        <pt x="382" y="-11" on="1"/>
        <pt x="355" y="19" on="0"/>
        <pt x="334" y="104" on="1"/>
        <pt x="328" y="102" on="0"/>
        <pt x="300" y="22" on="1"/>
        <pt x="264" y="-28" on="0"/>
        <pt x="227" y="-28" on="1"/>
        <pt x="100" y="-28" on="0"/>
        <pt x="76" y="309" on="1"/>
        <pt x="25" y="901" on="1"/>
        <pt x="35" y="923" on="0"/>
        <pt x="53" y="923" on="1"/>
        <pt x="88" y="923" on="0"/>
        <pt x="88" y="829" on="1"/>
        <pt x="148" y="180" on="1"/>
        <pt x="180" y="32" on="0"/>
        <pt x="227" y="32" on="1"/>
        <pt x="282" y="47" on="0"/>
        <pt x="300" y="344" on="1"/>
        <pt x="283" y="607" on="0"/>
        <pt x="283" y="819" on="1"/>
        <pt x="283" y="936" on="1"/>
        <pt x="283" y="962" on="0"/>
        <pt x="318" y="967" on="1"/>
        <pt x="359" y="967" on="0"/>
        <pt x="359" y="747" on="1"/>
        <pt x="365" y="703" on="0"/>
        <pt x="365" y="517" on="1"/>
        <pt x="362" y="335" on="1"/>
        <pt x="385" y="81" on="0"/>
        <pt x="422" y="35" on="1"/>
        <pt x="451" y="15" on="0"/>
        <pt x="451" y="4" on="1"/>
        <pt x="446" y="-12" on="0"/>
        <pt x="437" y="-21" on="1"/>
      </contour>
    </TTGlyph>
</ttFont>
